<svg xmlns="http://www.w3.org/2000/svg" version="1.1" width="1536" height="1024"><path d="M0 0 C506.88 0 1013.76 0 1536 0 C1536 337.92 1536 675.84 1536 1024 C1029.12 1024 522.24 1024 0 1024 C0 686.08 0 348.16 0 0 Z " fill="#FDFDFD" transform="translate(0,0)"/><path d="M0 0 C0.8242749 0.19609863 1.6485498 0.39219727 2.49780273 0.59423828 C9.00916235 2.3340725 15.60958905 4.98458905 20.4375 9.8125 C20.66538293 16.42110498 18.50889266 21.32174083 15.625 27.125 C15.28162598 27.81867676 14.93825195 28.51235352 14.58447266 29.22705078 C12.65969247 32.94396104 10.86328461 36.27415673 7.4375 38.8125 C4.41774099 39.32922485 2.99114835 39.12989766 0.33203125 37.60546875 C-0.35503906 37.07566406 -1.04210937 36.54585938 -1.75 36 C-9.46881018 30.60321206 -18.17540673 28.39709191 -27.5625 29.8125 C-32.58553543 31.4656509 -36.4049397 33.68250066 -40.1875 37.375 C-42.55012983 43.28157458 -42.86263032 49.23572226 -40.66796875 55.2734375 C-36.50547815 62.44147267 -29.42486638 66.54073874 -22.5625 70.8125 C-21.89766602 71.22677246 -21.23283203 71.64104492 -20.54785156 72.06787109 C-17.78338003 73.78637921 -15.01755798 75.5026309 -12.24707031 77.21142578 C-7.07124279 80.42709456 -2.25479867 83.92083113 2.4375 87.8125 C3.448125 88.575625 4.45875 89.33875 5.5 90.125 C14.70518572 98.54676565 22.12850602 109.01976207 22.90625 121.7578125 C22.94043818 123.48406791 22.95017161 125.21095258 22.9375 126.9375 C22.93177979 127.85112305 22.92605957 128.76474609 22.92016602 129.70605469 C22.59938651 142.03176409 19.20605801 152.79667246 10.4375 161.8125 C9.65439453 162.63621094 9.65439453 162.63621094 8.85546875 163.4765625 C-4.73624856 176.37381251 -23.67351827 178.45380109 -41.47290039 178.35546875 C-58.89864903 177.88710678 -73.63313046 172.81086227 -87.19921875 161.71875 C-88.5625 159.8125 -88.5625 159.8125 -89.1328125 157.19921875 C-88.27120369 152.08267874 -85.58685261 148.40154713 -82.75 144.125 C-82.20279297 143.27099609 -81.65558594 142.41699219 -81.09179688 141.53710938 C-76.34277528 134.20922514 -76.34277528 134.20922514 -73.5625 131.8125 C-71.19921875 131.36328125 -71.19921875 131.36328125 -68.5625 131.8125 C-66.01953125 133.60546875 -66.01953125 133.60546875 -63.375 136 C-53.96193754 143.92547357 -46.79606434 146.91805918 -34.515625 146.296875 C-29.446975 145.67581512 -26.07183471 144.55975571 -22.5625 140.8125 C-19.11334801 136.06991602 -18.88765111 131.47158998 -19.5625 125.8125 C-21.10016418 117.8076012 -26.63045557 112.52976948 -33.16162109 108.01635742 C-35.99708988 106.27162743 -38.86246664 104.59455039 -41.75 102.9375 C-59.81953278 92.25027713 -76.51714731 81.21722292 -82.80078125 60.21875 C-83.33618571 57.88523683 -83.33618571 57.88523683 -84.5625 56.8125 C-85.64416251 40.2506511 -82.62580279 28.31690218 -72.0625 15.3125 C-63.76819029 6.30235868 -53.25571852 1.72347001 -41.5625 -1.1875 C-40.65177734 -1.44793091 -40.65177734 -1.44793091 -39.72265625 -1.71362305 C-27.25804857 -4.44800409 -12.28386354 -2.94776804 0 0 Z " fill="#75BE11" transform="translate(816.5625,370.1875)"/><path d="M0 0 C6.69867159 -0.2748173 11.67998104 0.63584861 17.7890625 3.41015625 C21.04344667 4.3943849 23.02449991 3.8338551 26.359375 3.1875 C29.5883923 2.98506161 32.81221468 2.95729899 36.046875 2.9375 C36.90087891 2.916875 37.75488281 2.89625 38.63476562 2.875 C39.45525391 2.86984375 40.27574219 2.8646875 41.12109375 2.859375 C41.86319092 2.8500293 42.60528809 2.84068359 43.36987305 2.83105469 C45.97029482 3.29695428 46.724554 4.13737343 48.359375 6.1875 C48.71848774 8.20979977 48.71848774 8.20979977 48.69563293 10.56761169 C48.69353317 11.91087776 48.69353317 11.91087776 48.69139099 13.28128052 C48.67439651 14.26152191 48.65740204 15.24176331 48.63989258 16.25170898 C48.63378967 17.28625717 48.62768677 18.32080536 48.62139893 19.38670349 C48.59715656 22.81930841 48.55096206 26.25123136 48.50390625 29.68359375 C48.48093927 32.07193532 48.45903745 34.46028735 48.43815613 36.84864807 C48.39103191 41.86499185 48.3335233 46.88107625 48.26831055 51.8972168 C48.18549597 58.30238797 48.12416166 64.70753335 48.07022572 71.11300564 C48.02690464 76.05213646 47.97402032 80.99112874 47.91812706 85.93013191 C47.89217364 88.28982038 47.86866946 90.64953718 47.84772682 93.00927544 C47.81644616 96.32595364 47.77276625 99.64225114 47.72583008 102.95874023 C47.7155201 104.40177521 47.7155201 104.40177521 47.70500183 105.8739624 C47.45151684 120.93507201 44.55036044 137.24127982 33.546875 148.328125 C29.74449563 151.56014746 25.84825393 154.01567475 21.359375 156.1875 C20.5240625 156.60128906 19.68875 157.01507812 18.828125 157.44140625 C5.5456998 162.91849825 -11.18554768 161.89082823 -24.4140625 156.7578125 C-36.231025 151.0067 -36.231025 151.0067 -38.640625 146.1875 C-39.70808287 137.40284674 -37.54574525 128.54518037 -32.640625 121.1875 C-28.13625365 120.96027652 -24.01410757 121.01705783 -19.640625 122.1875 C-17.46699095 124.5789245 -16.28242694 126.89923129 -14.875 129.796875 C-13.73039096 132.41675262 -13.73039096 132.41675262 -10.953125 134.3125 C-4.91640771 135.90710457 0.84472037 136.01047788 6.796875 134.0625 C12.31061537 130.02805583 14.29451197 124.7481953 15.359375 118.1875 C15.58537388 114.18264646 15.5496111 110.19701104 15.484375 106.1875 C15.47535156 105.12660156 15.46632813 104.06570313 15.45703125 102.97265625 C15.43365024 100.37736362 15.40088056 97.78255535 15.359375 95.1875 C14.91279541 95.59307129 14.46621582 95.99864258 14.00610352 96.41650391 C5.81735757 103.67572834 -2.29018446 105.977341 -13.26953125 105.640625 C-20.83515251 104.62369329 -27.3480035 100.60040836 -32.640625 95.1875 C-40.10773061 84.68101975 -45.05273747 72.45098524 -44.890625 59.5 C-44.87938599 58.31144409 -44.87938599 58.31144409 -44.86791992 57.09887695 C-44.55579801 39.932172 -39.8828033 24.14044735 -27.2890625 11.90234375 C-19.246816 5.07281696 -10.54390812 0.74867987 0 0 Z " fill="#169CE2" transform="translate(470.640625,438.8125)"/><path d="M0 0 C7.33646249 6.169298 11.05034011 13.22833637 13.75 22.3125 C14.10835937 23.28574219 14.46671875 24.25898438 14.8359375 25.26171875 C16.49848263 31.16443565 16.07791458 37.42357338 16.0625 43.5 C16.07861328 44.75103516 16.09472656 46.00207031 16.11132812 47.29101562 C16.11943644 62.86709231 12.26728611 76.83368821 1.3125 88.375 C-2.53650214 91.95516213 -6.37236415 94.39911846 -11.25 96.3125 C-11.99378906 96.66699219 -12.73757813 97.02148438 -13.50390625 97.38671875 C-16.9954635 98.56381558 -20.29176729 98.6952578 -23.9375 98.6875 C-24.64285889 98.68733887 -25.34821777 98.68717773 -26.07495117 98.68701172 C-33.42762004 98.52733552 -39.15049646 96.37883569 -45.25 92.3125 C-45.21970703 93.10084229 -45.18941406 93.88918457 -45.15820312 94.70141602 C-44.52138915 111.58066031 -44.10063912 128.41812502 -44.25 145.3125 C-47.95120452 147.00876258 -50.85663727 147.56864619 -54.91796875 147.578125 C-55.97564453 147.58070313 -57.03332031 147.58328125 -58.12304688 147.5859375 C-59.21681641 147.57820312 -60.31058594 147.57046875 -61.4375 147.5625 C-62.54287109 147.57023438 -63.64824219 147.57796875 -64.78710938 147.5859375 C-65.84091797 147.58335937 -66.89472656 147.58078125 -67.98046875 147.578125 C-68.94364014 147.57586914 -69.90681152 147.57361328 -70.89916992 147.57128906 C-73.25 147.3125 -73.25 147.3125 -75.25 145.3125 C-75.50891972 143.02840042 -75.50891972 143.02840042 -75.52174377 140.11700439 C-75.5314621 139.01540482 -75.54118042 137.91380524 -75.55119324 136.77882385 C-75.55178238 135.56436081 -75.55237152 134.34989777 -75.55297852 133.09863281 C-75.56141785 131.82360397 -75.56985718 130.54857513 -75.57855225 129.23490906 C-75.59686236 126.455899 -75.60888145 123.67695665 -75.61609077 120.89789581 C-75.62758148 116.49156918 -75.65304782 112.08539079 -75.68040466 107.67913818 C-75.72211579 100.69417072 -75.75448614 93.70919597 -75.78287882 86.72416282 C-75.83366223 74.25931251 -75.89651557 61.79452825 -75.96821922 49.32978129 C-75.99292528 44.96323571 -76.01245556 40.59670808 -76.02760136 36.23011923 C-76.03542356 34.15558295 -76.04535729 32.0810688 -76.05615234 30.00654602 C-76.06910955 27.49521951 -76.07882091 24.9838728 -76.08433533 22.47251892 C-76.1279549 15.29308762 -76.52266818 8.2325582 -77.23266506 1.08633041 C-77.23838559 0.17096638 -77.24410612 -0.74439766 -77.25 -1.6875 C-72.96195546 -5.97554454 -65.38017757 -4.90208352 -59.625 -4.9375 C-58.779375 -4.958125 -57.93375 -4.97875 -57.0625 -5 C-53.51751241 -5.02236585 -50.92438464 -5.0000947 -47.6796875 -3.49609375 C-45.75249881 -1.0581474 -45.84046904 0.42902895 -46 3.5 C-46.03609375 4.40105469 -46.0721875 5.30210937 -46.109375 6.23046875 C-46.17898438 7.26107422 -46.17898438 7.26107422 -46.25 8.3125 C-45.59 8.3125 -44.93 8.3125 -44.25 8.3125 C-43.87101563 7.41724609 -43.87101563 7.41724609 -43.484375 6.50390625 C-40.48148773 1.17283107 -33.74738553 -2.41684076 -28.25 -4.6875 C-17.65758026 -7.22046994 -9.47864808 -4.92160573 0 0 Z " fill="#73BC11" transform="translate(921.25,445.6875)"/><path d="M0 0 C0.8552124 -0.01313232 1.7104248 -0.02626465 2.59155273 -0.03979492 C7.72437574 -0.04627513 11.96625413 0.46082432 16.8125 2.1875 C17.8125 3.1875 17.8125 3.1875 17.93554783 5.51259708 C17.93462604 6.55145778 17.93370424 7.59031847 17.93275452 8.66065979 C17.93412918 9.84843018 17.93550385 11.03620056 17.93692017 12.25996399 C17.93152725 14.23225227 17.93152725 14.23225227 17.92602539 16.24438477 C17.92574352 17.63367714 17.92590125 19.02296967 17.9264679 20.41226196 C17.92675588 24.19515289 17.92085901 27.97801238 17.91389394 31.76089597 C17.90766055 35.71005677 17.90705661 39.65921822 17.90586853 43.60838318 C17.90275517 51.09175075 17.89454172 58.57510379 17.88451904 66.05846494 C17.87335805 74.57585733 17.86784749 83.0932504 17.86282361 91.61064827 C17.85235911 109.13627394 17.83475958 126.66188543 17.8125 144.1875 C18.83907715 144.15720703 19.8656543 144.12691406 20.92333984 144.09570312 C24.82609831 143.98124631 28.72895052 143.87028923 32.63183594 143.76025391 C34.30341176 143.71266797 35.97496281 143.66420136 37.64648438 143.61474609 C43.36802955 143.44585711 49.08960145 143.30197481 54.8125 143.1875 C56.09332458 143.16091309 56.09332458 143.16091309 57.40002441 143.13378906 C59.90471366 143.08743002 62.40908202 143.05665273 64.9140625 143.03125 C66.06278336 143.00895325 66.06278336 143.00895325 67.23471069 142.98620605 C69.09515669 142.97610028 70.95557324 143.07267656 72.8125 143.1875 C76.38457863 146.75957863 75.22473747 152.22893609 75.25 157.0625 C75.28287109 158.16464844 75.31574219 159.26679687 75.34960938 160.40234375 C75.35669922 161.46324219 75.36378906 162.52414062 75.37109375 163.6171875 C75.39127563 165.07487549 75.39127563 165.07487549 75.41186523 166.56201172 C74.8125 169.1875 74.8125 169.1875 72.81816101 171.32023621 C68.90932802 173.74859466 65.5829225 173.74247799 61.12255859 173.68920898 C59.82659004 173.69731346 59.82659004 173.69731346 58.50444031 173.70558167 C55.65625479 173.71806227 52.80908122 173.70158522 49.9609375 173.68359375 C47.97986803 173.68374873 45.99879826 173.68523746 44.01773071 173.68800354 C39.87008224 173.68938714 35.72277975 173.67683368 31.57519531 173.65405273 C26.25405683 173.62563122 20.93349157 173.62841603 15.61231041 173.64114285 C11.52370286 173.6480902 7.4352283 173.64032216 3.34663773 173.62788582 C1.38419733 173.62336475 -0.5782573 173.62304023 -2.54069901 173.62695122 C-5.27954763 173.62985512 -8.0175996 173.61339733 -10.75634766 173.59155273 C-11.56992233 173.59605438 -12.38349701 173.60055603 -13.22172546 173.60519409 C-18.65709455 173.53300534 -18.65709455 173.53300534 -21.19393921 171.88050842 C-22.93172907 168.91934802 -22.5339568 165.64156221 -22.4375 162.3125 C-22.41544353 161.17634845 -22.41544353 161.17634845 -22.39294147 160.01724434 C-22.28062262 154.95391883 -22.08945119 149.90248341 -21.81834888 144.84529305 C-21.21987373 133.64389632 -21.02430388 122.47334013 -21.01953125 111.2578125 C-21.0162964 109.40827411 -21.01293093 107.55873594 -21.00944519 105.709198 C-21.00351805 101.85544242 -21.00159821 98.00170902 -21.00219727 94.14794922 C-21.00227784 90.2898279 -20.99543427 86.43182707 -20.98168945 82.57373047 C-20.96161958 76.88507081 -20.95352487 71.19650683 -20.95703125 65.5078125 C-20.95747562 64.57943825 -20.95792 63.651064 -20.95837784 62.69455719 C-20.97690512 52.37285374 -21.17334232 42.08688022 -21.75146484 31.78027344 C-21.80256125 30.86826361 -21.85365767 29.95625378 -21.90630245 29.01660728 C-22.1567475 24.68247445 -22.43474453 20.35195344 -22.7492218 16.02200317 C-22.80011019 15.24293232 -22.85099857 14.46386147 -22.90342903 13.6611824 C-22.99802965 12.21374287 -23.10517018 10.76704564 -23.22727776 9.32166672 C-23.40217901 6.51345912 -23.50794447 4.67883694 -21.94221497 2.27810669 C-16.21148494 -1.28370969 -6.6098189 0.06444197 0 0 Z " fill="#169CE3" transform="translate(203.1875,371.8125)"/><path d="M0 0 C10.03732327 7.20365717 16.96853723 17.31904562 19.671875 29.3359375 C22.51943519 47.84507875 20.88379966 66.00024604 9.77734375 81.4609375 C4.09441297 88.6988991 -2.16860089 92.8455043 -10.578125 96.4609375 C-11.26261719 96.78191406 -11.94710938 97.10289062 -12.65234375 97.43359375 C-23.7083896 101.96130777 -38.5731146 100.18205612 -49.578125 96.4609375 C-62.48371278 90.25443345 -69.21029571 80.37771933 -74.578125 67.4609375 C-79.24818941 52.65683333 -78.49906921 34.40690026 -71.578125 20.4609375 C-68.28455948 14.78910257 -64.46296046 9.85728941 -59.578125 5.4609375 C-59.06765625 4.96980469 -58.5571875 4.47867187 -58.03125 3.97265625 C-42.70678761 -10.19192711 -17.33774497 -10.35010836 0 0 Z " fill="#73BC11" transform="translate(1084.578125,447.5390625)"/><path d="M0 0 C7.87479694 6.95484403 11.79855927 13.9061024 12.671875 24.4765625 C12.83597123 28.50731559 12.87944357 32.5366346 12.91796875 36.5703125 C12.95089328 38.923181 12.98410515 41.27604549 13.01757812 43.62890625 C13.0650074 47.30872996 13.10950248 50.98853584 13.14868164 54.66845703 C13.18851465 58.24007069 13.24001099 61.81137263 13.29296875 65.3828125 C13.3013829 66.47573608 13.30979706 67.56865967 13.31846619 68.69470215 C13.42578289 75.36684595 13.67954141 81.70161464 16.859375 87.7265625 C17.671875 89.4765625 17.671875 89.4765625 17.43359375 91.41796875 C16.49922286 93.94316599 15.51462635 94.6808828 13.296875 96.1640625 C12.69101562 96.58042969 12.08515625 96.99679687 11.4609375 97.42578125 C6.31695794 100.44702689 0.43589864 99.88882379 -5.328125 99.4765625 C-10.55623397 97.7960989 -12.76817743 95.30107908 -15.328125 90.4765625 C-15.328125 89.1565625 -15.328125 87.8365625 -15.328125 86.4765625 C-15.988125 86.4765625 -16.648125 86.4765625 -17.328125 86.4765625 C-17.57304688 87.07339844 -17.81796875 87.67023438 -18.0703125 88.28515625 C-20.36975007 92.29131922 -24.41707847 94.20624768 -28.328125 96.4765625 C-28.92496094 96.82332031 -29.52179687 97.17007813 -30.13671875 97.52734375 C-37.49636265 100.98588465 -48.97521617 100.85743515 -56.703125 98.5390625 C-64.53205387 94.8333695 -70.7286123 88.40442711 -73.70703125 80.32421875 C-73.91199219 79.71449219 -74.11695313 79.10476563 -74.328125 78.4765625 C-74.658125 77.8165625 -74.988125 77.1565625 -75.328125 76.4765625 C-76.38716131 66.47648194 -73.96473197 58.82613451 -68.140625 50.7265625 C-60.39090104 41.35749323 -48.34657646 35.65573132 -36.328125 34.4765625 C-30.32841457 34.26623318 -24.32890306 34.35890019 -18.328125 34.4765625 C-18.49780205 27.12267223 -18.49780205 27.12267223 -21.140625 20.4140625 C-25.83857304 16.25302281 -29.87335318 16.00276309 -36.0078125 16.078125 C-42.30148506 16.83336571 -47.71992965 19.67246483 -53.328125 22.4765625 C-56.203125 22.8515625 -56.203125 22.8515625 -59.328125 22.4765625 C-61.390625 20.5390625 -61.390625 20.5390625 -63.328125 17.4765625 C-63.78703125 16.76371094 -64.2459375 16.05085938 -64.71875 15.31640625 C-68.31546912 9.39762946 -68.31546912 9.39762946 -68.36328125 5.91796875 C-66.85988683 2.3722272 -64.31566905 1.37929321 -60.953125 -0.0859375 C-59.9645752 -0.52981812 -59.9645752 -0.52981812 -58.95605469 -0.98266602 C-41.2411381 -8.49403726 -16.69192991 -12.0388698 0 0 Z " fill="#169BE1" transform="translate(702.328125,447.5234375)"/><path d="M0 0 C7.04836834 5.35858673 9.9319338 13.16074555 11.56974792 21.59869385 C12.45770337 28.16195611 12.28151676 34.79527597 12.26171875 41.40625 C12.26306829 43.00142475 12.26501122 44.5965991 12.26751709 46.19177246 C12.27044794 49.51330533 12.26623231 52.83472982 12.25683594 56.15625 C12.24536776 60.41790497 12.25205983 64.67931002 12.26398087 68.94095612 C12.27119141 72.22483218 12.26891656 75.50864843 12.26372528 78.79252625 C12.26239039 80.36504649 12.26403089 81.93757214 12.26868439 83.51008606 C12.27374453 85.69762725 12.26605046 87.88475536 12.25488281 90.07226562 C12.25329163 91.31673462 12.25170044 92.56120361 12.25006104 93.84338379 C11.99609375 96.75 11.99609375 96.75 9.99609375 98.75 C4.36300544 100.17644333 -1.48060319 99.93374134 -7.25390625 99.9375 C-8.76210938 99.95586914 -8.76210938 99.95586914 -10.30078125 99.97460938 C-11.739375 99.97750977 -11.739375 99.97750977 -13.20703125 99.98046875 C-14.51655762 99.98663208 -14.51655762 99.98663208 -15.85253906 99.99291992 C-18.00390625 99.75 -18.00390625 99.75 -20.00390625 97.75 C-20.26219177 94.96832275 -20.26219177 94.96832275 -20.27514648 91.37597656 C-20.28037323 90.72207947 -20.28559998 90.06818237 -20.29098511 89.39447021 C-20.301236 87.97254084 -20.30700741 86.55057382 -20.3088665 85.1286087 C-20.31252522 82.87509116 -20.32923962 80.62201573 -20.34962463 78.36859131 C-20.405071 71.96098064 -20.43566156 65.55330333 -20.46020508 59.14550781 C-20.47612046 55.22676899 -20.50638682 51.30834052 -20.54496956 47.38976288 C-20.55659108 45.89873308 -20.56254966 44.40764765 -20.56265068 42.91657257 C-20.56284371 40.82458842 -20.58118187 38.7334532 -20.60327148 36.64160156 C-20.60834213 35.45294495 -20.61341278 34.26428833 -20.61863708 33.03961182 C-21.05403373 29.3219877 -22.04441901 26.92565311 -24.00390625 23.75 C-27.51254585 21.41090693 -28.87480058 21.33708943 -33.00390625 21.75 C-37.79259555 23.5019595 -39.53317947 26.84363725 -41.890625 31.10546875 C-45.15625946 38.86278289 -45.29711176 46.18348099 -45.3125 54.4921875 C-45.33763192 56.96354431 -45.36303029 59.43489842 -45.38867188 61.90625 C-45.41754898 65.78417415 -45.44158416 69.66205187 -45.46020508 73.54003906 C-45.48173993 77.29514959 -45.52113593 81.04975099 -45.5625 84.8046875 C-45.56261581 85.97232635 -45.56273163 87.13996521 -45.56285095 88.34298706 C-45.57618973 89.41815582 -45.5895285 90.49332458 -45.60327148 91.60107422 C-45.61087746 93.02382156 -45.61087746 93.02382156 -45.61863708 94.47531128 C-45.74577591 95.22595856 -45.87291473 95.97660583 -46.00390625 96.75 C-49.57532502 99.13094585 -51.15116741 98.99558937 -55.38671875 98.98046875 C-56.63582031 98.97853516 -57.88492187 98.97660156 -59.171875 98.97460938 C-60.47769531 98.96236328 -61.78351563 98.95011719 -63.12890625 98.9375 C-64.44246094 98.93685547 -65.75601562 98.93621094 -67.109375 98.93554688 C-76.86375203 98.89015422 -76.86375203 98.89015422 -78.00390625 97.75 C-78.12931125 94.64564263 -78.19003895 91.56247504 -78.20922852 88.45678711 C-78.21912811 87.48128403 -78.22902771 86.50578094 -78.23922729 85.50071716 C-78.27094573 82.25961782 -78.29564044 79.01850378 -78.3203125 75.77734375 C-78.34087311 73.53674426 -78.36186933 71.29614873 -78.38328552 69.05555725 C-78.4385985 63.14544877 -78.48796695 57.23530475 -78.53613281 51.32513428 C-78.58628065 45.29940614 -78.6420017 39.27372988 -78.69726562 33.24804688 C-78.80495997 21.41540886 -78.90637973 9.58272588 -79.00390625 -2.25 C-72.83447056 -4.0693367 -67.64131325 -4.58464774 -61.25390625 -4.5625 C-60.30902344 -4.57861328 -59.36414063 -4.59472656 -58.390625 -4.61132812 C-57.03130859 -4.61229492 -57.03130859 -4.61229492 -55.64453125 -4.61328125 C-54.82500977 -4.61626221 -54.00548828 -4.61924316 -53.16113281 -4.62231445 C-50.47805141 -4.15924303 -49.59460791 -3.43480391 -48.00390625 -1.25 C-47.7109375 2.10546875 -47.7109375 2.10546875 -47.81640625 5.9375 C-47.84347656 7.20980469 -47.87054688 8.48210937 -47.8984375 9.79296875 C-47.93324219 10.76878906 -47.96804688 11.74460937 -48.00390625 12.75 C-47.34390625 12.75 -46.68390625 12.75 -46.00390625 12.75 C-45.74738281 12.17121094 -45.49085938 11.59242188 -45.2265625 10.99609375 C-41.1350466 3.47973068 -33.15819052 -2.32215191 -25.05859375 -4.859375 C-15.83949305 -6.61205574 -7.90392027 -4.93032064 0 0 Z " fill="#179DE3" transform="translate(408.00390625,445.25)"/><path d="M0 0 C1.14984375 -0.00257813 2.2996875 -0.00515625 3.484375 -0.0078125 C5.28648438 0.00378906 5.28648438 0.00378906 7.125 0.015625 C8.32640625 0.00789063 9.5278125 0.00015625 10.765625 -0.0078125 C12.49039062 -0.00394531 12.49039062 -0.00394531 14.25 0 C15.83167969 0.00338379 15.83167969 0.00338379 17.4453125 0.00683594 C20.125 0.265625 20.125 0.265625 23.125 2.265625 C23.47903442 4.85075378 23.47903442 4.85075378 23.44970703 8.16479492 C23.44625275 9.40335739 23.44279846 10.64191986 23.4392395 11.91801453 C23.42058657 13.27737642 23.40177355 14.63673612 23.3828125 15.99609375 C23.37467424 17.38893371 23.36801173 18.781783 23.36276245 20.17463684 C23.34561548 23.84971717 23.31136946 27.52443115 23.27270508 31.19934082 C23.21362936 37.06340012 23.17945929 42.92763874 23.14693832 48.79189491 C23.13306322 50.83419029 23.11144577 52.87628985 23.08865356 54.91850281 C23.07401566 56.79998772 23.07401566 56.79998772 23.05908203 58.71948242 C23.04217819 60.36589973 23.04217819 60.36589973 23.02493286 62.045578 C23.17321871 66.81724843 23.3787109 70.94526736 25.75 75.140625 C28.93825758 77.99327652 30.86848461 78.3390132 35.125 78.265625 C41.55671242 75.04976879 43.95245626 70.34958835 46.27661133 63.77612305 C48.39867866 57.15745788 48.71080555 51.00684619 48.69921875 44.09765625 C48.72046562 42.29550911 48.72046562 42.29550911 48.74214172 40.45695496 C48.78369686 36.66391758 48.79923105 32.87135702 48.8125 29.078125 C48.84154522 25.24583602 48.87598293 21.41366679 48.91499329 17.58146667 C48.93751607 15.20661369 48.95331382 12.83168582 48.96183777 10.45674133 C48.96887222 9.39440781 48.97590668 8.33207428 48.9831543 7.23754883 C48.98663376 6.29889481 48.99011322 5.36024078 48.99369812 4.3931427 C49.125 2.265625 49.125 2.265625 50.125 1.265625 C54.24077589 1.04773314 58.35964923 1.07983312 62.48071289 1.08032227 C64.55050264 1.07813766 66.61975793 1.05999009 68.68945312 1.04101562 C70.63561523 1.03811523 70.63561523 1.03811523 72.62109375 1.03515625 C73.81919678 1.03104736 75.0172998 1.02693848 76.25170898 1.02270508 C79.125 1.265625 79.125 1.265625 81.125 3.265625 C81.39674377 6.30149841 81.39674377 6.30149841 81.42797852 10.25952148 C81.43641785 10.98031891 81.44485718 11.70111633 81.45355225 12.4437561 C81.47945322 14.84141688 81.49151716 17.23895325 81.50390625 19.63671875 C81.52009699 21.31471205 81.53727863 22.99269605 81.55540466 24.67066956 C81.60122417 29.110317 81.63590984 33.54997784 81.66760254 37.98974609 C81.71926022 45.03420579 81.78587542 52.07852148 81.85581779 59.1228199 C81.87817111 61.55667618 81.89476863 63.99051663 81.91053772 66.42442322 C81.99828219 77.39404684 82.4679519 88.31579356 83.125 99.265625 C77.31613186 102.94011854 72.76004782 102.78162511 66 102.765625 C64.35451172 102.80816406 64.35451172 102.80816406 62.67578125 102.8515625 C61.09990234 102.85542969 61.09990234 102.85542969 59.4921875 102.859375 C58.53425293 102.86646484 57.57631836 102.87355469 56.58935547 102.88085938 C54.125 102.265625 54.125 102.265625 52.3215332 99.89575195 C51.05707152 97.11630985 50.63980894 94.9877591 50.4375 91.953125 C50.37175781 91.07011719 50.30601563 90.18710937 50.23828125 89.27734375 C50.18220703 88.28154297 50.18220703 88.28154297 50.125 87.265625 C49.45404297 88.06226563 49.45404297 88.06226563 48.76953125 88.875 C41.10506915 97.8304909 33.32949866 103.3542885 21.36328125 104.5390625 C13.85121528 104.79982848 8.2374726 103.81296621 2.125 99.265625 C-7.51564043 89.69774412 -9.84890599 77.37944069 -10.11791992 64.16845703 C-10.12425633 62.03678923 -10.11971262 59.90506713 -10.10546875 57.7734375 C-10.10501053 56.62503387 -10.10455231 55.47663025 -10.1040802 54.29342651 C-10.10108019 51.88164222 -10.09326227 49.46985948 -10.08081055 47.05810547 C-10.06258253 43.40715505 -10.06030122 39.75645994 -10.06054688 36.10546875 C-10.02171649 7.49651445 -10.02171649 7.49651445 -8.875 2.265625 C-5.42139557 -0.03677795 -4.07000616 0.00870723 0 0 Z " fill="#74BD13" transform="translate(1121.875,442.734375)"/><path d="M0 0 C1.79727539 -0.00386719 1.79727539 -0.00386719 3.63085938 -0.0078125 C4.88833984 -0.00007813 6.14582031 0.00765625 7.44140625 0.015625 C9.32182617 0.00402344 9.32182617 0.00402344 11.24023438 -0.0078125 C12.43970703 -0.00523437 13.63917969 -0.00265625 14.875 0 C15.9777124 0.00225586 17.0804248 0.00451172 18.21655273 0.00683594 C21.00390625 0.265625 21.00390625 0.265625 24.00390625 2.265625 C24.06387938 5.43788818 23.93568836 8.42390016 23.69140625 11.578125 C23.09055134 21.72045621 22.81720971 31.84153858 22.76870728 41.99960327 C22.75894028 43.6186492 22.74325729 45.23767164 22.72128296 46.8565979 C22.04104845 62.21080352 22.04104845 62.21080352 27.36621094 76.05932617 C30.26124056 78.19175631 33.60773337 77.73176638 37.00390625 77.265625 C40.77530515 75.89420722 41.89226247 74.43309066 44.12890625 71.078125 C50.42353517 56.92747014 49.47949353 40.50892286 49.56640625 25.390625 C49.59021975 22.09474053 49.61821321 18.79911725 49.65818787 15.50338745 C49.68251129 13.46907744 49.69739714 11.43462766 49.70179749 9.400177 C49.7119841 8.49097504 49.72217072 7.58177307 49.73266602 6.64501953 C49.73694107 5.84500519 49.74121613 5.04499084 49.74562073 4.22073364 C50.00390625 2.265625 50.00390625 2.265625 52.00390625 0.265625 C54.57006836 0.00683594 54.57006836 0.00683594 57.78125 0 C59.51084961 -0.00386719 59.51084961 -0.00386719 61.27539062 -0.0078125 C63.09006836 0.00378906 63.09006836 0.00378906 64.94140625 0.015625 C66.14732422 0.00789063 67.35324219 0.00015625 68.59570312 -0.0078125 C69.75005859 -0.00523437 70.90441406 -0.00265625 72.09375 0 C73.15456787 0.00225586 74.21538574 0.00451172 75.30834961 0.00683594 C78.00390625 0.265625 78.00390625 0.265625 81.00390625 2.265625 C81.31524575 4.73027285 81.43103267 6.94935948 81.42041016 9.41821289 C81.42899551 10.15507324 81.43758087 10.89193359 81.44642639 11.65112305 C81.47159645 14.09693832 81.47587774 16.54234799 81.48046875 18.98828125 C81.4947796 20.69023374 81.51053677 22.39217463 81.52767944 24.09410095 C81.56963689 28.58692093 81.59455062 33.07966921 81.61517334 37.57263184 C81.65088966 44.73907214 81.71236517 51.90533383 81.77366257 59.07159233 C81.79261612 61.56685746 81.80444988 64.06207554 81.81509399 66.55738831 C81.85760097 73.85698787 82.01617505 81.02030596 83.00390625 88.265625 C83.06485246 90.45237506 83.09154941 92.64067029 83.06640625 94.828125 C83.05738281 95.86066406 83.04835938 96.89320313 83.0390625 97.95703125 C83.02746094 98.71886719 83.01585937 99.48070312 83.00390625 100.265625 C79.30270173 101.96188758 76.39726898 102.52177119 72.3359375 102.53125 C70.74942383 102.53511719 70.74942383 102.53511719 69.13085938 102.5390625 C68.03708984 102.53132812 66.94332031 102.52359375 65.81640625 102.515625 C64.71103516 102.52335938 63.60566406 102.53109375 62.46679688 102.5390625 C61.41298828 102.53648437 60.35917969 102.53390625 59.2734375 102.53125 C58.31026611 102.52899414 57.34709473 102.52673828 56.35473633 102.52441406 C54.00390625 102.265625 54.00390625 102.265625 52.00390625 100.265625 C51.37109375 97.4453125 51.37109375 97.4453125 50.87890625 94.140625 C50.62753906 92.49707031 50.62753906 92.49707031 50.37109375 90.8203125 C50.24992188 89.97726562 50.12875 89.13421875 50.00390625 88.265625 C49.61460937 88.77351562 49.2253125 89.28140625 48.82421875 89.8046875 C43.23880345 96.67706485 35.87579387 102.49124748 27.00390625 104.265625 C17.43984433 105.02249321 9.43032541 104.27551628 1.75390625 98.203125 C-5.82243934 91.01917978 -8.56822069 81.41906027 -9.17779541 71.22782898 C-9.24246123 67.84813743 -9.24726647 64.47399555 -9.2265625 61.09375 C-9.22610428 59.8537323 -9.22564606 58.6137146 -9.22517395 57.33612061 C-9.22216647 54.72407062 -9.2143256 52.11202218 -9.2019043 49.5 C-9.18371312 45.54160056 -9.18139458 41.58343681 -9.18164062 37.625 C-9.17672159 35.07291468 -9.1708916 32.52083092 -9.1640625 29.96875 C-9.16239326 28.22117401 -9.16239326 28.22117401 -9.16069031 26.43829346 C-9.01124508 0.01845351 -9.01124508 0.01845351 0 0 Z " fill="#159BE1" transform="translate(537.99609375,442.734375)"/><path d="M0 0 C0.95390625 -0.01224609 1.9078125 -0.02449219 2.890625 -0.03710938 C4.26347656 -0.04000977 4.26347656 -0.04000977 5.6640625 -0.04296875 C6.49631348 -0.04707764 7.32856445 -0.05118652 8.18603516 -0.05541992 C10.375 0.1875 10.375 0.1875 13.375 2.1875 C13.703125 5.06640625 13.703125 5.06640625 13.625 8.75 C13.60856445 9.72755249 13.60856445 9.72755249 13.59179688 10.72485352 C13.42139528 18.55499192 12.91047771 26.37526268 12.375 34.1875 C13.09679443 34.18226318 13.81858887 34.17702637 14.56225586 34.17163086 C17.81232849 34.15092642 21.06238728 34.13786082 24.3125 34.125 C25.44880859 34.11662109 26.58511719 34.10824219 27.75585938 34.09960938 C28.83544922 34.09638672 29.91503906 34.09316406 31.02734375 34.08984375 C32.52769165 34.08198853 32.52769165 34.08198853 34.05834961 34.07397461 C36.375 34.1875 36.375 34.1875 37.375 35.1875 C37.50163091 38.01166382 37.56020548 40.80044793 37.5625 43.625 C37.57474609 44.41455078 37.58699219 45.20410156 37.59960938 46.01757812 C37.60487279 48.07557435 37.49706285 50.13312009 37.375 52.1875 C35.375 54.1875 35.375 54.1875 32.85302734 54.41455078 C31.8161377 54.40407715 30.77924805 54.39360352 29.7109375 54.3828125 C28.58945313 54.37636719 27.46796875 54.36992187 26.3125 54.36328125 C25.136875 54.34652344 23.96125 54.32976562 22.75 54.3125 C21.56664062 54.30347656 20.38328125 54.29445313 19.1640625 54.28515625 C16.23417477 54.26152812 13.3046866 54.22858514 10.375 54.1875 C10.44213636 61.46525397 10.53199703 68.7424765 10.63745117 76.01977539 C10.67064804 78.49399492 10.69869618 80.96828922 10.72143555 83.44262695 C10.75507701 87.00504334 10.80739987 90.56677772 10.86328125 94.12890625 C10.86967117 95.23021378 10.8760611 96.3315213 10.88264465 97.46620178 C10.99618833 103.43502892 11.40469031 107.95019533 14.375 113.1875 C16.70095946 114.35047973 18.16223231 114.35350691 20.75 114.375 C21.52085938 114.38917969 22.29171875 114.40335938 23.0859375 114.41796875 C25.60304817 114.16453952 27.14812232 113.33566146 29.375 112.1875 C33.90131579 112.71381579 33.90131579 112.71381579 35.375 114.1875 C35.58240925 116.97567298 35.69953726 119.70849311 35.75 122.5 C35.80607422 123.65918945 35.80607422 123.65918945 35.86328125 124.84179688 C35.95172714 130.556384 35.95172714 130.556384 33.1796875 133.58984375 C22.50171383 139.67242207 10.80690509 140.78564428 -1.20703125 138.75 C-7.81478551 136.66471266 -13.66712734 131.44901476 -17 125.4375 C-20.7967945 116.37233678 -20.90749887 106.76375852 -20.8203125 97.08203125 C-20.8174826 95.8768132 -20.81465271 94.67159515 -20.81173706 93.42985535 C-20.8006352 89.61979808 -20.77554934 85.80998497 -20.75 82 C-20.73995728 79.40039404 -20.7308337 76.80078437 -20.72265625 74.20117188 C-20.70072867 67.86319941 -20.66735201 61.52536716 -20.625 55.1875 C-21.38425781 55.21070313 -22.14351562 55.23390625 -22.92578125 55.2578125 C-23.91964844 55.27585937 -24.91351562 55.29390625 -25.9375 55.3125 C-27.41669922 55.34730469 -27.41669922 55.34730469 -28.92578125 55.3828125 C-31.625 55.1875 -31.625 55.1875 -34.625 53.1875 C-34.92779086 50.26645874 -35.04310841 47.60450216 -35 44.6875 C-35.01160156 43.90246094 -35.02320313 43.11742187 -35.03515625 42.30859375 C-35.0234375 40.03125 -35.0234375 40.03125 -34.625 36.1875 C-30.99304504 33.76619669 -29.24150652 33.97727215 -24.9375 34.0625 C-23.75800781 34.08054687 -22.57851562 34.09859375 -21.36328125 34.1171875 C-20.45964844 34.14039063 -19.55601563 34.16359375 -18.625 34.1875 C-18.63023682 33.53265625 -18.63547363 32.8778125 -18.64086914 32.203125 C-18.661827 29.19792667 -18.6747195 26.19274379 -18.6875 23.1875 C-18.69587891 22.15753906 -18.70425781 21.12757813 -18.71289062 20.06640625 C-18.73109415 14.35049807 -18.66130536 8.8187442 -17.625 3.1875 C-13.23243726 -1.20506274 -5.8311347 0.00397216 0 0 Z " fill="#75BE11" transform="translate(1241.625,407.8125)"/><path d="M0 0 C-0.60556942 4.47448516 -2.32866004 7.81667106 -4.5 11.75 C-5.1290625 12.89984375 -5.758125 14.0496875 -6.40625 15.234375 C-8 18 -8 18 -9 19 C-13.20404869 19.45429686 -15.20824472 18.54173217 -18.5625 16.0625 C-23.47609525 12.46033225 -26.99031958 11.83046336 -33.0625 11.6875 C-34.10535156 11.65011719 -35.14820313 11.61273438 -36.22265625 11.57421875 C-39.09220321 11.73785033 -39.09220321 11.73785033 -40.8515625 13.8125 C-42.21909168 16.08103063 -42.21909168 16.08103063 -42.3125 19.3125 C-39.2952935 27.7894135 -28.54665841 31.35685177 -21.04296875 35.32421875 C-12.26150248 40.16022521 -5.20490496 46.69187617 0 55.3125 C2.23007151 63.53588869 1.95386781 72.35012533 -2 80 C-6.9432445 88.14719927 -15.93247292 92.8447069 -24.88134766 95.57373047 C-29.24877978 96.45245097 -33.74898644 96.18470321 -38.1875 96.1875 C-39.19103516 96.19974609 -40.19457031 96.21199219 -41.22851562 96.22460938 C-50.97886501 96.24364064 -58.66346216 94.60352008 -67.3125 90.125 C-68.34600586 89.61646484 -68.34600586 89.61646484 -69.40039062 89.09765625 C-73.21001739 87.16529012 -76.14984061 85.267792 -79 82 C-77.68493198 77.35250831 -75.83857485 74.0362944 -72.9375 70.1875 C-72.22464844 69.23230469 -71.51179688 68.27710938 -70.77734375 67.29296875 C-68.26757288 64.05508854 -68.26757288 64.05508854 -65.875 63.5625 C-62.6804676 64.0486245 -62.00764492 64.64222533 -59.6875 66.75 C-53.14232734 72.67717353 -47.66742601 74.73716156 -38.7265625 74.375 C-35.81746166 74.10664309 -35.81746166 74.10664309 -32.6875 72.5 C-30.68437702 69.97259454 -30.68437702 69.97259454 -30.6875 66.1875 C-31.88176895 60.59708585 -35.38288321 58.04084304 -40 55 C-43.73777275 52.81841346 -47.54075948 50.7578015 -51.34448242 48.6940918 C-61.36040153 43.2328457 -70.22160537 37.33518388 -74 26 C-74.77109838 17.85954371 -75.24505999 10.57948327 -69.89453125 3.92578125 C-51.10807765 -15.170552 -21.38606067 -14.4826596 0 0 Z " fill="#73BC12" transform="translate(1361,451)"/><path d="M0 0 C0.825 -0.03738281 1.65 -0.07476562 2.5 -0.11328125 C6.097629 0.49943994 7.60215728 1.55862697 10 4.3125 C10.26455271 7.37462155 10.25782724 9.7491744 9.9375 12.75 C9.88400391 13.50087891 9.83050781 14.25175781 9.77539062 15.02539062 C9.43658624 19.08034416 8.93139511 22.66195099 7 26.3125 C4.5069638 27.32529596 2.42974073 27.34405439 -0.234375 27.1484375 C-6.31297879 26.78976212 -10.08652406 27.66593554 -15.01953125 31.32421875 C-20.45186119 36.777978 -23.10854526 44.28488319 -23.15771484 51.85375977 C-23.17310806 53.55551109 -23.17310806 53.55551109 -23.18881226 55.29164124 C-23.19611359 56.51668869 -23.20341492 57.74173615 -23.2109375 59.00390625 C-23.23899213 61.58268879 -23.26765648 64.16146476 -23.296875 66.74023438 C-23.33940533 70.81791797 -23.3761909 74.8955594 -23.40136719 78.97338867 C-23.42626416 82.90044863 -23.47469878 86.82706802 -23.5234375 90.75390625 C-23.52669037 91.98097794 -23.52994324 93.20804962 -23.53329468 94.4723053 C-23.54986115 95.60365402 -23.56642761 96.73500275 -23.58349609 97.90063477 C-23.59158295 98.8997438 -23.5996698 99.89885284 -23.60800171 100.92823792 C-23.73736115 101.7150444 -23.86672058 102.50185089 -24 103.3125 C-27.50862028 105.65158019 -28.97930967 105.56963602 -33.12890625 105.578125 C-34.92811523 105.58199219 -34.92811523 105.58199219 -36.76367188 105.5859375 C-38.01728516 105.57820312 -39.27089844 105.57046875 -40.5625 105.5625 C-41.81998047 105.57023438 -43.07746094 105.57796875 -44.37304688 105.5859375 C-45.57123047 105.58335937 -46.76941406 105.58078125 -48.00390625 105.578125 C-49.65628296 105.57474121 -49.65628296 105.57474121 -51.34204102 105.57128906 C-54 105.3125 -54 105.3125 -56 103.3125 C-56.20688854 100.82205896 -56.29050625 98.44036644 -56.28710938 95.94799805 C-56.29394241 95.18830215 -56.30077545 94.42860626 -56.30781555 93.64588928 C-56.32142779 91.99152789 -56.33046548 90.33712412 -56.33552551 88.68271446 C-56.34381548 86.0534497 -56.36432893 83.42453218 -56.38806152 80.79536438 C-56.43636884 75.19696141 -56.46916439 69.59852276 -56.5 64 C-56.53580972 57.54742208 -56.57815001 51.09500915 -56.63594055 44.64258766 C-56.65578356 42.07214145 -56.66428794 39.50182644 -56.67224121 36.93132019 C-56.72559983 28.82812368 -57.06734976 21.08015026 -58.57458496 13.08479309 C-59.02925657 10.12184436 -59.06924624 7.30548235 -59 4.3125 C-52.8169003 1.56445569 -47.30894984 0.98544226 -40.625 0.9375 C-39.42931396 0.91719727 -39.42931396 0.91719727 -38.20947266 0.89648438 C-32.46794561 0.94045267 -32.46794561 0.94045267 -30.31787109 2.64990234 C-27.52979273 6.16728169 -27.89496912 9.70438071 -27.9375 14 C-27.94652344 15.17949219 -27.95554687 16.35898437 -27.96484375 17.57421875 C-27.97644531 18.47785156 -27.98804688 19.38148438 -28 20.3125 C-25.56121475 19.35232999 -25.56121475 19.35232999 -24.3125 15.6875 C-21.29886548 9.42408796 -16.31871675 4.30557636 -10 1.3125 C-6.72357336 0.28276591 -3.41629722 0.15183543 0 0 Z " fill="#75BD11" transform="translate(1002,439.6875)"/><path d="M0 0 C1.29679687 -0.01611328 2.59359375 -0.03222656 3.9296875 -0.04882812 C5.16976563 -0.04947266 6.40984375 -0.05011719 7.6875 -0.05078125 C9.39486328 -0.05525269 9.39486328 -0.05525269 11.13671875 -0.05981445 C14.38941489 0.36313589 15.04209453 0.78441798 17 3.3125 C17.35352612 5.21214581 17.35352612 5.21214581 17.32279968 7.39372253 C17.31850952 8.22243362 17.31421936 9.05114471 17.30979919 9.90496826 C17.28966263 10.81055481 17.26952606 11.71614136 17.2487793 12.64916992 C17.23946381 13.60545792 17.23014832 14.56174591 17.22055054 15.54701233 C17.18613378 18.71268848 17.13024692 21.87760735 17.07421875 25.04296875 C17.04619106 27.2358488 17.01950009 29.42874632 16.99409485 31.62165833 C16.92358173 37.39720615 16.83487203 43.17233786 16.74243164 48.9475708 C16.65132785 54.83925277 16.57735096 60.73114668 16.50195312 66.62304688 C16.35144251 78.18647074 16.18171673 89.7495274 16 101.3125 C12.78450235 103.02216418 10.63613113 103.56861389 6.97265625 103.578125 C6.01552734 103.58070313 5.05839844 103.58328125 4.07226562 103.5859375 C3.07904297 103.57820312 2.08582031 103.57046875 1.0625 103.5625 C-0.4215332 103.57410156 -0.4215332 103.57410156 -1.93554688 103.5859375 C-2.89396484 103.58335937 -3.85238281 103.58078125 -4.83984375 103.578125 C-5.70988037 103.57586914 -6.57991699 103.57361328 -7.47631836 103.57128906 C-10.56831045 103.25422303 -13.73538519 102.57711481 -16 100.3125 C-16.14135702 97.28003405 -16.21800828 94.26900219 -16.25292969 91.23461914 C-16.26764816 90.28183578 -16.28236664 89.32905243 -16.29753113 88.34739685 C-16.34461547 85.18086741 -16.3838745 82.01430704 -16.421875 78.84765625 C-16.45005022 76.65669247 -16.47822815 74.46572873 -16.50640869 72.27476501 C-16.56398438 67.675483 -16.61689617 63.07617049 -16.66748047 58.47680664 C-16.73347182 52.57022479 -16.81805921 46.6640643 -16.9070549 40.75779057 C-16.97201931 36.23100831 -17.02357035 31.7041455 -17.07138824 27.17715263 C-17.09671569 24.9989021 -17.12710748 22.82070457 -17.16255951 20.64259529 C-17.21075168 17.60161752 -17.24008615 14.5610228 -17.26464844 11.51977539 C-17.28321396 10.61216461 -17.30177948 9.70455383 -17.32090759 8.7694397 C-17.32952881 6.26673889 -17.32952881 6.26673889 -17 2.3125 C-11.93113716 -1.06674189 -5.95118586 -0.01478923 0 0 Z " fill="#179CE3" transform="translate(301,441.6875)"/><path d="M0 0 C6.14542708 3.01246425 9.76432156 7.69337616 12.12109375 14 C13.49145236 19.14668515 13.34123453 24.39665257 13.3125 29.6875 C13.30404053 31.29443726 13.30404053 31.29443726 13.29541016 32.93383789 C13.12263155 44.16872374 11.90318805 54.38185362 4 63 C-0.35546952 65.80445346 -4.99160444 65.75284427 -10 65 C-15.92071236 61.49142971 -18.69560664 56.4161363 -20.59960938 49.9699707 C-21.94424626 44.23732659 -22.30395587 38.81419395 -22.25 32.9375 C-22.25773437 32.09123047 -22.26546875 31.24496094 -22.2734375 30.37304688 C-22.24458643 21.01808693 -19.95501597 12.99881149 -15 5 C-10.30339622 0.52184291 -6.48735008 -0.84881216 0 0 Z " fill="#FBFCF9" transform="translate(1061,461)"/><path d="M0 0 C4.47454323 1.98868588 7.03539864 4.70916633 8.93383789 9.21777344 C10.78639773 15.31783266 11.51123892 20.88407119 11.4375 27.25 C11.42831543 28.61427124 11.42831543 28.61427124 11.41894531 30.00610352 C11.18266071 40.29266295 9.30200942 49.60529295 3 58 C-1.74574378 60.88466779 -5.42771536 61.27702105 -10.7890625 60.8125 C-14.23930878 59.54456497 -15.72935681 57.90139024 -18 55 C-18.72871827 51.69784912 -18.67759592 48.4682651 -18.62890625 45.09765625 C-18.63131821 44.14233505 -18.63373016 43.18701385 -18.63621521 42.20274353 C-18.63523757 40.18630821 -18.62186387 38.16984577 -18.59692383 36.15356445 C-18.56265092 33.07605215 -18.57626053 30.00141834 -18.59570312 26.92382812 C-18.58880324 24.96092533 -18.57912957 22.99802993 -18.56640625 21.03515625 C-18.57136612 20.11936295 -18.57632599 19.20356964 -18.58143616 18.26002502 C-18.44863548 11.01197955 -16.29025254 7.39435493 -11.25 2.125 C-6.92426017 -0.70336835 -5.09210443 -0.64661644 0 0 Z " fill="#FCFDFA" transform="translate(895,463)"/><path d="M0 0 C5.15625 2.15625 5.15625 2.15625 7 4 C7.12614388 6.59875514 7.18870873 9.16935875 7.203125 11.76953125 C7.20882507 12.56090988 7.21452515 13.35228851 7.22039795 14.16764832 C7.2298722 15.85320696 7.2363915 17.53878434 7.24023438 19.22436523 C7.24981646 21.76385835 7.28076187 24.30249833 7.3125 26.84179688 C7.44673376 47.37033486 7.44673376 47.37033486 2.125 56.0625 C-1.12120104 59.02227153 -3.53220805 60.78139269 -7.9375 61.4375 C-11.99427967 60.85796005 -13.90328661 59.69279425 -17 57 C-21.62045337 49.70995134 -22.18221446 43.33186149 -22.1875 34.875 C-22.19974609 33.86695313 -22.21199219 32.85890625 -22.22460938 31.8203125 C-22.24725999 20.16279851 -20.24831621 12.24466934 -12.5546875 3.32421875 C-8.68561962 -0.42856567 -5.08945685 -0.96122943 0 0 Z " fill="#FAFCFD" transform="translate(480,461)"/><path d="M0 0 C1.24048945 0.91632863 2.45161934 1.87417532 3.625 2.875 C4.15351563 3.30941406 4.68203125 3.74382812 5.2265625 4.19140625 C8.19165151 7.09851866 9.01747874 9.75430579 9.25 13.75 C8.92623853 20.06334857 6.17814995 24.55395459 1.5625 28.75 C0.923125 29.12125 0.28375 29.4925 -0.375 29.875 C-0.94476563 30.22046875 -1.51453125 30.5659375 -2.1015625 30.921875 C-7.28949671 33.09688522 -14.27331541 32.83103588 -19.60546875 31.1875 C-24.31051584 28.69475982 -28.00490918 24.61518165 -30.375 19.875 C-31.1881597 14.33727954 -31.03139753 10.05893787 -27.6875 5.4375 C-21.00051889 -2.36660031 -9.24918493 -5.48620855 0 0 Z " fill="#1A9EE3" transform="translate(312.375,397.125)"/><path d="M0 0 C0.80281172 18.37546828 0.80281172 18.37546828 -4 24 C-7.25254391 27.33488679 -10.35555643 29.2830041 -15.0625 29.625 C-20.05602323 28.83237726 -21.55436311 27.61371674 -25 24 C-26.8369984 18.4890048 -26.88135709 13.03095329 -24.5625 7.6875 C-17.26200769 0.03088611 -10.29984572 -0.71637258 0 0 Z " fill="#F7FBFD" transform="translate(684,498)"/><path d="M0 0 C0.99 0.33 1.98 0.66 3 1 C0.69 3.31 -1.62 5.62 -4 8 C-4 4.09161134 -2.49432124 2.88405893 0 0 Z " fill="#7CBE29" transform="translate(1294,452)"/></svg>