<svg width="52" height="52" viewBox="0 0 52 52" fill="none" xmlns="http://www.w3.org/2000/svg">
<path d="M1.54395 25.9996C1.54395 36.6434 8.36895 45.6621 17.7939 48.9934V3.00586C8.36895 6.33711 1.54395 15.3559 1.54395 25.9996Z" fill="#428BC1"/>
<path d="M50.2939 25.9996C50.2939 15.3559 43.5502 6.33711 34.0439 3.00586V48.9934C43.5502 45.6621 50.2939 36.6434 50.2939 25.9996Z" fill="#ED4C5C"/>
<path d="M17.7939 48.9937C20.3127 49.8875 23.0752 50.375 25.9189 50.375C28.7627 50.375 31.5252 49.8875 34.0439 48.9937V3.00625C31.5252 2.1125 28.8439 1.625 25.9189 1.625C22.9939 1.625 20.3127 2.1125 17.7939 3.00625V48.9937Z" fill="white"/>
</svg>
