<svg width="52" height="52" viewBox="0 0 52 52" fill="none" xmlns="http://www.w3.org/2000/svg">
<path d="M26 50.375C39.4619 50.375 50.375 39.4619 50.375 26C50.375 12.5381 39.4619 1.625 26 1.625C12.5381 1.625 1.625 12.5381 1.625 26C1.625 39.4619 12.5381 50.375 26 50.375Z" fill="#ED4C5C"/>
<path d="M17.875 23.075L24.375 27.625L21.9375 20.15L28.4375 15.4375H20.3938L17.875 8.125L15.4375 15.4375H7.3125L13.8125 20.15L11.375 27.625L17.875 23.075ZM28.6812 28.6812L26.8125 29.0875L28.6 29.8188V31.6875L29.8188 30.3062L31.6063 30.9562L30.55 29.4125L31.6875 27.95L29.8188 28.3563L28.6812 26.8125V28.6812ZM31.4438 23.1562L30.0625 24.375L31.9312 24.2125L32.7437 26L33.0688 24.1313L34.9375 23.9688L33.3125 22.9937L33.7188 21.125L32.3375 22.3438L30.7125 21.3687L31.4438 23.1562ZM31.9312 16.8188L32.5 18.6875L33.0688 16.9H34.9375L33.475 15.7625L34.0438 13.8938L32.5 15.0312L31.0375 13.8125L31.6063 15.6812L30.0625 16.7375L31.9312 16.8188ZM28.6812 10.3187V12.1875L29.8188 10.6438L31.6875 11.05L30.55 9.5875L31.6063 8.04375L29.8188 8.775L28.6 7.3125V9.18125L26.8125 9.9125L28.6812 10.3187Z" fill="#FFE62E"/>
</svg>
