<svg width="52" height="52" viewBox="0 0 52 52" fill="none" xmlns="http://www.w3.org/2000/svg">
<path d="M1.625 26C1.625 30.7938 3.00625 35.2625 5.3625 39H46.5562C48.9125 35.2625 50.2938 30.7938 50.2938 26C50.2938 21.2062 48.9125 16.7375 46.5562 13H5.3625C3.00625 16.7375 1.625 21.2062 1.625 26Z" fill="#FFCE31"/>
<path d="M46.6373 13C42.3311 6.175 34.6936 1.625 25.9998 1.625C17.3061 1.625 9.66855 6.175 5.3623 13H46.6373ZM5.3623 39C9.66855 45.825 17.3061 50.375 25.9998 50.375C34.6936 50.375 42.3311 45.825 46.6373 39H5.3623Z" fill="#ED4C5C"/>
<path d="M7.47461 23.3184H10.0746V24.7809H7.47461V23.3184ZM7.47461 34.0434H10.1559V35.4246H7.47461V34.0434Z" fill="#C8B100"/>
<path d="M7.23145 31.7686C6.9877 31.9311 6.8252 32.0936 6.8252 32.1748C6.8252 32.2561 6.90645 32.3373 7.06895 32.4186C7.23145 32.4998 7.39395 32.6623 7.3127 32.8248C7.4752 32.6623 7.55645 32.4998 7.55645 32.3373C7.55645 32.0936 7.39395 31.8498 7.23145 31.7686Z" fill="#ED4C5C"/>
<path d="M7.88086 24.7812H9.74961V34.0438H7.88086V24.7812Z" fill="white"/>
<path d="M11.6999 28.1938C11.2936 28.0313 10.5624 27.8687 9.74985 27.8687C9.5061 27.8687 9.1811 27.8688 8.8561 27.95C7.7186 28.1125 6.82485 28.6 6.9061 28.925L6.49985 28.0312C6.4186 27.625 7.3936 27.1375 8.61235 26.8937C9.0186 26.8125 9.42485 26.8125 9.74985 26.8125C10.5624 26.8125 11.2936 26.8937 11.6999 27.0562V28.1938Z" fill="#ED4C5C"/>
<path d="M7.88105 29.4125C7.39355 29.4125 6.9873 29.25 6.9873 29.0063C6.9873 28.8438 7.1498 28.6 7.4748 28.4375H7.9623L7.88105 29.4125ZM9.7498 28.6812C10.0748 28.7625 10.3186 28.8437 10.4811 28.925C10.5623 29.0062 10.2373 29.3313 9.7498 29.575V28.6812Z" fill="#ED4C5C"/>
<path d="M6.66204 31.1998C6.58079 31.0373 7.14954 30.7123 7.88079 30.4686C8.20579 30.3873 8.44954 30.2248 8.85579 30.0623C9.83079 29.6561 10.6433 29.0873 10.4808 28.9248L10.6433 29.8998C10.7245 30.0623 10.0745 30.5498 9.09954 31.0373C8.77454 31.1998 8.20579 31.4436 7.88079 31.5248C7.31204 31.6873 6.82454 32.0123 6.82454 32.0936L6.66204 31.1998Z" fill="#ED4C5C"/>
<path d="M24.9436 23.3184H27.5436V24.7809H24.9436V23.3184ZM24.8623 34.0434H27.5436V35.4246H24.8623V34.0434Z" fill="#C8B100"/>
<path d="M27.7879 31.7686C28.0316 31.9311 28.1941 32.0936 28.1941 32.1748C28.1941 32.2561 28.1129 32.3373 27.9504 32.4186C27.7879 32.5811 27.6254 32.8248 27.7066 32.9061C27.5441 32.7436 27.4629 32.5811 27.4629 32.4186C27.4629 32.0936 27.6254 31.8498 27.7879 31.7686Z" fill="#ED4C5C"/>
<path d="M25.2686 24.7812H27.1373V34.0438H25.2686V24.7812Z" fill="white"/>
<path d="M23.3193 28.1938C23.7256 28.0313 24.4568 27.8687 25.2693 27.8687C25.5131 27.8687 25.8381 27.8688 26.1631 27.95C27.3006 28.1125 28.1943 28.6 28.1131 28.925L28.5193 27.95C28.6006 27.5438 27.6256 27.0563 26.4068 26.8125H25.2693C24.4568 26.8125 23.7256 26.8937 23.3193 27.0562V28.1938Z" fill="#ED4C5C"/>
<path d="M27.1378 29.4125C27.6253 29.4125 28.0316 29.25 28.0316 29.0063C28.0316 28.8438 27.8691 28.6 27.5441 28.4375H27.0566L27.1378 29.4125ZM25.2691 28.6812C24.9441 28.7625 24.7003 28.8437 24.5378 28.925C24.4566 29.0062 24.7816 29.3313 25.2691 29.575V28.6812Z" fill="#ED4C5C"/>
<path d="M28.3566 31.2004C28.4379 31.0379 27.8691 30.7129 27.1379 30.4691C26.8129 30.3879 26.5691 30.2254 26.1629 30.0629C25.1879 29.6566 24.3754 29.0879 24.5379 28.9254L24.3754 29.9004C24.2941 30.0629 24.9441 30.5504 25.9191 31.0379C26.2441 31.2004 26.8129 31.4441 27.1379 31.5254C27.7066 31.6879 28.1941 32.0941 28.1129 32.1754L28.3566 31.2004ZM17.4691 18.1191C19.0129 18.1191 22.1816 18.4441 23.3191 19.5816C22.1004 22.5066 20.1504 21.2879 17.4691 21.2879C14.8691 21.2879 12.8379 22.5066 11.6191 19.5816C12.7566 18.4441 15.8441 18.1191 17.4691 18.1191Z" fill="#ED4C5C"/>
<path d="M21.4504 21.3687C20.4754 20.8 19.0129 20.7188 17.4691 20.7188C15.9254 20.7188 14.4629 20.8812 13.4879 21.3687L13.8129 22.75C14.7066 22.9938 16.0066 23.1562 17.4691 23.1562C18.9316 23.1562 20.1504 22.9938 21.1254 22.75L21.4504 21.3687ZM22.8316 17.875C22.5066 17.6312 21.8566 17.3875 21.2879 17.3875C21.0441 17.3875 20.8004 17.3875 20.5566 17.4688C20.5566 17.4688 20.0691 16.8188 18.9316 16.8188C18.5254 16.8188 18.2004 16.9 17.8754 17.0625V16.9812C17.7941 16.8187 17.6316 16.6562 17.4691 16.6562C17.3066 16.6562 17.0629 16.9 17.0629 17.0625V17.1438C16.7379 16.9813 16.4129 16.9 16.0066 16.9C14.8691 16.9 14.3816 17.6313 14.3816 17.55C14.1379 17.4688 13.8941 17.4688 13.6504 17.4688C9.91289 17.4688 11.7816 19.9875 11.7816 19.9875L12.1879 19.5C11.2941 18.3625 12.1066 17.7125 13.7316 17.7125C13.9754 17.7125 14.1379 17.7125 14.3004 17.7937C13.7316 18.6062 14.7879 19.3375 14.7879 19.3375L15.0316 18.9312C14.4629 18.525 14.3816 17.1438 16.0066 17.1438C16.4129 17.1438 16.7379 17.225 17.0629 17.4688C17.0629 17.55 16.9816 18.6875 16.9004 18.85L17.5504 19.4187L18.2004 18.85C18.1191 18.6063 18.0379 17.55 18.0379 17.4688C18.2816 17.3062 18.6879 17.1438 19.0941 17.1438C20.8004 17.1438 20.8004 18.525 20.0691 18.9312L20.3129 19.3375C20.3129 19.3375 21.2066 18.6062 20.8004 17.7937C20.9629 17.7937 21.2066 17.7125 21.3691 17.7125C23.3191 17.7125 23.4004 19.175 22.9129 19.5L23.2379 19.9875C23.0754 19.9875 23.9691 18.85 22.8316 17.875Z" fill="#C8B100"/>
<path d="M16.9814 16.3313C16.9814 16.0875 17.2252 15.8438 17.4689 15.8438C17.7939 15.8438 17.9564 16.0875 17.9564 16.3313C17.9564 16.575 17.7127 16.8188 17.4689 16.8188C17.2252 16.8188 16.9814 16.575 16.9814 16.3313Z" fill="#005BBF"/>
<path d="M17.3064 14.9502V15.1939H17.0627V15.4377H17.3064V16.2502H16.9814V16.4939H17.9564L18.0377 16.3314L17.9564 16.2502H17.6314V15.4377H17.8752V15.1939H17.6314V14.9502H17.3064Z" fill="#C8B100"/>
<path d="M17.4689 22.9941C16.1689 22.9941 15.0314 22.8316 14.1377 22.5879C15.0314 22.3441 16.1689 22.1816 17.4689 22.1816C18.7689 22.1816 19.9064 22.3441 20.8002 22.5879C19.9877 22.8316 18.7689 22.9941 17.4689 22.9941Z" fill="#ED4C5C"/>
<path d="M17.5502 37.0498C16.0064 37.0498 14.5439 36.6436 13.2439 36.0748C12.2689 35.5873 11.7002 34.6936 11.7002 33.6373V29.7373H23.4002V33.6373C23.4002 34.6936 22.7502 35.6686 21.8564 36.0748C20.5564 36.7248 19.0939 37.0498 17.5502 37.0498ZM17.4689 23.2373H23.3189V29.7373H17.4689V23.2373Z" fill="white"/>
<path d="M17.5502 33.6373C17.5502 35.1811 16.2502 36.3998 14.6252 36.3998C13.0002 36.3998 11.7002 35.1811 11.7002 33.6373V29.7373H17.5502V33.6373Z" fill="#ED4C5C"/>
<path d="M12.9191 35.9127C13.0816 35.9939 13.3254 36.1564 13.6504 36.2377V29.5752H13.0004L12.9191 35.9127ZM11.6191 33.5564C11.6191 34.3689 11.9441 35.0189 12.2691 35.3439V29.5752H11.6191V33.5564Z" fill="#C8B100"/>
<path d="M14.2188 36.4002H14.8687V29.5752H14.2188V36.4002Z" fill="#C7B500"/>
<path d="M15.5186 36.2377C15.7623 36.1564 16.0873 35.9939 16.2498 35.9127V29.5752H15.5998L15.5186 36.2377Z" fill="#C8B100"/>
<path d="M11.6191 23.2373H17.4691V29.7373H11.6191V23.2373Z" fill="#ED4C5C"/>
<path d="M16.9004 35.3438C17.2254 35.1 17.4691 34.5313 17.5504 33.8813V29.6562H16.9004V35.3438Z" fill="#C8B100"/>
<path d="M23.4002 29.7375V33.6375C23.4002 35.1812 22.1002 36.4 20.4752 36.4C18.8502 36.4 17.5502 35.1812 17.5502 33.6375V29.7375H23.4002ZM21.2877 24.375C21.5314 24.8625 21.5314 26.0812 20.8002 25.8375C20.9627 25.9187 21.0439 26.4875 21.2877 26.8125C21.6939 27.3 22.1814 26.8937 22.1002 26.325C21.9377 25.4312 22.0189 24.8625 22.1814 23.9687C22.1814 24.05 22.5877 24.05 22.7502 23.8875C22.6689 24.1312 22.5877 24.4562 22.7502 24.4562C22.5877 24.7 22.1814 25.1062 22.1002 25.35C22.0189 25.9187 22.9127 26.975 21.9377 27.2187C21.2877 27.3812 21.6939 27.8687 21.9377 28.1125C21.9377 28.1125 21.6127 29.1687 21.7752 29.0875C21.1252 29.3312 21.2877 28.7625 21.2877 28.7625C21.6127 27.7875 20.7189 27.7062 20.8002 27.5437C19.9877 27.4625 20.8814 28.275 20.1502 28.275C19.9877 28.275 19.6627 28.4375 19.6627 28.4375C18.7689 28.3562 19.2564 27.5437 19.5814 27.625C19.8252 27.7062 20.0689 28.1125 20.0689 27.5437C20.0689 27.5437 19.6627 26.8937 20.7189 26.8937C20.3127 26.8937 20.0689 26.5687 19.9064 26.1625C19.7439 26.2437 19.5002 26.65 18.6064 26.7312C18.6064 26.7312 18.3627 25.8375 18.6064 26C18.9314 26.1625 19.0939 26.1625 19.4189 25.8375C19.2564 25.5937 18.2814 25.2687 18.4439 24.7C18.4439 24.5375 18.9314 24.2937 18.9314 24.2937C18.8502 24.7 19.0939 25.1062 19.5814 25.1062C20.2314 25.1875 19.9877 24.9437 20.0689 24.7812C20.1502 24.6187 20.6377 24.8625 20.4752 24.4562C20.4752 24.375 19.9064 24.2937 20.0689 24.05C20.3939 23.6437 20.8814 23.9687 21.2877 24.375ZM17.5502 36.2375L17.3877 35.8312L17.5502 35.3437L17.7127 35.8312L17.5502 36.2375Z" fill="#ED4C5C"/>
<path d="M13.4064 24.6187V25.025H13.5689V25.35H13.1627V26.1625H13.4064V27.95H12.9189V28.8438H16.2502V27.95H15.8439V26.1625H16.0064V25.35H15.6002V25.025H15.8439V24.6187H15.0314V25.025H15.1939V25.35H14.7877V24.375H15.0314V23.9688H14.1377V24.375H14.3814V25.35H13.9752V25.025H14.1377V24.6187H13.4064ZM22.5877 34.6125V30.55H18.3627V34.6125L20.3127 35.5063H20.5564L22.5877 34.6125ZM20.3127 30.875V32.2563L18.9314 30.875H20.3127ZM18.6064 30.9562L20.2314 32.5812L18.6064 34.2062V30.9562ZM18.7689 34.5312L20.3127 32.9875V35.2625L18.7689 34.5312ZM20.5564 35.1812V32.9062L22.1002 34.45L20.5564 35.1812ZM22.2627 34.2062L20.6377 32.5812L22.2627 30.9562V34.2062ZM20.5564 30.875H21.9377L20.5564 32.2563V30.875Z" fill="#C8B100"/>
<path d="M15.5996 29.6564C15.5996 28.4377 16.4121 27.5439 17.4684 27.5439C18.5246 27.5439 19.3371 28.5189 19.3371 29.6564C19.3371 30.7939 18.5246 31.7689 17.4684 31.7689C16.4121 31.7689 15.5996 30.8752 15.5996 29.6564Z" fill="#ED4C5C"/>
<path d="M16.1689 29.6561C16.1689 28.7623 16.7377 28.1123 17.4689 28.1123C18.2002 28.1123 18.7689 28.8436 18.7689 29.6561C18.7689 30.5498 18.2002 31.1998 17.4689 31.1998C16.8189 31.2811 16.1689 30.5498 16.1689 29.6561Z" fill="#005BBF"/>
<path d="M16.9002 28.5996L16.5752 29.4934L16.8189 29.5746L16.6564 29.8996H17.1439L16.9814 29.5746L17.2252 29.4934L16.9002 28.5996ZM18.1189 28.5996L17.7939 29.4934L18.0377 29.5746L17.8752 29.8996H18.3627L18.2814 29.5746L18.5252 29.4934L18.1189 28.5996ZM17.5502 29.6559L17.1439 30.5496L17.3877 30.6309L17.3064 30.9559H17.7127L17.6314 30.6309L17.8752 30.5496L17.5502 29.6559Z" fill="#C8B100"/>
</svg>
