<svg width="95" height="95" viewBox="0 0 95 95" fill="none" xmlns="http://www.w3.org/2000/svg">
<path d="M22.332 16.1016L72.6704 78.8998" stroke="#74F15B" stroke-width="15" stroke-linecap="round"/>
<path d="M16.1016 72.6699L78.8999 22.3316" stroke="#74F15B" stroke-width="15" stroke-linecap="round"/>
<path d="M8.322 35.6408C4.20476 35.1873 0.499487 38.1574 0.0460456 42.2747C-0.407396 46.3919 2.5627 50.0972 6.67995 50.5506L7.50098 43.0957L8.322 35.6408ZM86.6797 59.3612C90.7969 59.8146 94.5022 56.8445 94.9556 52.7273C95.4091 48.61 92.439 44.9048 88.3217 44.4513L87.5007 51.9062L86.6797 59.3612ZM7.50098 43.0957L6.67995 50.5506L86.6797 59.3612L87.5007 51.9062L88.3217 44.4513L8.322 35.6408L7.50098 43.0957Z" fill="#74F15B"/>
<path d="M59.3612 8.322C59.8146 4.20476 56.8445 0.499497 52.7273 0.0460569C48.61 -0.407384 44.9048 2.56271 44.4513 6.67995L51.9062 7.50098L59.3612 8.322ZM35.6408 86.6796C35.1873 90.7968 38.1574 94.5021 42.2747 94.9555C46.3919 95.409 50.0972 92.4389 50.5506 88.3216L43.0957 87.5006L35.6408 86.6796ZM51.9062 7.50098L44.4513 6.67995L35.6408 86.6796L43.0957 87.5006L50.5506 88.3216L59.3612 8.322L51.9062 7.50098Z" fill="#74F15B"/>
</svg>
