<svg width="132" height="26" viewBox="0 0 132 26" fill="none" xmlns="http://www.w3.org/2000/svg">
<path d="M71.0715 0.351781C71.1635 0.373675 71.2555 0.395568 71.3503 0.418125C72.0771 0.61237 72.8139 0.908288 73.3528 1.4473C73.3783 2.18512 73.1375 2.73226 72.8156 3.38016C72.7773 3.45761 72.739 3.53506 72.6995 3.61485C72.4846 4.02983 72.2841 4.40163 71.9017 4.68502C71.5646 4.74271 71.4054 4.72046 71.1086 4.55026C71.0319 4.49111 70.9552 4.43196 70.8762 4.37102C70.0145 3.76849 69.0427 3.52219 67.9948 3.68021C67.4341 3.86478 67.0078 4.11228 66.5856 4.52453C66.3218 5.18397 66.287 5.84873 66.5319 6.52281C66.9966 7.32309 67.787 7.78075 68.553 8.25768C68.6272 8.30393 68.7014 8.35018 68.7778 8.39783C69.0864 8.5897 69.3952 8.78131 69.7044 8.97209C70.2822 9.3311 70.8198 9.72116 71.3436 10.1557C71.4564 10.2408 71.5692 10.326 71.6854 10.4138C72.713 11.3541 73.5416 12.5233 73.6284 13.9455C73.6322 14.1382 73.6333 14.331 73.6319 14.5238C73.6313 14.6258 73.6306 14.7278 73.63 14.8329C73.5941 16.209 73.2154 17.4108 72.2366 18.4174C72.1492 18.5094 72.1492 18.5094 72.06 18.6032C70.5428 20.0431 68.4289 20.2753 66.4421 20.2644C64.497 20.2121 62.8522 19.6453 61.3379 18.4069C61.1857 18.1941 61.1857 18.1941 61.1221 17.9024C61.2182 17.3311 61.5179 16.9201 61.8346 16.4427C61.8956 16.3473 61.9567 16.252 62.0196 16.1538C62.5498 15.3356 62.5498 15.3356 62.8601 15.0681C63.1239 15.0179 63.1239 15.0179 63.4182 15.0681C63.7021 15.2682 63.7021 15.2682 63.9973 15.5356C65.048 16.4204 65.8479 16.7545 67.2187 16.6852C67.7845 16.6158 68.1612 16.4912 68.553 16.0729C68.938 15.5434 68.9632 15.03 68.8878 14.3982C68.7162 13.5045 68.0989 12.9152 67.3698 12.4113C67.0533 12.2165 66.7335 12.0293 66.4112 11.8443C64.3942 10.6511 62.5303 9.41932 61.8289 7.07493C61.7691 6.81441 61.7691 6.81441 61.6322 6.69464C61.5115 4.84558 61.8484 3.51324 63.0275 2.06135C63.9534 1.05541 65.1268 0.544199 66.4321 0.219202C66.5338 0.190126 66.5338 0.190126 66.6375 0.160463C68.0288 -0.144818 69.7003 0.0226761 71.0715 0.351781Z" fill="#32D411"/>
<path d="M32.4576 8.01303C33.2054 7.98235 33.7614 8.08402 34.4433 8.39376C34.8066 8.50365 35.0277 8.44107 35.4 8.3689C35.7604 8.3463 36.1203 8.3432 36.4813 8.34099C36.5767 8.33869 36.672 8.33639 36.7702 8.33402C36.8618 8.33344 36.9534 8.33286 37.0478 8.33227C37.1306 8.33123 37.2134 8.33018 37.2988 8.32911C37.589 8.38112 37.6732 8.47495 37.8557 8.70384C37.8958 8.92962 37.8958 8.92962 37.8933 9.19286C37.893 9.34283 37.893 9.34283 37.8928 9.49583C37.8909 9.60527 37.889 9.71471 37.887 9.82746C37.8864 9.94297 37.8857 10.0585 37.885 10.1775C37.8823 10.5607 37.8771 10.9439 37.8719 11.3271C37.8693 11.5937 37.8669 11.8604 37.8645 12.127C37.8593 12.6871 37.8528 13.2471 37.8456 13.8071C37.8363 14.5222 37.8295 15.2373 37.8235 15.9525C37.8186 16.5039 37.8127 17.0553 37.8065 17.6067C37.8036 17.8702 37.801 18.1336 37.7986 18.3971C37.7951 18.7674 37.7902 19.1376 37.785 19.5079C37.7839 19.669 37.7839 19.669 37.7827 19.8334C37.7544 21.5149 37.4305 23.3354 36.2023 24.5732C35.7778 24.934 35.3429 25.2082 34.8419 25.4507C34.7486 25.4969 34.6554 25.5431 34.5593 25.5907C33.0767 26.2021 31.209 26.0874 29.7324 25.5143C28.4133 24.8722 28.4133 24.8722 28.1444 24.3342C28.0252 23.3534 28.2666 22.3645 28.8141 21.5431C29.3169 21.5177 29.7771 21.524 30.2652 21.6547C30.5079 21.9217 30.6401 22.1808 30.7972 22.5043C30.925 22.7968 30.925 22.7968 31.235 23.0084C31.9088 23.1864 32.5519 23.198 33.2163 22.9805C33.8318 22.5301 34.0532 21.9406 34.1721 21.2081C34.1973 20.761 34.1933 20.316 34.1861 19.8684C34.1851 19.7499 34.184 19.6315 34.183 19.5095C34.1804 19.2197 34.1767 18.93 34.1721 18.6403C34.1223 18.6856 34.0724 18.7308 34.0211 18.7775C33.107 19.588 32.202 19.8449 30.9764 19.8073C30.1319 19.6938 29.4049 19.2446 28.8141 18.6403C27.9806 17.4673 27.4286 16.1019 27.4467 14.6559C27.448 14.5232 27.448 14.5232 27.4493 14.3879C27.4841 12.4713 28.0057 10.7082 29.4115 9.34188C30.3092 8.57939 31.2807 8.09662 32.4576 8.01303Z" fill="#12ABDE"/>
<path d="M82.7568 8.78102C83.5757 9.4698 83.9903 10.2579 84.2916 11.2721C84.3316 11.3808 84.3716 11.4894 84.4129 11.6014C84.5984 12.2604 84.5515 12.9592 84.5498 13.6376C84.5516 13.7773 84.5534 13.9169 84.5552 14.0609C84.5561 15.7998 84.1261 17.3592 82.9033 18.6477C82.4737 19.0474 82.0455 19.3203 81.501 19.5339C81.418 19.5735 81.335 19.613 81.2494 19.6538C80.8597 19.7852 80.4917 19.7999 80.0848 19.799C80.006 19.799 79.9273 19.799 79.8462 19.799C79.0255 19.7812 78.3866 19.5413 77.7058 19.0873C77.7092 19.1753 77.7125 19.2633 77.716 19.354C77.7871 21.2385 77.8341 23.1183 77.8174 25.0045C77.4043 25.1939 77.0799 25.2564 76.6266 25.2575C76.5085 25.2577 76.3905 25.258 76.2688 25.2583C76.1467 25.2575 76.0246 25.2566 75.8989 25.2557C75.7755 25.2566 75.6521 25.2574 75.525 25.2583C75.4073 25.258 75.2897 25.2577 75.1685 25.2575C75.061 25.2572 74.9535 25.257 74.8427 25.2567C74.5803 25.2278 74.5803 25.2278 74.357 25.0045C74.3281 24.7495 74.3281 24.7495 74.3267 24.4245C74.3256 24.3015 74.3245 24.1785 74.3234 24.0518C74.3234 23.9162 74.3233 23.7806 74.3232 23.6409C74.3223 23.4985 74.3213 23.3562 74.3204 23.2095C74.3183 22.8993 74.317 22.589 74.3162 22.2787C74.3149 21.7868 74.312 21.2949 74.309 20.8029C74.3043 20.0231 74.3007 19.2432 74.2976 18.4634C74.2919 17.0717 74.2849 15.6801 74.2769 14.2885C74.2741 13.801 74.2719 13.3135 74.2702 12.826C74.2694 12.5943 74.2683 12.3627 74.2671 12.1311C74.2656 11.8507 74.2645 11.5704 74.2639 11.29C74.259 10.4884 74.215 9.70015 74.1357 8.90231C74.1351 8.80011 74.1344 8.69791 74.1338 8.59262C74.6124 8.11388 75.4588 8.23373 76.1012 8.22977C76.1956 8.22747 76.29 8.22517 76.3872 8.22279C76.7829 8.2203 77.0724 8.22278 77.4346 8.3907C77.6497 8.66288 77.6399 8.82892 77.6221 9.17178C77.618 9.27238 77.614 9.37298 77.6099 9.47663C77.6021 9.59169 77.6021 9.59169 77.5942 9.70908C77.6678 9.70908 77.7415 9.70908 77.8174 9.70908C77.8597 9.60912 77.8597 9.60912 77.9029 9.50715C78.2381 8.91196 78.9898 8.51119 79.6034 8.25768C80.7858 7.97489 81.6987 8.23155 82.7568 8.78102Z" fill="#32D411"/>
<path d="M2.60341 0.532842C2.69888 0.531376 2.79434 0.52991 2.8927 0.528399C3.46565 0.527676 3.93914 0.584291 4.48011 0.777067C4.59173 0.888712 4.59173 0.888712 4.60547 1.1483C4.60536 1.26428 4.60526 1.38027 4.60515 1.49977C4.60531 1.63238 4.60546 1.76498 4.60562 1.90161C4.60502 2.12181 4.60502 2.12181 4.6044 2.34645C4.60437 2.50156 4.60439 2.65667 4.60445 2.81178C4.60448 3.23412 4.60383 3.65646 4.60305 4.0788C4.60235 4.51971 4.60228 4.96062 4.60215 5.40152C4.6018 6.23701 4.60089 7.07249 4.59977 7.90797C4.59852 8.8589 4.59791 9.80983 4.59735 10.7608C4.59618 12.7174 4.59421 14.6741 4.59173 16.6307C4.70632 16.6273 4.82091 16.624 4.93898 16.6205C5.37462 16.6077 5.81028 16.5953 6.24593 16.583C6.43252 16.5777 6.61911 16.5723 6.80569 16.5668C7.44436 16.5479 8.08303 16.5319 8.72185 16.5191C8.86482 16.5161 8.86482 16.5161 9.01068 16.5131C9.29026 16.5079 9.56981 16.5045 9.84943 16.5016C9.97766 16.4991 9.97766 16.4991 10.1085 16.4966C10.3161 16.4955 10.5238 16.5063 10.7311 16.5191C11.1298 16.9179 11.0004 17.5285 11.0032 18.0682C11.0068 18.1912 11.0105 18.3143 11.0143 18.441C11.0151 18.5595 11.0159 18.6779 11.0167 18.8C11.0189 18.9627 11.0189 18.9627 11.0212 19.1287C10.9543 19.4219 10.9543 19.4219 10.7317 19.66C10.2954 19.9311 9.92409 19.9304 9.4262 19.9245C9.28154 19.9254 9.28154 19.9254 9.13396 19.9263C8.81603 19.9277 8.49821 19.9258 8.18029 19.9238C7.95916 19.9238 7.73802 19.924 7.51688 19.9243C7.0539 19.9245 6.59096 19.9231 6.12799 19.9205C5.53402 19.9174 4.94011 19.9177 4.34613 19.9191C3.88974 19.9199 3.43337 19.919 2.97698 19.9176C2.75793 19.9171 2.53887 19.9171 2.31981 19.9175C2.01409 19.9178 1.70845 19.916 1.40274 19.9136C1.31193 19.9141 1.22111 19.9146 1.12754 19.9151C0.520821 19.907 0.520821 19.907 0.237647 19.7225C0.0436665 19.3919 0.0880677 19.026 0.0988347 18.6543C0.101297 18.5275 0.101297 18.5275 0.103809 18.398C0.116346 17.8327 0.137686 17.2688 0.167947 16.7042C0.234752 15.4536 0.256582 14.2064 0.257115 12.9543C0.257476 12.7478 0.257852 12.5413 0.258241 12.3348C0.258902 11.9045 0.259117 11.4743 0.25905 11.044C0.259041 10.6133 0.259805 10.1826 0.261339 9.75183C0.263579 9.11671 0.264483 8.48161 0.264092 7.84649C0.264042 7.74285 0.263992 7.6392 0.263941 7.53241C0.261873 6.38003 0.239946 5.23165 0.175413 4.08097C0.16971 3.97914 0.164006 3.87732 0.15813 3.77242C0.130174 3.28853 0.0991422 2.80505 0.0640388 2.32163C0.0583584 2.23465 0.052678 2.14767 0.0468254 2.05805C0.0362657 1.89645 0.0243061 1.73493 0.0106759 1.57356C-0.00884738 1.26004 -0.0206534 1.05521 0.154121 0.787183C0.793812 0.389522 1.8656 0.540037 2.60341 0.532842Z" fill="#12ABDE"/>
<path d="M100.988 8.98769C102.109 9.79195 102.882 10.9213 103.184 12.2629C103.502 14.3294 103.319 16.3563 102.08 18.0824C101.445 18.8905 100.746 19.3535 99.8075 19.7571C99.7311 19.793 99.6547 19.8288 99.5759 19.8657C98.3418 20.3712 96.6825 20.1726 95.4541 19.7571C94.0135 19.0642 93.2627 17.9615 92.6635 16.5194C92.1422 14.8666 92.2258 12.8291 92.9984 11.2721C93.366 10.6388 93.7926 10.0882 94.3379 9.59738C94.3948 9.54255 94.4518 9.48771 94.5105 9.43122C96.2211 7.84981 99.0529 7.83215 100.988 8.98769Z" fill="#32D411"/>
<path d="M58.3202 8.98621C59.1993 9.76269 59.6373 10.5388 59.7347 11.7189C59.7531 12.1689 59.7579 12.6188 59.7622 13.0691C59.7659 13.3318 59.7696 13.5945 59.7733 13.8572C59.7786 14.268 59.7836 14.6789 59.788 15.0897C59.7924 15.4885 59.7982 15.8872 59.8041 16.2859C59.805 16.4079 59.806 16.5299 59.8069 16.6557C59.8189 17.4006 59.8472 18.1078 60.2022 18.7805C60.2929 18.9759 60.2929 18.9759 60.2663 19.1926C60.162 19.4745 60.0521 19.5569 59.8045 19.7225C59.7369 19.769 59.6693 19.8155 59.5996 19.8634C59.0254 20.2007 58.3689 20.1383 57.7255 20.0923C57.1419 19.9047 56.895 19.6261 56.6093 19.0875C56.6093 18.9401 56.6093 18.7928 56.6093 18.6409C56.5356 18.6409 56.4619 18.6409 56.386 18.6409C56.3587 18.7076 56.3313 18.7742 56.3032 18.8429C56.0465 19.2901 55.5947 19.5039 55.1581 19.7574C55.0915 19.7961 55.0249 19.8348 54.9562 19.8747C54.1347 20.2608 52.8534 20.2465 51.9908 19.9877C51.1169 19.5739 50.4252 18.8562 50.0927 17.954C50.0698 17.886 50.047 17.8179 50.0234 17.7478C49.9866 17.6741 49.9497 17.6004 49.9118 17.5245C49.7936 16.408 50.064 15.5539 50.7141 14.6496C51.5791 13.6036 52.9236 12.967 54.2651 12.8354C54.9348 12.8119 55.6045 12.8222 56.2744 12.8354C56.2554 12.0143 56.2554 12.0143 55.9604 11.2653C55.436 10.8008 54.9856 10.7728 54.3009 10.7813C53.5984 10.8656 52.9935 11.1826 52.3675 11.4956C52.0466 11.5375 52.0466 11.5375 51.6978 11.4956C51.4675 11.2793 51.4675 11.2793 51.2513 10.9374C51.2 10.8578 51.1488 10.7782 51.096 10.6962C50.6946 10.0354 50.6946 10.0354 50.6892 9.64693C50.857 9.25106 51.141 9.1402 51.5164 8.97662C51.6267 8.92706 51.6267 8.92706 51.7393 8.8765C53.7167 8.03789 56.457 7.64213 58.3202 8.98621Z" fill="#12ABDE"/>
<path d="M25.4663 8.73203C26.253 9.33029 26.5749 10.2014 26.7577 11.1434C26.8568 11.8762 26.8372 12.6168 26.835 13.3548C26.8351 13.5329 26.8353 13.711 26.8356 13.8891C26.8359 14.26 26.8355 14.6308 26.8344 15.0016C26.8331 15.4774 26.8339 15.9532 26.8352 16.429C26.836 16.7956 26.8358 17.1622 26.8352 17.5289C26.835 17.7044 26.8352 17.88 26.8357 18.0556C26.8363 18.2998 26.8354 18.544 26.8342 18.7882C26.834 18.9271 26.8338 19.0661 26.8337 19.2092C26.8053 19.5337 26.8053 19.5337 26.5821 19.757C25.9533 19.9163 25.301 19.8892 24.6565 19.8896C24.4882 19.8917 24.4882 19.8917 24.3164 19.8937C24.1558 19.8941 24.1558 19.8941 23.992 19.8944C23.8458 19.8951 23.8458 19.8951 23.6967 19.8958C23.4566 19.8687 23.4566 19.8687 23.2333 19.6454C23.2045 19.3348 23.2045 19.3348 23.203 18.9337C23.2025 18.8607 23.2019 18.7877 23.2013 18.7125C23.2001 18.5538 23.1995 18.395 23.1993 18.2363C23.1989 17.9847 23.197 17.7331 23.1947 17.4815C23.1885 16.7661 23.1851 16.0508 23.1824 15.3354C23.1806 14.8978 23.1772 14.4604 23.1729 14.0229C23.1716 13.8564 23.171 13.6899 23.1709 13.5235C23.1709 13.2899 23.1689 13.0564 23.1664 12.8229C23.1658 12.6902 23.1653 12.5575 23.1647 12.4208C23.1161 12.0057 23.0055 11.7382 22.7868 11.3836C22.3952 11.1225 22.2431 11.1142 21.7822 11.1603C21.2477 11.3559 21.0534 11.729 20.7902 12.2048C20.4257 13.0709 20.41 13.8882 20.4083 14.8158C20.4054 15.0918 20.4026 15.3677 20.3998 15.6436C20.3965 16.0765 20.3938 16.5095 20.3918 16.9424C20.3894 17.3617 20.385 17.7809 20.3803 18.2001C20.3803 18.3305 20.3803 18.4608 20.3803 18.5951C20.3788 18.7152 20.3773 18.8352 20.3758 18.9589C20.3749 19.1177 20.3749 19.1177 20.3741 19.2798C20.3599 19.3636 20.3457 19.4474 20.3311 19.5337C19.9324 19.7996 19.7565 19.7844 19.2837 19.7828C19.1443 19.7825 19.0049 19.7823 18.8612 19.7821C18.7154 19.7807 18.5697 19.7794 18.4195 19.778C18.2729 19.7779 18.1263 19.7778 17.9752 19.7777C16.8864 19.7727 16.8864 19.7727 16.7591 19.6454C16.7451 19.2988 16.7383 18.9546 16.7362 18.6078C16.7351 18.4989 16.734 18.39 16.7328 18.2778C16.7293 17.9159 16.7265 17.5541 16.7238 17.1922C16.7215 16.9421 16.7191 16.6919 16.7167 16.4418C16.7106 15.7819 16.7051 15.1221 16.6997 14.4622C16.6941 13.7895 16.6879 13.1168 16.6817 12.444C16.6697 11.123 16.6583 9.8019 16.6475 8.48083C17.3361 8.27771 17.9158 8.22017 18.6288 8.22265C18.7343 8.22085 18.8397 8.21905 18.9484 8.21719C19.1001 8.21709 19.1001 8.21709 19.2549 8.21698C19.3464 8.21664 19.4379 8.21631 19.5322 8.21597C19.8317 8.26767 19.9303 8.34855 20.1078 8.59247C20.1405 8.96709 20.1405 8.96709 20.1288 9.39492C20.1257 9.53697 20.1227 9.67902 20.1196 9.82537C20.1157 9.93432 20.1118 10.0433 20.1078 10.1555C20.1815 10.1555 20.2552 10.1555 20.3311 10.1555C20.3597 10.0909 20.3883 10.0263 20.4178 9.95969C20.8746 9.12053 21.765 8.47277 22.6691 8.1895C23.6982 7.99382 24.584 8.18158 25.4663 8.73203Z" fill="#12ABDE"/>
<path d="M105.151 8.45107C105.28 8.45078 105.408 8.45049 105.54 8.4502C105.741 8.45149 105.741 8.45149 105.947 8.45281C106.081 8.45195 106.215 8.45108 106.353 8.4502C106.545 8.45063 106.545 8.45063 106.742 8.45107C106.918 8.45145 106.918 8.45145 107.099 8.45183C107.398 8.48072 107.398 8.48072 107.733 8.70401C107.772 8.99263 107.772 8.99263 107.769 9.36263C107.768 9.50091 107.768 9.63919 107.768 9.78166C107.766 9.93343 107.763 10.0852 107.761 10.237C107.76 10.3925 107.76 10.548 107.759 10.7035C107.757 11.1138 107.753 11.524 107.749 11.9343C107.742 12.589 107.739 13.2437 107.735 13.8985C107.733 14.1265 107.731 14.3545 107.728 14.5825C107.727 14.7925 107.727 14.7925 107.725 15.0068C107.723 15.1906 107.723 15.1906 107.721 15.3782C107.738 15.9109 107.761 16.3718 108.026 16.8402C108.381 17.1587 108.597 17.1973 109.072 17.1891C109.79 16.83 110.057 16.3053 110.317 15.5714C110.554 14.8324 110.589 14.1458 110.587 13.3744C110.59 13.1732 110.59 13.1732 110.592 12.9679C110.597 12.5444 110.598 12.121 110.6 11.6975C110.603 11.2697 110.607 10.8418 110.611 10.414C110.614 10.1488 110.616 9.88367 110.617 9.61852C110.617 9.49991 110.618 9.38131 110.619 9.25911C110.619 9.15431 110.62 9.04951 110.62 8.94154C110.635 8.70401 110.635 8.70401 110.746 8.59237C111.206 8.56804 111.666 8.57163 112.126 8.57168C112.357 8.57144 112.588 8.56941 112.819 8.56729C113.036 8.56697 113.036 8.56697 113.258 8.56664C113.391 8.56618 113.525 8.56572 113.663 8.56525C113.984 8.59237 113.984 8.59237 114.207 8.81566C114.237 9.1546 114.237 9.1546 114.241 9.5965C114.242 9.67697 114.242 9.75744 114.243 9.84036C114.246 10.108 114.248 10.3757 114.249 10.6434C114.251 10.8308 114.253 11.0181 114.255 11.2054C114.26 11.7011 114.264 12.1968 114.267 12.6925C114.273 13.4789 114.281 14.2654 114.288 15.0519C114.291 15.3236 114.293 15.5953 114.294 15.8671C114.304 17.0918 114.357 18.3111 114.43 19.5336C113.782 19.9439 113.273 19.9262 112.518 19.9244C112.335 19.9291 112.335 19.9291 112.147 19.934C111.971 19.9344 111.971 19.9344 111.792 19.9349C111.685 19.9356 111.578 19.9364 111.468 19.9373C111.193 19.8686 111.193 19.8686 110.992 19.604C110.85 19.2937 110.804 19.056 110.781 18.7172C110.774 18.6186 110.767 18.5201 110.759 18.4185C110.753 18.3073 110.753 18.3073 110.746 18.1939C110.672 18.2828 110.672 18.2828 110.595 18.3736C109.74 19.3734 108.872 19.9901 107.536 20.1224C106.697 20.1515 106.071 20.0413 105.388 19.5336C104.312 18.4654 104.052 17.0901 104.022 15.6152C104.021 15.3772 104.022 15.1392 104.023 14.9012C104.023 14.773 104.023 14.6448 104.023 14.5127C104.024 14.2434 104.025 13.9742 104.026 13.7049C104.028 13.2973 104.028 12.8897 104.028 12.4821C104.033 9.28802 104.033 9.28802 104.161 8.70401C104.546 8.44696 104.697 8.45204 105.151 8.45107Z" fill="#32D411"/>
<path d="M39.9764 8.45107C40.1771 8.45064 40.1771 8.45064 40.3817 8.4502C40.5221 8.45106 40.6625 8.45192 40.8071 8.45281C41.017 8.45152 41.017 8.45152 41.2311 8.4502C41.365 8.45048 41.4989 8.45077 41.6369 8.45107C41.76 8.45132 41.883 8.45157 42.0099 8.45183C42.321 8.48072 42.321 8.48072 42.6559 8.70401C42.6626 9.05818 42.6483 9.39156 42.621 9.74371C42.5539 10.8761 42.5234 12.006 42.518 13.1401C42.5169 13.3209 42.5152 13.5016 42.5127 13.6824C42.4368 15.3966 42.4368 15.3966 43.0312 16.9427C43.3543 17.1808 43.7279 17.1295 44.107 17.0774C44.528 16.9243 44.6527 16.7612 44.9023 16.3866C45.605 14.8068 45.4996 12.9737 45.5093 11.2858C45.5119 10.9178 45.5151 10.5499 45.5195 10.182C45.5222 9.95483 45.5239 9.72769 45.5244 9.50055C45.5255 9.39905 45.5267 9.29754 45.5278 9.19295C45.5283 9.10364 45.5288 9.01432 45.5293 8.92229C45.5581 8.70401 45.5581 8.70401 45.7814 8.48072C46.0678 8.45183 46.0678 8.45183 46.4263 8.45107C46.6193 8.45064 46.6193 8.45064 46.8163 8.4502C47.0189 8.45149 47.0189 8.45149 47.2255 8.45281C47.3601 8.45195 47.4947 8.45108 47.6334 8.4502C47.7623 8.45048 47.8911 8.45077 48.0239 8.45107C48.1423 8.45132 48.2607 8.45157 48.3827 8.45183C48.6836 8.48072 48.6836 8.48072 49.0185 8.70401C49.0532 8.97918 49.0662 9.22693 49.065 9.50257C49.0659 9.58484 49.0669 9.6671 49.0679 9.75186C49.0707 10.0249 49.0712 10.2979 49.0717 10.571C49.0733 10.761 49.075 10.9511 49.077 11.1411C49.0816 11.6427 49.0844 12.1443 49.0867 12.6459C49.0907 13.446 49.0976 14.2461 49.1044 15.0461C49.1065 15.3247 49.1078 15.6033 49.109 15.8819C49.1138 16.6969 49.1315 17.4966 49.2417 18.3055C49.2485 18.5497 49.2515 18.794 49.2487 19.0382C49.2477 19.1535 49.2467 19.2688 49.2457 19.3875C49.2444 19.4726 49.2431 19.5576 49.2417 19.6453C48.8286 19.8347 48.5043 19.8972 48.0509 19.8982C47.8738 19.8987 47.8738 19.8987 47.6932 19.8991C47.5711 19.8982 47.449 19.8974 47.3232 19.8965C47.1998 19.8973 47.0764 19.8982 46.9493 19.8991C46.8317 19.8988 46.714 19.8985 46.5928 19.8982C46.4853 19.898 46.3778 19.8977 46.267 19.8975C46.0046 19.8686 46.0046 19.8686 45.7814 19.6453C45.7107 19.3304 45.7107 19.3304 45.6558 18.9614C45.6277 18.7779 45.6277 18.7779 45.5991 18.5907C45.5856 18.4966 45.5721 18.4025 45.5581 18.3055C45.5147 18.3622 45.4712 18.4189 45.4264 18.4774C44.803 19.2446 43.9811 19.8938 42.9907 20.0919C41.9232 20.1764 41.0291 20.093 40.1722 19.415C39.3265 18.6129 39.02 17.5411 38.952 16.4033C38.9448 16.026 38.9442 15.6493 38.9465 15.2719C38.9466 15.1335 38.9466 14.995 38.9467 14.8524C38.947 14.5608 38.9479 14.2691 38.9493 13.9775C38.9513 13.5356 38.9516 13.0937 38.9515 12.6517C38.9521 12.3668 38.9527 12.0819 38.9535 11.7969C38.9537 11.6018 38.9537 11.6018 38.9539 11.4028C38.9706 8.45313 38.9706 8.45313 39.9764 8.45107Z" fill="#12ABDE"/>
<path d="M118.519 4.55282C118.626 4.55146 118.732 4.55009 118.842 4.54868C118.995 4.54836 118.995 4.54836 119.151 4.54803C119.244 4.54757 119.337 4.54711 119.433 4.54664C119.677 4.57376 119.677 4.57376 120.012 4.79705C120.049 5.11847 120.049 5.11847 120.04 5.52972C120.038 5.63886 120.038 5.63886 120.036 5.75021C120.017 6.62441 119.96 7.4975 119.901 8.3697C119.981 8.36912 120.062 8.36853 120.145 8.36793C120.507 8.36562 120.87 8.36416 121.233 8.36273C121.36 8.36179 121.487 8.36086 121.617 8.35989C121.738 8.35953 121.858 8.35917 121.983 8.3588C122.15 8.35792 122.15 8.35792 122.321 8.35703C122.58 8.3697 122.58 8.3697 122.691 8.48135C122.705 8.79665 122.712 9.10801 122.712 9.42336C122.713 9.51151 122.715 9.59966 122.716 9.69048C122.717 9.92025 122.705 10.15 122.691 10.3793C122.468 10.6026 122.468 10.6026 122.186 10.628C122.071 10.6268 121.955 10.6256 121.836 10.6244C121.71 10.6237 121.585 10.623 121.456 10.6222C121.325 10.6204 121.194 10.6185 121.059 10.6166C120.927 10.6156 120.794 10.6146 120.658 10.6135C120.331 10.6109 120.004 10.6072 119.677 10.6026C119.685 11.4151 119.695 12.2276 119.707 13.0401C119.71 13.3163 119.713 13.5926 119.716 13.8688C119.72 14.2665 119.726 14.6642 119.732 15.0619C119.733 15.1848 119.733 15.3078 119.734 15.4345C119.747 16.1009 119.792 16.605 120.124 17.1897C120.383 17.3195 120.547 17.3199 120.835 17.3223C120.921 17.3239 121.007 17.3254 121.096 17.3271C121.377 17.2988 121.55 17.2062 121.798 17.0781C122.303 17.1368 122.303 17.1368 122.468 17.3013C122.491 17.6126 122.504 17.9177 122.51 18.2294C122.516 18.3588 122.516 18.3588 122.522 18.4908C122.532 19.1289 122.532 19.1289 122.223 19.4675C121.031 20.1466 119.726 20.2709 118.384 20.0436C117.647 19.8108 116.994 19.2285 116.622 18.5574C116.198 17.5453 116.185 16.4725 116.195 15.3916C116.195 15.257 116.196 15.1225 116.196 14.9838C116.197 14.5585 116.2 14.1331 116.203 13.7078C116.204 13.4175 116.205 13.1273 116.206 12.837C116.208 12.1294 116.212 11.4219 116.217 10.7143C116.132 10.7168 116.047 10.7194 115.96 10.7221C115.849 10.7241 115.738 10.7261 115.624 10.7282C115.459 10.7321 115.459 10.7321 115.29 10.7361C114.989 10.7143 114.989 10.7143 114.654 10.491C114.62 10.1648 114.608 9.86765 114.612 9.54198C114.611 9.45434 114.61 9.36669 114.608 9.27639C114.61 9.02213 114.61 9.02213 114.654 8.593C115.06 8.32267 115.255 8.34623 115.736 8.35575C115.867 8.35776 115.999 8.35978 116.135 8.36185C116.235 8.36444 116.336 8.36704 116.44 8.3697C116.44 8.29659 116.439 8.22348 116.438 8.14816C116.436 7.81264 116.435 7.47713 116.433 7.1416C116.432 7.02661 116.431 6.91162 116.43 6.79315C116.428 6.15499 116.436 5.5374 116.552 4.90869C117.042 4.41828 117.868 4.55327 118.519 4.55282Z" fill="#32D411"/>
<path d="M131.844 9.37455C131.776 9.87411 131.584 10.2472 131.341 10.6864C131.271 10.8148 131.201 10.9431 131.129 11.0754C130.951 11.3842 130.951 11.3842 130.839 11.4958C130.37 11.5465 130.146 11.4447 129.772 11.1679C129.223 10.7657 128.831 10.6954 128.153 10.6794C128.037 10.6752 127.92 10.6711 127.8 10.6668C127.48 10.685 127.48 10.685 127.284 10.9167C127.131 11.1699 127.131 11.1699 127.121 11.5307C127.457 12.4771 128.657 12.8754 129.495 13.3183C130.475 13.8583 131.263 14.5875 131.844 15.5499C132.093 16.468 132.062 17.4521 131.62 18.3062C131.069 19.2158 130.065 19.7402 129.066 20.0449C128.579 20.143 128.077 20.1131 127.581 20.1135C127.469 20.1148 127.357 20.1162 127.242 20.1176C126.153 20.1197 125.295 19.9366 124.33 19.4366C124.215 19.3798 124.215 19.3798 124.097 19.3219C123.672 19.1062 123.344 18.8943 123.025 18.5295C123.172 18.0106 123.378 17.6404 123.702 17.2107C123.782 17.104 123.861 16.9974 123.943 16.8875C124.223 16.526 124.223 16.526 124.49 16.471C124.847 16.5253 124.922 16.5916 125.181 16.8269C125.912 17.4886 126.523 17.7186 127.521 17.6782C127.846 17.6482 127.846 17.6482 128.195 17.4689C128.419 17.1867 128.419 17.1867 128.418 16.7641C128.285 16.1399 127.894 15.8546 127.379 15.5151C126.962 15.2715 126.537 15.0414 126.112 14.811C124.994 14.2013 124.005 13.5429 123.584 12.2773C123.497 11.3685 123.445 10.5557 124.042 9.81285C126.139 7.68083 129.457 7.75763 131.844 9.37455Z" fill="#32D411"/>
<path d="M91.7705 8.11128C91.8626 8.10711 91.9547 8.10293 92.0495 8.09863C92.4511 8.16704 92.6191 8.28529 92.8867 8.59275C92.9163 8.93462 92.9155 9.19973 92.8798 9.53476C92.8738 9.61859 92.8678 9.70242 92.8617 9.7888C92.8238 10.2415 92.7675 10.6414 92.5519 11.049C92.2736 11.162 92.0417 11.1641 91.7443 11.1423C91.0658 11.1022 90.6446 11.2001 90.0939 11.6085C89.4876 12.2174 89.191 13.0555 89.1855 13.9005C89.1838 14.0905 89.1838 14.0905 89.182 14.2843C89.1812 14.4211 89.1804 14.5579 89.1796 14.6988C89.1764 14.9867 89.1732 15.2746 89.17 15.5625C89.1652 16.0178 89.1611 16.473 89.1583 16.9283C89.1555 17.3667 89.1501 17.8051 89.1447 18.2435C89.1443 18.3805 89.144 18.5175 89.1436 18.6587C89.1417 18.785 89.1399 18.9113 89.138 19.0414C89.1371 19.153 89.1362 19.2645 89.1352 19.3795C89.1208 19.4673 89.1064 19.5551 89.0915 19.6457C88.6998 19.9068 88.5357 19.8977 88.0725 19.8986C87.8716 19.899 87.8716 19.899 87.6668 19.8995C87.5268 19.8986 87.3869 19.8977 87.2427 19.8969C87.1023 19.8977 86.962 19.8986 86.8174 19.8995C86.6836 19.8992 86.5499 19.8989 86.4121 19.8986C86.2276 19.8982 86.2276 19.8982 86.0394 19.8978C85.7428 19.8689 85.7428 19.8689 85.5195 19.6457C85.4964 19.3676 85.4871 19.1017 85.4875 18.8234C85.4867 18.7386 85.4859 18.6538 85.4851 18.5664C85.4836 18.3817 85.4826 18.197 85.482 18.0123C85.4811 17.7188 85.4788 17.4253 85.4762 17.1317C85.4708 16.5067 85.4671 15.8816 85.4637 15.2566C85.4597 14.5362 85.455 13.8158 85.4485 13.0954C85.4463 12.8084 85.4454 12.5215 85.4445 12.2345C85.4385 11.3298 85.4004 10.4648 85.2321 9.57214C85.1814 9.24134 85.1769 8.9269 85.1846 8.59275C85.8748 8.28594 86.4896 8.2213 87.2357 8.21595C87.3692 8.21368 87.3692 8.21368 87.5054 8.21137C88.1463 8.21628 88.1463 8.21628 88.3863 8.40713C88.6975 8.79983 88.6567 9.19473 88.652 9.67432C88.651 9.806 88.65 9.93769 88.6489 10.0734C88.6476 10.1742 88.6463 10.2751 88.645 10.3791C88.9172 10.2719 88.9172 10.2719 89.0566 9.86272C89.393 9.16344 89.9489 8.59198 90.6542 8.25781C91.02 8.14285 91.3891 8.12823 91.7705 8.11128Z" fill="#32D411"/>
<path d="M13.5216 8.33399C13.6663 8.33219 13.8111 8.33039 13.9602 8.32854C14.0987 8.32846 14.2371 8.32839 14.3797 8.32832C14.5703 8.32782 14.5703 8.32782 14.7647 8.32731C15.1278 8.37453 15.2007 8.42156 15.4192 8.70381C15.4587 8.9159 15.4587 8.9159 15.4552 9.15946C15.4548 9.25199 15.4543 9.34451 15.4538 9.43983C15.4515 9.54094 15.4493 9.64204 15.447 9.74621C15.4459 9.85298 15.4449 9.95974 15.4438 10.0697C15.44 10.4232 15.4337 10.7765 15.4275 11.1299C15.4244 11.3747 15.4214 11.6196 15.4185 11.8644C15.4107 12.5092 15.4008 13.154 15.3905 13.7988C15.3803 14.4565 15.372 15.1143 15.3636 15.7722C15.3468 17.0632 15.3279 18.3541 15.3076 19.6451C14.9486 19.8359 14.7088 19.897 14.2999 19.898C14.1931 19.8983 14.0862 19.8986 13.9761 19.8989C13.8653 19.898 13.7544 19.8972 13.6402 19.8963C13.4745 19.8976 13.4745 19.8976 13.3055 19.8989C13.1985 19.8986 13.0916 19.8983 12.9813 19.898C12.8842 19.8978 12.7871 19.8975 12.687 19.8973C12.3419 19.8619 11.9884 19.7863 11.7356 19.5334C11.7198 19.1949 11.7113 18.8587 11.7074 18.5199C11.7057 18.4135 11.7041 18.3072 11.7024 18.1976C11.6971 17.844 11.6927 17.4905 11.6885 17.137C11.6853 16.8924 11.6822 16.6478 11.6791 16.4031C11.6726 15.8897 11.6667 15.3762 11.6611 14.8627C11.6537 14.2032 11.6443 13.5438 11.6343 12.8844C11.6271 12.379 11.6213 11.8736 11.616 11.3682C11.6132 11.125 11.6098 10.8818 11.6058 10.6386C11.6004 10.2991 11.5972 9.95966 11.5944 9.62012C11.5923 9.51879 11.5903 9.41746 11.5881 9.31306C11.5872 9.03364 11.5872 9.03364 11.624 8.59217C12.1898 8.21489 12.8573 8.33234 13.5216 8.33399Z" fill="#12ABDE"/>
<path d="M98.3564 10.4904C99.0424 10.8267 99.4463 11.3493 99.7094 12.0534C99.8624 12.628 99.8456 13.2142 99.8424 13.8049C99.8414 13.9843 99.8414 13.9843 99.8405 14.1673C99.8212 15.4216 99.6851 16.5619 98.8029 17.5241C98.3167 17.8372 97.7992 17.8314 97.2401 17.7473C96.5792 17.3556 96.2695 16.789 96.057 16.0693C95.9069 15.4293 95.8667 14.8238 95.8727 14.1677C95.8719 14.0732 95.871 13.9788 95.8701 13.8814C95.8733 12.837 96.1289 11.9417 96.682 11.0486C97.2063 10.5487 97.6322 10.3956 98.3564 10.4904Z" fill="white"/>
<path d="M79.8264 10.7136C80.3258 10.9356 80.6117 11.2394 80.8236 11.7427C81.0304 12.4238 81.1113 13.0452 81.1031 13.7559C81.102 13.9083 81.102 13.9083 81.101 14.0636C81.0746 15.2121 80.8647 16.2518 80.1612 17.189C79.6315 17.5111 79.2205 17.5549 78.622 17.503C78.2369 17.3615 78.0706 17.178 77.8171 16.8541C77.7358 16.4854 77.7415 16.1249 77.7469 15.7486C77.7466 15.6419 77.7464 15.5352 77.7461 15.4253C77.7462 15.2002 77.7477 14.9751 77.7505 14.75C77.7543 14.4064 77.7528 14.0631 77.7506 13.7195C77.7514 13.5004 77.7525 13.2812 77.7539 13.0621C77.7533 12.9598 77.7528 12.8576 77.7522 12.7523C77.767 11.943 78.008 11.5391 78.5706 10.9508C79.0534 10.6351 79.2579 10.6414 79.8264 10.7136Z" fill="white"/>
<path d="M33.5023 10.491C34.0779 10.7318 34.0779 10.7318 34.2837 10.9376C34.2978 11.2277 34.3048 11.5147 34.3064 11.805C34.307 11.8934 34.3076 11.9818 34.3083 12.0728C34.3094 12.261 34.3101 12.4492 34.3105 12.6373C34.3116 12.9209 34.315 13.2043 34.3186 13.4878C34.3336 15.7797 34.3336 15.7797 33.7395 16.7502C33.3772 17.0806 33.108 17.277 32.6163 17.3502C32.1635 17.2855 31.9504 17.1555 31.6047 16.8548C31.0889 16.0409 31.0262 15.3288 31.0256 14.3847C31.0243 14.2721 31.0229 14.1596 31.0215 14.0436C31.019 12.7421 31.2421 11.8581 32.1009 10.8622C32.5328 10.4432 32.9342 10.3837 33.5023 10.491Z" fill="white"/>
<path d="M14.7919 3.35963C14.9304 3.46194 15.0656 3.56888 15.1965 3.68061C15.2555 3.72911 15.3145 3.77761 15.3753 3.82758C15.7063 4.15215 15.7985 4.44866 15.8244 4.89476C15.7883 5.59961 15.4815 6.10097 14.9663 6.56944C14.8949 6.61089 14.8236 6.65234 14.75 6.69504C14.6864 6.73361 14.6228 6.77218 14.5573 6.81192C13.9782 7.05475 13.1986 7.02507 12.6034 6.84158C12.0782 6.56327 11.6659 6.10781 11.4013 5.57859C11.3105 4.96032 11.328 4.48267 11.7013 3.9667C12.4477 3.09541 13.7595 2.74712 14.7919 3.35963Z" fill="#12ABDE"/>
<path d="M56.2736 14.6214C56.3632 16.673 56.3632 16.673 55.8271 17.3009C55.464 17.6732 55.1176 17.8907 54.5922 17.9289C54.0348 17.8404 53.8676 17.7044 53.4829 17.3009C53.2779 16.6856 53.2729 16.0763 53.5318 15.4797C54.3467 14.6249 55.1238 14.5414 56.2736 14.6214Z" fill="white"/>
<path d="M124.365 9.48535C124.476 9.52219 124.586 9.55904 124.7 9.597C124.442 9.8549 124.185 10.1128 123.919 10.3785C123.919 9.94216 124.087 9.80734 124.365 9.48535Z" fill="#32D411"/>
</svg>
