<svg width="132" height="26" viewBox="0 0 132 26" fill="none" xmlns="http://www.w3.org/2000/svg">
<path d="M71.071 0.351781C71.163 0.373675 71.255 0.395568 71.3498 0.418125C72.0767 0.61237 72.8134 0.908288 73.3523 1.4473C73.3778 2.18512 73.1371 2.73226 72.8151 3.38016C72.7768 3.45761 72.7385 3.53506 72.699 3.61485C72.4841 4.02983 72.2836 4.40163 71.9012 4.68502C71.5641 4.74271 71.4049 4.72046 71.1081 4.55026C71.0314 4.49111 70.9547 4.43196 70.8757 4.37102C70.0141 3.76849 69.0422 3.52219 67.9944 3.68021C67.4337 3.86478 67.0073 4.11228 66.5851 4.52453C66.3214 5.18397 66.2865 5.84873 66.5315 6.52281C66.9961 7.32309 67.7865 7.78075 68.5525 8.25768C68.6267 8.30393 68.7009 8.35018 68.7774 8.39783C69.0859 8.5897 69.3947 8.78131 69.7039 8.97209C70.2817 9.3311 70.8193 9.72116 71.3431 10.1557C71.4559 10.2408 71.5687 10.326 71.6849 10.4138C72.7125 11.3541 73.5411 12.5233 73.6279 13.9455C73.6317 14.1382 73.6328 14.331 73.6314 14.5238C73.6308 14.6258 73.6301 14.7278 73.6295 14.8329C73.5937 16.209 73.2149 17.4108 72.2361 18.4174C72.1487 18.5094 72.1487 18.5094 72.0595 18.6032C70.5423 20.0431 68.4285 20.2753 66.4416 20.2644C64.4965 20.2121 62.8517 19.6453 61.3374 18.4069C61.1852 18.1941 61.1852 18.1941 61.1216 17.9024C61.2178 17.3311 61.5174 16.9201 61.8341 16.4427C61.8951 16.3473 61.9562 16.252 62.0192 16.1538C62.5493 15.3356 62.5493 15.3356 62.8596 15.0681C63.1234 15.0179 63.1234 15.0179 63.4177 15.0681C63.7016 15.2682 63.7016 15.2682 63.9968 15.5356C65.0475 16.4204 65.8474 16.7545 67.2182 16.6852C67.784 16.6158 68.1607 16.4912 68.5525 16.0729C68.9375 15.5434 68.9627 15.03 68.8873 14.3982C68.7157 13.5045 68.0984 12.9152 67.3694 12.4113C67.0528 12.2165 66.733 12.0293 66.4107 11.8443C64.3937 10.6511 62.5298 9.41932 61.8284 7.07493C61.7686 6.81441 61.7686 6.81441 61.6317 6.69464C61.511 4.84558 61.8479 3.51324 63.0271 2.06135C63.9529 1.05541 65.1264 0.544199 66.4316 0.219202C66.5333 0.190126 66.5333 0.190126 66.637 0.160463C68.0283 -0.144818 69.6998 0.0226761 71.071 0.351781Z" fill="#75C30A"/>
<path d="M32.4579 8.01352C33.2056 7.98284 33.7616 8.08451 34.4436 8.39425C34.8068 8.50414 35.028 8.44156 35.4002 8.36939C35.7607 8.34679 36.1205 8.34369 36.4816 8.34148C36.5769 8.33918 36.6722 8.33688 36.7705 8.3345C36.8621 8.33393 36.9536 8.33335 37.048 8.33276C37.1308 8.33172 37.2137 8.33067 37.299 8.3296C37.5893 8.38161 37.6735 8.47544 37.856 8.70433C37.8961 8.93011 37.8961 8.93011 37.8935 9.19335C37.8933 9.34332 37.8933 9.34332 37.893 9.49632C37.8911 9.60576 37.8892 9.7152 37.8873 9.82795C37.8866 9.94346 37.8859 10.059 37.8852 10.178C37.8825 10.5612 37.8774 10.9444 37.8721 11.3276C37.8695 11.5942 37.8671 11.8609 37.8648 12.1275C37.8595 12.6876 37.8531 13.2476 37.8458 13.8076C37.8366 14.5227 37.8297 15.2378 37.8237 15.953C37.8189 16.5044 37.813 17.0558 37.8067 17.6072C37.8038 17.8707 37.8012 18.1341 37.7989 18.3976C37.7954 18.7679 37.7905 19.1381 37.7853 19.5084C37.7841 19.6695 37.7841 19.6695 37.7829 19.8339C37.7546 21.5154 37.4308 23.3359 36.2025 24.5737C35.7781 24.9345 35.3432 25.2087 34.8421 25.4512C34.7489 25.4973 34.6556 25.5435 34.5596 25.5911C33.0769 26.2026 31.2093 26.0879 29.7327 25.5148C28.4136 24.8727 28.4136 24.8727 28.1446 24.3347C28.0255 23.3539 28.2668 22.365 28.8144 21.5436C29.3172 21.5182 29.7773 21.5245 30.2655 21.6552C30.5081 21.9222 30.6403 22.1812 30.7975 22.5048C30.9252 22.7973 30.9252 22.7973 31.2352 23.0089C31.9091 23.1869 32.5522 23.1985 33.2166 22.981C33.832 22.5306 34.0535 21.9411 34.1724 21.2086C34.1976 20.7615 34.1936 20.3165 34.1863 19.8689C34.1853 19.7504 34.1843 19.632 34.1833 19.51C34.1806 19.2202 34.177 18.9305 34.1724 18.6408C34.1225 18.6861 34.0727 18.7313 34.0213 18.778C33.1072 19.5884 32.2022 19.8454 30.9767 19.8078C30.1322 19.6943 29.4052 19.2451 28.8144 18.6408C27.9809 17.4678 27.4289 16.1023 27.447 14.6564C27.4482 14.5237 27.4482 14.5237 27.4495 14.3884C27.4843 12.4718 28.006 10.7087 29.4117 9.34237C30.3094 8.57988 31.2809 8.09711 32.4579 8.01352Z" fill="#0C9EEA"/>
<path d="M82.7568 8.78102C83.5757 9.4698 83.9903 10.2579 84.2916 11.2721C84.3316 11.3808 84.3716 11.4894 84.4129 11.6014C84.5984 12.2604 84.5515 12.9592 84.5498 13.6376C84.5516 13.7773 84.5534 13.9169 84.5552 14.0609C84.5561 15.7998 84.1261 17.3592 82.9033 18.6477C82.4737 19.0474 82.0455 19.3203 81.501 19.5339C81.418 19.5735 81.335 19.613 81.2494 19.6538C80.8597 19.7852 80.4917 19.7999 80.0848 19.799C80.006 19.799 79.9273 19.799 79.8462 19.799C79.0255 19.7812 78.3866 19.5413 77.7058 19.0873C77.7092 19.1753 77.7125 19.2633 77.716 19.354C77.7871 21.2385 77.8341 23.1183 77.8174 25.0045C77.4043 25.1939 77.0799 25.2564 76.6266 25.2575C76.5085 25.2577 76.3905 25.258 76.2688 25.2583C76.1467 25.2575 76.0246 25.2566 75.8989 25.2557C75.7755 25.2566 75.6521 25.2574 75.525 25.2583C75.4073 25.258 75.2897 25.2578 75.1685 25.2575C75.061 25.2572 74.9535 25.2569 74.8427 25.2567C74.5803 25.2278 74.5803 25.2278 74.357 25.0045C74.3281 24.7495 74.3281 24.7495 74.3267 24.4245C74.3256 24.3015 74.3245 24.1785 74.3234 24.0518C74.3234 23.9162 74.3233 23.7806 74.3232 23.6409C74.3223 23.4985 74.3213 23.3562 74.3204 23.2095C74.3183 22.8993 74.317 22.589 74.3162 22.2787C74.3149 21.7868 74.312 21.2949 74.309 20.8029C74.3043 20.0231 74.3007 19.2432 74.2976 18.4634C74.2919 17.0717 74.2849 15.6801 74.2769 14.2885C74.2741 13.801 74.2719 13.3135 74.2702 12.826C74.2694 12.5943 74.2683 12.3627 74.2671 12.1311C74.2656 11.8507 74.2645 11.5704 74.2639 11.29C74.259 10.4884 74.215 9.70015 74.1357 8.90231C74.1351 8.80011 74.1344 8.69791 74.1338 8.59262C74.6124 8.11388 75.4588 8.23373 76.1012 8.22977C76.1956 8.22747 76.29 8.22517 76.3872 8.22279C76.7829 8.2203 77.0724 8.22278 77.4346 8.3907C77.6497 8.66288 77.6399 8.82892 77.6221 9.17178C77.618 9.27238 77.614 9.37298 77.6099 9.47663C77.6021 9.59169 77.6021 9.59169 77.5942 9.70908C77.6678 9.70908 77.7415 9.70908 77.8174 9.70908C77.8597 9.60912 77.8597 9.60912 77.9029 9.50715C78.2381 8.91196 78.9898 8.51119 79.6034 8.25768C80.7858 7.97489 81.6987 8.23155 82.7568 8.78102Z" fill="#75C30A"/>
<path d="M2.60341 0.533087C2.69888 0.53162 2.79434 0.530154 2.8927 0.528644C3.46565 0.52792 3.93914 0.584536 4.48011 0.777311C4.59173 0.888957 4.59173 0.888957 4.60547 1.14854C4.60536 1.26453 4.60526 1.38051 4.60515 1.50001C4.60531 1.63262 4.60546 1.76523 4.60562 1.90186C4.60502 2.12205 4.60502 2.12205 4.6044 2.3467C4.60437 2.50181 4.60439 2.65692 4.60445 2.81202C4.60448 3.23437 4.60383 3.65671 4.60305 4.07905C4.60235 4.51995 4.60228 4.96086 4.60215 5.40177C4.6018 6.23725 4.60089 7.07273 4.59977 7.90822C4.59852 8.85914 4.59791 9.81007 4.59735 10.761C4.59618 12.7177 4.59421 14.6743 4.59173 16.631C4.70632 16.6276 4.82091 16.6242 4.93898 16.6207C5.37462 16.6079 5.81028 16.5956 6.24593 16.5833C6.43252 16.578 6.61911 16.5725 6.80569 16.567C7.44436 16.5482 8.08303 16.5321 8.72185 16.5193C8.86482 16.5164 8.86482 16.5164 9.01068 16.5133C9.29026 16.5082 9.56981 16.5047 9.84943 16.5019C9.97766 16.4994 9.97766 16.4994 10.1085 16.4969C10.3161 16.4957 10.5238 16.5065 10.7311 16.5193C11.1298 16.9181 11.0004 17.5288 11.0032 18.0684C11.0068 18.1915 11.0105 18.3145 11.0143 18.4413C11.0151 18.5597 11.0159 18.6782 11.0167 18.8002C11.0189 18.963 11.0189 18.963 11.0212 19.129C10.9543 19.4221 10.9543 19.4221 10.7317 19.6602C10.2954 19.9313 9.92409 19.9307 9.4262 19.9247C9.28154 19.9256 9.28154 19.9256 9.13396 19.9265C8.81603 19.9279 8.49821 19.9261 8.18029 19.9241C7.95915 19.9241 7.73802 19.9243 7.51688 19.9246C7.0539 19.9247 6.59096 19.9233 6.12799 19.9208C5.53402 19.9176 4.94011 19.9179 4.34613 19.9193C3.88974 19.9201 3.43337 19.9192 2.97698 19.9179C2.75793 19.9174 2.53887 19.9173 2.31981 19.9178C2.01409 19.9181 1.70845 19.9162 1.40274 19.9138C1.31193 19.9143 1.22111 19.9148 1.12754 19.9153C0.520821 19.9073 0.520821 19.9073 0.237647 19.7228C0.0436665 19.3922 0.0880677 19.0262 0.0988347 18.6545C0.101297 18.5277 0.101297 18.5277 0.103809 18.3983C0.116346 17.833 0.137686 17.269 0.167947 16.7044C0.234752 15.4538 0.256582 14.2067 0.257115 12.9545C0.257476 12.748 0.257852 12.5415 0.258241 12.335C0.258902 11.9048 0.259117 11.4745 0.25905 11.0443C0.259041 10.6135 0.259805 10.1828 0.261339 9.75207C0.263579 9.11696 0.264483 8.48186 0.264092 7.84674C0.264042 7.74309 0.263992 7.63944 0.263941 7.53265C0.261873 6.38028 0.239946 5.2319 0.175413 4.08121C0.16971 3.97939 0.164006 3.87757 0.15813 3.77266C0.130174 3.28877 0.0991422 2.80529 0.0640388 2.32187C0.0583584 2.23489 0.052678 2.14791 0.0468255 2.0583C0.0362657 1.8967 0.0243061 1.73518 0.0106759 1.57381C-0.00884738 1.26028 -0.0206534 1.05546 0.154121 0.787427C0.793812 0.389766 1.8656 0.540281 2.60341 0.533087Z" fill="#0C9EEA"/>
<path d="M100.988 8.98769C102.109 9.79195 102.882 10.9213 103.184 12.2629C103.502 14.3294 103.319 16.3563 102.08 18.0824C101.445 18.8905 100.746 19.3535 99.8075 19.7571C99.7311 19.793 99.6547 19.8288 99.5759 19.8657C98.3418 20.3712 96.6825 20.1726 95.4541 19.7571C94.0135 19.0642 93.2627 17.9615 92.6635 16.5194C92.1422 14.8666 92.2258 12.8291 92.9984 11.2721C93.366 10.6388 93.7926 10.0882 94.3379 9.59738C94.3948 9.54255 94.4518 9.48771 94.5105 9.43122C96.2211 7.84981 99.0529 7.83215 100.988 8.98769Z" fill="#75C30A"/>
<path d="M58.3198 8.98597C59.1988 9.76244 59.6368 10.5385 59.7343 11.7187C59.7526 12.1687 59.7574 12.6185 59.7617 13.0689C59.7654 13.3316 59.7691 13.5943 59.7728 13.8569C59.7781 14.2678 59.7831 14.6786 59.7875 15.0895C59.7919 15.4882 59.7977 15.8869 59.8036 16.2857C59.8045 16.4077 59.8055 16.5297 59.8064 16.6554C59.8184 17.4003 59.8467 18.1076 60.2017 18.7802C60.2924 18.9756 60.2924 18.9756 60.2658 19.1924C60.1615 19.4743 60.0516 19.5567 59.804 19.7223C59.7364 19.7687 59.6688 19.8152 59.5991 19.8631C59.0249 20.2004 58.3684 20.1381 57.725 20.0921C57.1414 19.9045 56.8945 19.6259 56.6088 19.0873C56.6088 18.9399 56.6088 18.7925 56.6088 18.6407C56.5351 18.6407 56.4614 18.6407 56.3855 18.6407C56.3582 18.7073 56.3308 18.774 56.3027 18.8426C56.046 19.2899 55.5942 19.5037 55.1576 19.7571C55.091 19.7959 55.0244 19.8346 54.9558 19.8745C54.1342 20.2606 52.8529 20.2462 51.9903 19.9874C51.1164 19.5737 50.4247 18.8559 50.0922 17.9538C50.0694 17.8857 50.0465 17.8177 50.0229 17.7475C49.9861 17.6738 49.9492 17.6001 49.9113 17.5242C49.7931 16.4078 50.0635 15.5536 50.7136 14.6494C51.5786 13.6033 52.9231 12.9668 54.2646 12.8351C54.9344 12.8116 55.6041 12.822 56.2739 12.8351C56.2549 12.0141 56.2549 12.0141 55.9599 11.2651C55.4355 10.8005 54.9852 10.7726 54.3004 10.781C53.5979 10.8653 52.993 11.1823 52.367 11.4954C52.0461 11.5372 52.0461 11.5372 51.6973 11.4954C51.467 11.2791 51.467 11.2791 51.2508 10.9371C51.1996 10.8576 51.1483 10.778 51.0955 10.696C50.6941 10.0352 50.6941 10.0352 50.6887 9.64668C50.8565 9.25082 51.1405 9.13996 51.5159 8.97637C51.6262 8.92682 51.6262 8.92682 51.7388 8.87626C53.7162 8.03765 56.4565 7.64188 58.3198 8.98597Z" fill="#0C9EEA"/>
<path d="M25.466 8.73227C26.2528 9.33053 26.5747 10.2016 26.7575 11.1437C26.8566 11.8764 26.8369 12.617 26.8347 13.3551C26.8349 13.5332 26.8351 13.7113 26.8354 13.8894C26.8357 14.2602 26.8352 14.631 26.8342 15.0019C26.8329 15.4777 26.8336 15.9534 26.835 16.4292C26.8358 16.7958 26.8355 17.1625 26.8349 17.5291C26.8348 17.7047 26.835 17.8802 26.8355 18.0558C26.8361 18.3 26.8352 18.5442 26.834 18.7884C26.8338 18.9274 26.8336 19.0663 26.8334 19.2095C26.8051 19.534 26.8051 19.534 26.5818 19.7573C25.953 19.9165 25.3007 19.8894 24.6563 19.8898C24.4879 19.8919 24.4879 19.8919 24.3162 19.894C24.1556 19.8943 24.1556 19.8943 23.9918 19.8946C23.8456 19.8953 23.8456 19.8953 23.6965 19.896C23.4563 19.8689 23.4563 19.8689 23.2331 19.6456C23.2042 19.3351 23.2042 19.3351 23.2028 18.934C23.2022 18.861 23.2016 18.788 23.201 18.7128C23.1999 18.554 23.1992 18.3953 23.199 18.2365C23.1986 17.9849 23.1968 17.7334 23.1945 17.4818C23.1883 16.7664 23.1849 16.051 23.1821 15.3356C23.1804 14.8981 23.177 14.4606 23.1727 14.0231C23.1714 13.8567 23.1707 13.6902 23.1707 13.5237C23.1707 13.2902 23.1686 13.0567 23.1662 12.8231C23.1656 12.6904 23.165 12.5577 23.1645 12.421C23.1159 12.0059 23.0053 11.7384 22.7866 11.3839C22.3949 11.1227 22.2429 11.1145 21.782 11.1606C21.2474 11.3562 21.0531 11.7292 20.79 12.2051C20.4255 13.0711 20.4097 13.8885 20.408 14.8161C20.4052 15.092 20.4024 15.3679 20.3995 15.6438C20.3963 16.0768 20.3936 16.5097 20.3915 16.9427C20.3891 17.3619 20.3847 17.7811 20.3801 18.2003C20.3801 18.3307 20.3801 18.4611 20.3801 18.5954C20.3786 18.7154 20.3771 18.8354 20.3756 18.9591C20.3747 19.118 20.3747 19.118 20.3738 19.28C20.3596 19.3638 20.3455 19.4476 20.3308 19.534C19.9322 19.7998 19.7563 19.7847 19.2835 19.783C19.144 19.7828 19.0046 19.7826 18.861 19.7823C18.7152 19.781 18.5694 19.7796 18.4193 19.7782C18.2726 19.7781 18.126 19.7781 17.9749 19.778C16.8861 19.7729 16.8861 19.7729 16.7588 19.6456C16.7448 19.299 16.7381 18.9548 16.7359 18.6081C16.7348 18.4992 16.7337 18.3903 16.7326 18.278C16.729 17.9162 16.7263 17.5543 16.7235 17.1925C16.7212 16.9423 16.7189 16.6922 16.7165 16.442C16.7103 15.7822 16.7048 15.1223 16.6994 14.4625C16.6938 13.7897 16.6876 13.117 16.6814 12.4443C16.6694 11.1232 16.6581 9.80214 16.6472 8.48107C17.3359 8.27795 17.9156 8.22042 18.6286 8.22289C18.734 8.22109 18.8395 8.21929 18.9482 8.21744C19.0999 8.21733 19.0999 8.21733 19.2547 8.21722C19.3462 8.21689 19.4377 8.21656 19.5319 8.21621C19.8314 8.26791 19.93 8.34879 20.1076 8.59272C20.1403 8.96734 20.1403 8.96734 20.1285 9.39517C20.1255 9.53722 20.1225 9.67926 20.1194 9.82561C20.1155 9.93456 20.1116 10.0435 20.1076 10.1558C20.1813 10.1558 20.2549 10.1558 20.3308 10.1558C20.3595 10.0911 20.3881 10.0265 20.4176 9.95994C20.8743 9.12077 21.7647 8.47302 22.6688 8.18975C23.6979 7.99407 24.5837 8.18182 25.466 8.73227Z" fill="#0C9EEA"/>
<path d="M105.152 8.45131C105.28 8.45102 105.408 8.45074 105.541 8.45044C105.742 8.45173 105.742 8.45173 105.947 8.45306C106.081 8.45219 106.215 8.45133 106.353 8.45044C106.546 8.45087 106.546 8.45087 106.742 8.45131C106.919 8.45169 106.919 8.45169 107.099 8.45207C107.398 8.48097 107.398 8.48097 107.733 8.70426C107.773 8.99288 107.773 8.99288 107.769 9.36287C107.769 9.50115 107.768 9.63943 107.768 9.7819C107.766 9.93367 107.764 10.0854 107.762 10.2372C107.761 10.3927 107.76 10.5482 107.76 10.7037C107.758 11.114 107.754 11.5243 107.75 11.9346C107.743 12.5893 107.739 13.244 107.735 13.8987C107.734 14.1267 107.732 14.3547 107.729 14.5827C107.727 14.7928 107.727 14.7928 107.726 15.0071C107.724 15.1909 107.724 15.1909 107.722 15.3784C107.738 15.9112 107.761 16.372 108.026 16.8404C108.382 17.1589 108.597 17.1975 109.073 17.1893C109.79 16.8303 110.058 16.3055 110.317 15.5716C110.554 14.8327 110.589 14.146 110.588 13.3746C110.59 13.1734 110.59 13.1734 110.593 12.9681C110.597 12.5447 110.599 12.1213 110.6 11.6978C110.604 11.2699 110.607 10.8421 110.612 10.4142C110.614 10.1491 110.616 9.88391 110.617 9.61876C110.618 9.50015 110.619 9.38155 110.619 9.25935C110.62 9.15455 110.62 9.04976 110.621 8.94179C110.635 8.70426 110.635 8.70426 110.747 8.59261C111.206 8.56829 111.666 8.57187 112.126 8.57192C112.357 8.57168 112.588 8.56965 112.819 8.56754C113.036 8.56721 113.036 8.56721 113.258 8.56688C113.392 8.56642 113.525 8.56596 113.663 8.56549C113.984 8.59261 113.984 8.59261 114.207 8.8159C114.238 9.15485 114.238 9.15485 114.241 9.59674C114.242 9.67721 114.243 9.75769 114.244 9.8406C114.247 10.1083 114.248 10.376 114.25 10.6437C114.251 10.831 114.253 11.0183 114.255 11.2057C114.26 11.7013 114.264 12.197 114.268 12.6927C114.274 13.4792 114.281 14.2656 114.289 15.0521C114.291 15.3238 114.293 15.5956 114.295 15.8673C114.305 17.092 114.357 18.3114 114.43 19.5339C113.782 19.9441 113.274 19.9264 112.519 19.9246C112.335 19.9294 112.335 19.9294 112.148 19.9342C111.972 19.9347 111.972 19.9347 111.792 19.9351C111.686 19.9359 111.579 19.9367 111.468 19.9375C111.193 19.8688 111.193 19.8688 110.992 19.6042C110.851 19.2939 110.804 19.0563 110.782 18.7175C110.774 18.6189 110.767 18.5203 110.76 18.4187C110.753 18.3075 110.753 18.3075 110.747 18.1941C110.672 18.2831 110.672 18.2831 110.596 18.3738C109.74 19.3736 108.872 19.9904 107.536 20.1226C106.698 20.1517 106.071 20.0416 105.389 19.5339C104.313 18.4657 104.052 17.0904 104.022 15.6154C104.022 15.3774 104.022 15.1394 104.024 14.9015C104.024 14.7732 104.024 14.645 104.024 14.5129C104.024 14.2437 104.025 13.9744 104.026 13.7051C104.028 13.2975 104.029 12.8899 104.029 12.4823C104.033 9.28826 104.033 9.28826 104.161 8.70426C104.547 8.44721 104.697 8.45228 105.152 8.45131Z" fill="#75C30A"/>
<path d="M39.9764 8.45131C40.1771 8.45088 40.1771 8.45088 40.3817 8.45044C40.5221 8.4513 40.6625 8.45217 40.8071 8.45306C41.017 8.45176 41.017 8.45176 41.2311 8.45044C41.365 8.45073 41.4989 8.45102 41.6369 8.45131C41.76 8.45156 41.883 8.45182 42.0099 8.45207C42.321 8.48097 42.321 8.48097 42.6559 8.70426C42.6626 9.05843 42.6483 9.3918 42.621 9.74396C42.5539 10.8763 42.5234 12.0063 42.518 13.1404C42.5169 13.3211 42.5152 13.5019 42.5127 13.6826C42.4368 15.3969 42.4368 15.3969 43.0312 16.943C43.3543 17.1811 43.7279 17.1297 44.107 17.0777C44.528 16.9246 44.6527 16.7614 44.9023 16.3869C45.605 14.807 45.4996 12.974 45.5093 11.2861C45.5119 10.9181 45.5151 10.5501 45.5195 10.1822C45.5222 9.95507 45.5239 9.72794 45.5244 9.5008C45.5255 9.39929 45.5267 9.29778 45.5278 9.1932C45.5283 9.10388 45.5288 9.01456 45.5293 8.92254C45.5581 8.70426 45.5581 8.70426 45.7814 8.48097C46.0678 8.45207 46.0678 8.45207 46.4263 8.45131C46.6193 8.45088 46.6193 8.45088 46.8163 8.45044C47.0189 8.45173 47.0189 8.45173 47.2255 8.45306C47.3601 8.45219 47.4947 8.45133 47.6334 8.45044C47.7623 8.45073 47.8911 8.45102 48.0239 8.45131C48.1423 8.45156 48.2607 8.45182 48.3827 8.45207C48.6836 8.48097 48.6836 8.48097 49.0185 8.70426C49.0532 8.97943 49.0662 9.22718 49.065 9.50281C49.0659 9.58508 49.0669 9.66735 49.0679 9.75211C49.0707 10.0252 49.0712 10.2982 49.0717 10.5713C49.0733 10.7613 49.075 10.9513 49.077 11.1413C49.0816 11.6429 49.0844 12.1445 49.0867 12.6461C49.0907 13.4462 49.0976 14.2463 49.1044 15.0464C49.1065 15.325 49.1078 15.6036 49.109 15.8821C49.1138 16.6971 49.1315 17.4969 49.2417 18.3058C49.2485 18.5499 49.2515 18.7942 49.2487 19.0384C49.2477 19.1537 49.2467 19.269 49.2457 19.3878C49.2444 19.4728 49.2431 19.5579 49.2417 19.6455C48.8286 19.8349 48.5043 19.8974 48.0509 19.8985C47.8738 19.8989 47.8738 19.8989 47.6932 19.8993C47.5711 19.8985 47.449 19.8976 47.3232 19.8967C47.1998 19.8976 47.0764 19.8984 46.9493 19.8993C46.8317 19.899 46.714 19.8988 46.5928 19.8985C46.4853 19.8982 46.3778 19.898 46.267 19.8977C46.0046 19.8688 46.0046 19.8688 45.7814 19.6455C45.7107 19.3306 45.7107 19.3306 45.6558 18.9617C45.6277 18.7782 45.6277 18.7782 45.5991 18.591C45.5856 18.4969 45.5721 18.4027 45.5581 18.3058C45.5147 18.3625 45.4712 18.4192 45.4264 18.4776C44.803 19.2449 43.9811 19.894 42.9907 20.0921C41.9232 20.1766 41.0291 20.0932 40.1722 19.4152C39.3265 18.6132 39.02 17.5414 38.952 16.4036C38.9448 16.0263 38.9442 15.6495 38.9465 15.2722C38.9466 15.1337 38.9466 14.9953 38.9467 14.8526C38.947 14.561 38.9479 14.2694 38.9493 13.9778C38.9513 13.5358 38.9516 13.0939 38.9515 12.652C38.9521 12.367 38.9527 12.0821 38.9535 11.7972C38.9537 11.6021 38.9537 11.6021 38.9539 11.403C38.9706 8.45337 38.9706 8.45337 39.9764 8.45131Z" fill="#0C9EEA"/>
<path d="M118.519 4.55234C118.625 4.55097 118.732 4.5496 118.841 4.54819C118.995 4.54787 118.995 4.54787 119.151 4.54754C119.244 4.54708 119.337 4.54662 119.432 4.54615C119.677 4.57327 119.677 4.57327 120.012 4.79656C120.048 5.11798 120.048 5.11798 120.04 5.52923C120.038 5.63837 120.038 5.63837 120.036 5.74972C120.017 6.62392 119.96 7.49701 119.9 8.36922C119.981 8.36863 120.061 8.36805 120.144 8.36744C120.507 8.36513 120.87 8.36367 121.233 8.36224C121.359 8.3613 121.486 8.36037 121.617 8.3594C121.737 8.35904 121.858 8.35868 121.982 8.35831C122.15 8.35744 122.15 8.35744 122.32 8.35654C122.579 8.36922 122.579 8.36922 122.691 8.48086C122.705 8.79617 122.711 9.10752 122.712 9.42287C122.713 9.51102 122.714 9.59917 122.716 9.68999C122.716 9.91976 122.704 10.1495 122.691 10.3788C122.467 10.6021 122.467 10.6021 122.186 10.6275C122.07 10.6263 121.954 10.6251 121.835 10.6239C121.71 10.6232 121.585 10.6225 121.456 10.6218C121.325 10.6199 121.193 10.618 121.058 10.6161C120.926 10.6151 120.794 10.6141 120.658 10.613C120.331 10.6104 120.004 10.6067 119.677 10.6021C119.684 11.4147 119.694 12.2271 119.706 13.0396C119.71 13.3158 119.713 13.5921 119.715 13.8683C119.719 14.2661 119.725 14.6637 119.731 15.0614C119.732 15.1844 119.733 15.3073 119.733 15.434C119.746 16.1004 119.792 16.6045 120.123 17.1892C120.383 17.3191 120.546 17.3194 120.835 17.3218C120.921 17.3234 121.007 17.325 121.096 17.3266C121.377 17.2983 121.549 17.2058 121.798 17.0776C122.303 17.1363 122.303 17.1363 122.467 17.3009C122.491 17.6121 122.504 17.9172 122.509 18.2289C122.516 18.3583 122.516 18.3583 122.522 18.4904C122.532 19.1284 122.532 19.1284 122.222 19.467C121.03 20.1461 119.725 20.2704 118.384 20.0431C117.646 19.8103 116.993 19.228 116.621 18.5569C116.197 17.5448 116.185 16.472 116.195 15.3911C116.195 15.2565 116.195 15.122 116.196 14.9834C116.197 14.558 116.2 14.1326 116.202 13.7073C116.204 13.417 116.205 13.1268 116.206 12.8366C116.208 12.129 116.212 11.4214 116.216 10.7138C116.132 10.7164 116.047 10.719 115.96 10.7216C115.849 10.7236 115.738 10.7257 115.623 10.7277C115.458 10.7316 115.458 10.7316 115.29 10.7356C114.989 10.7138 114.989 10.7138 114.654 10.4905C114.62 10.1644 114.607 9.86716 114.612 9.54149C114.611 9.45385 114.609 9.3662 114.608 9.2759C114.609 9.02164 114.609 9.02164 114.654 8.59251C115.059 8.32218 115.255 8.34574 115.735 8.35526C115.867 8.35728 115.998 8.35929 116.134 8.36137C116.235 8.36396 116.336 8.36655 116.44 8.36922C116.439 8.29611 116.439 8.223 116.438 8.14767C116.436 7.81215 116.434 7.47664 116.433 7.14112C116.432 7.02613 116.431 6.91113 116.43 6.79266C116.428 6.1545 116.436 5.53691 116.551 4.90821C117.042 4.4178 117.868 4.55278 118.519 4.55234Z" fill="#75C30A"/>
<path d="M131.844 9.37407C131.776 9.87362 131.584 10.2468 131.341 10.6859C131.271 10.8143 131.201 10.9426 131.129 11.0749C130.951 11.3837 130.951 11.3837 130.839 11.4953C130.37 11.546 130.146 11.4442 129.772 11.1674C129.223 10.7652 128.831 10.6949 128.153 10.6789C128.037 10.6747 127.92 10.6706 127.8 10.6663C127.48 10.6845 127.48 10.6845 127.284 10.9162C127.131 11.1694 127.131 11.1694 127.121 11.5302C127.457 12.4766 128.657 12.8749 129.495 13.3179C130.475 13.8578 131.263 14.587 131.844 15.5495C132.093 16.4676 132.062 17.4516 131.62 18.3057C131.069 19.2153 130.065 19.7398 129.066 20.0444C128.579 20.1425 128.077 20.1127 127.581 20.113C127.469 20.1143 127.357 20.1157 127.242 20.1171C126.153 20.1192 125.295 19.9361 124.33 19.4361C124.215 19.3793 124.215 19.3793 124.097 19.3214C123.672 19.1057 123.344 18.8938 123.025 18.529C123.172 18.0101 123.378 17.6399 123.702 17.2102C123.782 17.1035 123.861 16.9969 123.943 16.887C124.223 16.5255 124.223 16.5255 124.49 16.4705C124.847 16.5248 124.922 16.5911 125.181 16.8264C125.912 17.4881 126.523 17.7181 127.521 17.6777C127.846 17.6477 127.846 17.6477 128.195 17.4684C128.419 17.1862 128.419 17.1862 128.418 16.7636C128.285 16.1395 127.894 15.8541 127.379 15.5146C126.962 15.271 126.537 15.0409 126.112 14.8105C124.994 14.2008 124.005 13.5424 123.584 12.2768C123.497 11.368 123.445 10.5552 124.042 9.81236C126.139 7.68034 129.457 7.75714 131.844 9.37407Z" fill="#75C30A"/>
<path d="M91.7705 8.11104C91.8626 8.10686 91.9547 8.10269 92.0495 8.09839C92.4511 8.1668 92.6191 8.28505 92.8867 8.59251C92.9163 8.93438 92.9155 9.19949 92.8798 9.53452C92.8738 9.61835 92.8678 9.70218 92.8617 9.78855C92.8238 10.2413 92.7675 10.6411 92.5519 11.0487C92.2736 11.1618 92.0417 11.1639 91.7443 11.142C91.0658 11.102 90.6446 11.1998 90.0939 11.6082C89.4876 12.2171 89.191 13.0552 89.1855 13.9003C89.1838 14.0903 89.1838 14.0903 89.182 14.2841C89.1812 14.4209 89.1804 14.5576 89.1796 14.6986C89.1764 14.9865 89.1732 15.2744 89.17 15.5623C89.1652 16.0175 89.1611 16.4728 89.1583 16.9281C89.1555 17.3665 89.1501 17.8049 89.1447 18.2433C89.1443 18.3803 89.144 18.5173 89.1436 18.6584C89.1417 18.7848 89.1399 18.9111 89.138 19.0412C89.1371 19.1527 89.1362 19.2643 89.1352 19.3792C89.1208 19.4671 89.1064 19.5549 89.0915 19.6454C88.6998 19.9066 88.5357 19.8974 88.0725 19.8984C87.8716 19.8988 87.8716 19.8988 87.6668 19.8992C87.5268 19.8984 87.3869 19.8975 87.2427 19.8966C87.1023 19.8975 86.962 19.8983 86.8174 19.8992C86.6836 19.8989 86.5499 19.8987 86.4121 19.8984C86.2276 19.898 86.2276 19.898 86.0394 19.8976C85.7428 19.8687 85.7428 19.8687 85.5195 19.6454C85.4964 19.3674 85.4871 19.1015 85.4875 18.8232C85.4867 18.7384 85.4859 18.6536 85.4851 18.5662C85.4836 18.3815 85.4826 18.1968 85.482 18.0121C85.4811 17.7185 85.4788 17.425 85.4762 17.1315C85.4708 16.5064 85.4671 15.8814 85.4637 15.2563C85.4597 14.5359 85.455 13.8156 85.4485 13.0952C85.4463 12.8082 85.4454 12.5212 85.4445 12.2343C85.4385 11.3296 85.4004 10.4645 85.2321 9.57189C85.1814 9.24109 85.1769 8.92666 85.1846 8.59251C85.8748 8.2857 86.4896 8.22106 87.2357 8.2157C87.3692 8.21344 87.3692 8.21344 87.5054 8.21112C88.1463 8.21603 88.1463 8.21603 88.3863 8.40689C88.6975 8.79959 88.6567 9.19449 88.652 9.67407C88.651 9.80576 88.65 9.93744 88.6489 10.0731C88.6476 10.174 88.6463 10.2749 88.645 10.3788C88.9172 10.2716 88.9172 10.2716 89.0566 9.86247C89.393 9.16319 89.9489 8.59173 90.6542 8.25757C91.02 8.14261 91.3891 8.12799 91.7705 8.11104Z" fill="#75C30A"/>
<path d="M13.5216 8.33448C13.6663 8.33268 13.8111 8.33088 13.9602 8.32903C14.0987 8.32895 14.2371 8.32888 14.3797 8.32881C14.5703 8.32831 14.5703 8.32831 14.7647 8.3278C15.1278 8.37502 15.2007 8.42205 15.4192 8.7043C15.4587 8.91639 15.4587 8.91639 15.4552 9.15995C15.4548 9.25247 15.4543 9.345 15.4538 9.44032C15.4515 9.54143 15.4493 9.64253 15.447 9.7467C15.4459 9.85346 15.4449 9.96023 15.4438 10.0702C15.44 10.4237 15.4337 10.777 15.4275 11.1304C15.4244 11.3752 15.4214 11.6201 15.4185 11.8649C15.4107 12.5097 15.4008 13.1545 15.3905 13.7993C15.3803 14.457 15.372 15.1148 15.3636 15.7726C15.3468 17.0636 15.3279 18.3546 15.3076 19.6456C14.9486 19.8364 14.7088 19.8974 14.2999 19.8985C14.1931 19.8988 14.0862 19.8991 13.9761 19.8994C13.8653 19.8985 13.7544 19.8977 13.6402 19.8968C13.4745 19.8981 13.4745 19.8981 13.3055 19.8994C13.1985 19.8991 13.0916 19.8988 12.9813 19.8985C12.8842 19.8983 12.7871 19.898 12.687 19.8977C12.3419 19.8623 11.9884 19.7867 11.7356 19.5339C11.7198 19.1954 11.7113 18.8592 11.7074 18.5204C11.7057 18.414 11.7041 18.3077 11.7024 18.1981C11.6971 17.8445 11.6927 17.491 11.6885 17.1375C11.6853 16.8929 11.6822 16.6482 11.6791 16.4036C11.6726 15.8901 11.6667 15.3766 11.6611 14.8631C11.6537 14.2037 11.6443 13.5443 11.6343 12.8849C11.6271 12.3795 11.6213 11.8741 11.616 11.3687C11.6132 11.1255 11.6098 10.8823 11.6058 10.6391C11.6004 10.2996 11.5972 9.96015 11.5944 9.62061C11.5923 9.51928 11.5903 9.41795 11.5881 9.31354C11.5872 9.03413 11.5872 9.03413 11.624 8.59266C12.1898 8.21538 12.8573 8.33283 13.5216 8.33448Z" fill="#0C9EEA"/>
<path d="M98.3564 10.4906C99.0424 10.827 99.4463 11.3496 99.7094 12.0537C99.8624 12.6283 99.8456 13.2144 99.8424 13.8051C99.8414 13.9845 99.8414 13.9845 99.8405 14.1676C99.8212 15.4219 99.6851 16.5621 98.8029 17.5243C98.3167 17.8374 97.7992 17.8316 97.2401 17.7476C96.5792 17.3559 96.2695 16.7892 96.057 16.0696C95.9069 15.4295 95.8667 14.8241 95.8727 14.168C95.8719 14.0735 95.871 13.979 95.8701 13.8817C95.8733 12.8372 96.1289 11.9419 96.682 11.0489C97.2063 10.5489 97.6322 10.3959 98.3564 10.4906Z" fill="white"/>
<path d="M79.8268 10.7138C80.3263 10.9359 80.6122 11.2396 80.8241 11.743C81.0309 12.424 81.1118 13.0455 81.1035 13.7562C81.1025 13.9085 81.1025 13.9085 81.1015 14.0639C81.0751 15.2123 80.8652 16.2521 80.1617 17.1893C79.632 17.5113 79.221 17.5551 78.6225 17.5033C78.2374 17.3617 78.0711 17.1783 77.8176 16.8543C77.7363 16.4857 77.742 16.1251 77.7474 15.7488C77.7471 15.6421 77.7469 15.5355 77.7466 15.4256C77.7467 15.2005 77.7482 14.9753 77.751 14.7502C77.7548 14.4066 77.7533 14.0634 77.7511 13.7198C77.7519 13.5006 77.7529 13.2815 77.7544 13.0623C77.7538 12.9601 77.7533 12.8578 77.7527 12.7525C77.7675 11.9433 78.0084 11.5394 78.5711 10.9511C79.0539 10.6353 79.2584 10.6417 79.8268 10.7138Z" fill="white"/>
<path d="M33.5023 10.4905C34.0779 10.7313 34.0779 10.7313 34.2837 10.9371C34.2978 11.2273 34.3048 11.5143 34.3064 11.8046C34.307 11.8929 34.3076 11.9813 34.3083 12.0723C34.3094 12.2605 34.3101 12.4487 34.3105 12.6369C34.3116 12.9204 34.315 13.2038 34.3186 13.4873C34.3336 15.7792 34.3336 15.7792 33.7395 16.7497C33.3772 17.0801 33.108 17.2765 32.6163 17.3498C32.1635 17.2851 31.9504 17.155 31.6047 16.8543C31.0889 16.0404 31.0262 15.3283 31.0256 14.3842C31.0243 14.2716 31.0229 14.1591 31.0215 14.0431C31.019 12.7416 31.2421 11.8576 32.1009 10.8617C32.5328 10.4427 32.9342 10.3832 33.5023 10.4905Z" fill="white"/>
<path d="M14.7914 3.35914C14.9299 3.46145 15.0651 3.56839 15.196 3.68012C15.255 3.72862 15.314 3.77713 15.3748 3.8271C15.7058 4.15166 15.798 4.44817 15.8239 4.89427C15.7878 5.59913 15.481 6.10048 14.9658 6.56895C14.8945 6.6104 14.8231 6.65185 14.7496 6.69455C14.686 6.73312 14.6224 6.77169 14.5568 6.81143C13.9777 7.05426 13.1982 7.02458 12.603 6.84109C12.0778 6.56278 11.6654 6.10732 11.4008 5.5781C11.31 4.95984 11.3275 4.48218 11.7008 3.96622C12.4472 3.09492 13.759 2.74663 14.7914 3.35914Z" fill="#0C9EEA"/>
<path d="M56.274 14.6214C56.3637 16.673 56.3637 16.673 55.8275 17.3009C55.4645 17.6732 55.1181 17.8907 54.5927 17.9289C54.0353 17.8404 53.868 17.7044 53.4834 17.3009C53.2784 16.6856 53.2734 16.0763 53.5323 15.4797C54.3472 14.6249 55.1243 14.5414 56.274 14.6214Z" fill="white"/>
<path d="M124.365 9.48584C124.475 9.52268 124.586 9.55953 124.7 9.59749C124.442 9.85539 124.184 10.1133 123.918 10.379C123.918 9.94265 124.087 9.80783 124.365 9.48584Z" fill="#75C30A"/>
</svg>
