<svg width="132" height="26" viewBox="0 0 132 26" fill="none" xmlns="http://www.w3.org/2000/svg">
<path d="M71.0705 0.351781C71.1625 0.373675 71.2545 0.395568 71.3493 0.418125C72.0762 0.61237 72.8129 0.908288 73.3519 1.4473C73.3773 2.18512 73.1366 2.73226 72.8147 3.38016C72.7763 3.45761 72.738 3.53506 72.6985 3.61485C72.4837 4.02983 72.2831 4.40163 71.9007 4.68502C71.5636 4.74271 71.4044 4.72046 71.1076 4.55026C71.0309 4.49111 70.9542 4.43196 70.8752 4.37102C70.0136 3.76849 69.0417 3.52219 67.9939 3.68021C67.4332 3.86478 67.0068 4.11228 66.5846 4.52453C66.3209 5.18397 66.286 5.84873 66.531 6.52281C66.9956 7.32309 67.786 7.78075 68.552 8.25768C68.6262 8.30393 68.7004 8.35018 68.7769 8.39783C69.0855 8.5897 69.3942 8.78131 69.7034 8.97209C70.2812 9.3311 70.8188 9.72116 71.3426 10.1557C71.4554 10.2408 71.5682 10.326 71.6845 10.4138C72.712 11.3541 73.5406 12.5233 73.6274 13.9455C73.6312 14.1382 73.6323 14.331 73.6309 14.5238C73.6303 14.6258 73.6296 14.7278 73.629 14.8329C73.5932 16.209 73.2144 17.4108 72.2356 18.4174C72.1482 18.5094 72.1482 18.5094 72.059 18.6032C70.5418 20.0431 68.428 20.2753 66.4411 20.2644C64.496 20.2121 62.8512 19.6453 61.3369 18.4069C61.1848 18.1941 61.1848 18.1941 61.1211 17.9024C61.2173 17.3311 61.5169 16.9201 61.8336 16.4427C61.8947 16.3473 61.9557 16.252 62.0187 16.1538C62.5488 15.3356 62.5488 15.3356 62.8591 15.0681C63.1229 15.0179 63.1229 15.0179 63.4172 15.0681C63.7011 15.2682 63.7011 15.2682 63.9963 15.5356C65.047 16.4204 65.8469 16.7545 67.2177 16.6852C67.7835 16.6158 68.1603 16.4912 68.552 16.0729C68.937 15.5434 68.9622 15.03 68.8869 14.3982C68.7152 13.5045 68.0979 12.9152 67.3689 12.4113C67.0524 12.2165 66.7325 12.0293 66.4102 11.8443C64.3932 10.6511 62.5293 9.41932 61.8279 7.07493C61.7681 6.81441 61.7681 6.81441 61.6313 6.69464C61.5105 4.84558 61.8474 3.51324 63.0266 2.06135C63.9524 1.05541 65.1259 0.544199 66.4311 0.219202C66.5328 0.190126 66.5328 0.190126 66.6365 0.160463C68.0278 -0.144818 69.6993 0.0226761 71.0705 0.351781Z" fill="white"/>
<path d="M2.60341 0.533331C2.69888 0.531865 2.79434 0.530398 2.8927 0.528888C3.46565 0.528164 3.93914 0.58478 4.48011 0.777555C4.59173 0.889201 4.59173 0.889201 4.60547 1.14879C4.60536 1.26477 4.60526 1.38076 4.60515 1.50025C4.60531 1.63286 4.60546 1.76547 4.60562 1.9021C4.60502 2.1223 4.60502 2.1223 4.6044 2.34694C4.60437 2.50205 4.60439 2.65716 4.60445 2.81227C4.60448 3.23461 4.60383 3.65695 4.60305 4.07929C4.60235 4.5202 4.60228 4.9611 4.60215 5.40201C4.6018 6.23749 4.60089 7.07298 4.59977 7.90846C4.59852 8.85939 4.59791 9.81032 4.59735 10.7612C4.59618 12.7179 4.59421 14.6746 4.59173 16.6312C4.70632 16.6278 4.82091 16.6245 4.93898 16.621C5.37462 16.6082 5.81028 16.5958 6.24593 16.5835C6.43252 16.5782 6.61911 16.5728 6.80569 16.5673C7.44436 16.5484 8.08303 16.5324 8.72185 16.5196C8.86482 16.5166 8.86482 16.5166 9.01068 16.5136C9.29026 16.5084 9.56981 16.505 9.84943 16.5021C9.97766 16.4996 9.97766 16.4996 10.1085 16.4971C10.3161 16.496 10.5238 16.5068 10.7311 16.5196C11.1298 16.9184 11.0004 17.529 11.0032 18.0687C11.0068 18.1917 11.0105 18.3148 11.0143 18.4415C11.0151 18.56 11.0159 18.6784 11.0167 18.8005C11.0189 18.9632 11.0189 18.9632 11.0212 19.1292C10.9543 19.4224 10.9543 19.4224 10.7317 19.6605C10.2954 19.9316 9.92409 19.9309 9.4262 19.9249C9.28154 19.9259 9.28154 19.9259 9.13396 19.9268C8.81603 19.9282 8.49821 19.9263 8.18029 19.9243C7.95915 19.9243 7.73802 19.9245 7.51688 19.9248C7.0539 19.925 6.59096 19.9236 6.12799 19.921C5.53402 19.9178 4.94011 19.9182 4.34613 19.9196C3.88974 19.9204 3.43337 19.9195 2.97698 19.9181C2.75793 19.9176 2.53887 19.9176 2.31981 19.918C2.01409 19.9183 1.70845 19.9165 1.40274 19.914C1.31193 19.9145 1.22111 19.9151 1.12754 19.9156C0.520821 19.9075 0.520821 19.9075 0.237647 19.723C0.0436665 19.3924 0.0880677 19.0265 0.0988347 18.6548C0.101297 18.5279 0.101297 18.5279 0.103809 18.3985C0.116346 17.8332 0.137686 17.2693 0.167947 16.7047C0.234752 15.4541 0.256582 14.2069 0.257115 12.9548C0.257476 12.7483 0.257852 12.5418 0.258241 12.3353C0.258902 11.905 0.259117 11.4748 0.25905 11.0445C0.259041 10.6138 0.259805 10.1831 0.261339 9.75232C0.263579 9.1172 0.264483 8.4821 0.264092 7.84698C0.264042 7.74333 0.263992 7.63968 0.263941 7.5329C0.261873 6.38052 0.239946 5.23214 0.175413 4.08145C0.16971 3.97963 0.164006 3.87781 0.15813 3.7729C0.130174 3.28902 0.0991422 2.80553 0.0640388 2.32212C0.0583584 2.23514 0.052678 2.14816 0.0468255 2.05854C0.0362657 1.89694 0.0243061 1.73542 0.0106759 1.57405C-0.00884738 1.26053 -0.0206534 1.0557 0.154121 0.787671C0.793812 0.39001 1.8656 0.540525 2.60341 0.533331Z" fill="white"/>
<path d="M25.4653 8.73203C26.252 9.33029 26.5739 10.2014 26.7567 11.1434C26.8559 11.8762 26.8362 12.6168 26.834 13.3548C26.8341 13.5329 26.8344 13.711 26.8346 13.8891C26.835 14.26 26.8345 14.6308 26.8334 15.0016C26.8322 15.4774 26.8329 15.9532 26.8342 16.429C26.835 16.7956 26.8348 17.1622 26.8342 17.5289C26.8341 17.7044 26.8342 17.88 26.8348 18.0556C26.8353 18.2998 26.8345 18.544 26.8332 18.7882C26.833 18.9271 26.8329 19.0661 26.8327 19.2092C26.8043 19.5337 26.8043 19.5337 26.5811 19.757C25.9523 19.9163 25.3 19.8892 24.6556 19.8896C24.4872 19.8916 24.4872 19.8916 24.3155 19.8937C24.1549 19.8941 24.1549 19.8941 23.991 19.8944C23.8449 19.8951 23.8449 19.8951 23.6957 19.8958C23.4556 19.8687 23.4556 19.8687 23.2323 19.6454C23.2035 19.3348 23.2035 19.3348 23.2021 18.9337C23.2015 18.8607 23.2009 18.7877 23.2003 18.7125C23.1992 18.5538 23.1985 18.395 23.1983 18.2363C23.1979 17.9847 23.196 17.7331 23.1938 17.4815C23.1876 16.7661 23.1841 16.0508 23.1814 15.3354C23.1796 14.8978 23.1763 14.4604 23.1719 14.0229C23.1707 13.8564 23.17 13.6899 23.17 13.5235C23.17 13.2899 23.1679 13.0564 23.1654 12.8229C23.1649 12.6902 23.1643 12.5575 23.1637 12.4208C23.1151 12.0057 23.0046 11.7382 22.7858 11.3836C22.3942 11.1225 22.2421 11.1142 21.7812 11.1603C21.2467 11.3559 21.0524 11.729 20.7892 12.2048C20.4247 13.0709 20.409 13.8882 20.4073 14.8158C20.4045 15.0918 20.4016 15.3677 20.3988 15.6436C20.3956 16.0765 20.3929 16.5095 20.3908 16.9424C20.3884 17.3617 20.384 17.7809 20.3794 18.2001C20.3794 18.3305 20.3793 18.4608 20.3793 18.5951C20.3778 18.7152 20.3764 18.8352 20.3748 18.9589C20.374 19.1177 20.374 19.1177 20.3731 19.2798C20.3589 19.3636 20.3447 19.4474 20.3301 19.5337C19.9314 19.7996 19.7555 19.7844 19.2827 19.7828C19.1433 19.7825 19.0039 19.7823 18.8602 19.7821C18.7145 19.7807 18.5687 19.7794 18.4185 19.778C18.2719 19.7779 18.1253 19.7778 17.9742 19.7777C16.8854 19.7727 16.8854 19.7727 16.7581 19.6454C16.7441 19.2988 16.7373 18.9546 16.7352 18.6078C16.7341 18.4989 16.733 18.39 16.7318 18.2778C16.7283 17.9159 16.7255 17.5541 16.7228 17.1922C16.7205 16.9421 16.7182 16.6919 16.7158 16.4418C16.7096 15.7819 16.7041 15.1221 16.6987 14.4622C16.6931 13.7895 16.6869 13.1168 16.6807 12.444C16.6687 11.123 16.6574 9.8019 16.6465 8.48083C17.3351 8.27771 17.9148 8.22017 18.6278 8.22265C18.7333 8.22085 18.8388 8.21905 18.9474 8.21719C19.0992 8.21709 19.0992 8.21709 19.254 8.21698C19.3454 8.21664 19.4369 8.21631 19.5312 8.21597C19.8307 8.26767 19.9293 8.34855 20.1069 8.59247C20.1396 8.96709 20.1396 8.96709 20.1278 9.39492C20.1248 9.53697 20.1217 9.67902 20.1186 9.82537C20.1147 9.93432 20.1109 10.0433 20.1069 10.1555C20.1805 10.1555 20.2542 10.1555 20.3301 10.1555C20.3587 10.0909 20.3874 10.0263 20.4169 9.95969C20.8736 9.12052 21.764 8.47277 22.6681 8.1895C23.6972 7.99382 24.583 8.18158 25.4653 8.73203Z" fill="white"/>
<path d="M105.151 8.45156C105.28 8.45127 105.408 8.45098 105.54 8.45068C105.741 8.45198 105.741 8.45198 105.947 8.4533C106.081 8.45244 106.215 8.45157 106.353 8.45068C106.545 8.45112 106.545 8.45112 106.742 8.45156C106.918 8.45193 106.918 8.45193 107.099 8.45232C107.398 8.48121 107.398 8.48121 107.733 8.7045C107.772 8.99312 107.772 8.99312 107.769 9.36312C107.768 9.5014 107.768 9.63968 107.768 9.78215C107.766 9.93392 107.763 10.0857 107.761 10.2374C107.76 10.393 107.76 10.5485 107.759 10.704C107.757 11.1143 107.753 11.5245 107.749 11.9348C107.742 12.5895 107.739 13.2442 107.735 13.899C107.733 14.127 107.731 14.355 107.728 14.583C107.727 14.793 107.727 14.793 107.725 15.0073C107.723 15.1911 107.723 15.1911 107.721 15.3787C107.738 15.9114 107.761 16.3723 108.026 16.8407C108.381 17.1592 108.597 17.1978 109.072 17.1896C109.79 16.8305 110.057 16.3058 110.317 15.5719C110.554 14.8329 110.589 14.1462 110.587 13.3749C110.59 13.1737 110.59 13.1737 110.592 12.9684C110.597 12.5449 110.598 12.1215 110.6 11.698C110.603 11.2701 110.607 10.8423 110.611 10.4144C110.614 10.1493 110.616 9.88416 110.617 9.619C110.617 9.5004 110.618 9.38179 110.619 9.2596C110.619 9.1548 110.62 9.05 110.62 8.94203C110.635 8.7045 110.635 8.7045 110.746 8.59286C111.206 8.56853 111.666 8.57211 112.126 8.57217C112.357 8.57193 112.588 8.5699 112.819 8.56778C113.036 8.56746 113.036 8.56746 113.258 8.56713C113.391 8.56667 113.525 8.56621 113.663 8.56574C113.984 8.59286 113.984 8.59286 114.207 8.81615C114.237 9.15509 114.237 9.15509 114.241 9.59699C114.242 9.67746 114.242 9.75793 114.243 9.84085C114.246 10.1085 114.248 10.3762 114.249 10.6439C114.251 10.8312 114.253 11.0186 114.255 11.2059C114.26 11.7016 114.264 12.1973 114.267 12.6929C114.273 13.4794 114.281 14.2659 114.288 15.0524C114.291 15.3241 114.293 15.5958 114.294 15.8675C114.304 17.0923 114.357 18.3116 114.43 19.5341C113.782 19.9444 113.273 19.9267 112.518 19.9249C112.335 19.9296 112.335 19.9296 112.147 19.9345C111.971 19.9349 111.971 19.9349 111.792 19.9353C111.685 19.9361 111.578 19.9369 111.468 19.9377C111.193 19.8691 111.193 19.8691 110.992 19.6045C110.85 19.2942 110.804 19.0565 110.781 18.7177C110.774 18.6191 110.767 18.5205 110.759 18.419C110.753 18.3078 110.753 18.3078 110.746 18.1944C110.672 18.2833 110.672 18.2833 110.595 18.374C109.74 19.3739 108.872 19.9906 107.536 20.1229C106.697 20.152 106.071 20.0418 105.388 19.5341C104.312 18.4659 104.052 17.0906 104.022 15.6157C104.021 15.3777 104.022 15.1397 104.023 14.9017C104.023 14.7735 104.023 14.6453 104.023 14.5132C104.024 14.2439 104.025 13.9746 104.026 13.7054C104.028 13.2978 104.028 12.8902 104.028 12.4826C104.033 9.28851 104.033 9.28851 104.161 8.7045C104.546 8.44745 104.697 8.45253 105.151 8.45156Z" fill="white"/>
<path d="M39.9764 8.45156C40.1771 8.45112 40.1771 8.45112 40.3817 8.45068C40.5221 8.45155 40.6625 8.45241 40.8071 8.4533C41.017 8.45201 41.017 8.45201 41.2311 8.45068C41.365 8.45097 41.4989 8.45126 41.6369 8.45156C41.76 8.45181 41.883 8.45206 42.0099 8.45232C42.321 8.48121 42.321 8.48121 42.6559 8.7045C42.6626 9.05867 42.6483 9.39205 42.621 9.7442C42.5539 10.8765 42.5234 12.0065 42.518 13.1406C42.5169 13.3214 42.5152 13.5021 42.5127 13.6829C42.4368 15.3971 42.4368 15.3971 43.0312 16.9432C43.3543 17.1813 43.7279 17.13 44.107 17.0779C44.528 16.9248 44.6527 16.7617 44.9023 16.3871C45.605 14.8073 45.4996 12.9742 45.5093 11.2863C45.5119 10.9183 45.5151 10.5504 45.5195 10.1824C45.5222 9.95532 45.5239 9.72818 45.5244 9.50104C45.5255 9.39953 45.5267 9.29803 45.5278 9.19344C45.5283 9.10412 45.5288 9.01481 45.5293 8.92278C45.5581 8.7045 45.5581 8.7045 45.7814 8.48121C46.0678 8.45232 46.0678 8.45232 46.4263 8.45156C46.6193 8.45112 46.6193 8.45112 46.8163 8.45068C47.0189 8.45198 47.0189 8.45198 47.2255 8.4533C47.3601 8.45244 47.4947 8.45157 47.6334 8.45068C47.7623 8.45097 47.8911 8.45126 48.0239 8.45156C48.1423 8.45181 48.2607 8.45206 48.3827 8.45232C48.6836 8.48121 48.6836 8.48121 49.0185 8.7045C49.0532 8.97967 49.0662 9.22742 49.065 9.50306C49.0659 9.58532 49.0669 9.66759 49.0679 9.75235C49.0707 10.0254 49.0712 10.2984 49.0717 10.5715C49.0733 10.7615 49.075 10.9515 49.077 11.1416C49.0816 11.6432 49.0844 12.1448 49.0867 12.6464C49.0907 13.4465 49.0976 14.2466 49.1044 15.0466C49.1065 15.3252 49.1078 15.6038 49.109 15.8824C49.1138 16.6974 49.1315 17.4971 49.2417 18.306C49.2485 18.5502 49.2515 18.7945 49.2487 19.0387C49.2477 19.154 49.2467 19.2692 49.2457 19.388C49.2444 19.4731 49.2431 19.5581 49.2417 19.6458C48.8286 19.8351 48.5043 19.8976 48.0509 19.8987C47.8738 19.8991 47.8738 19.8991 47.6932 19.8996C47.5711 19.8987 47.449 19.8979 47.3232 19.897C47.1998 19.8978 47.0764 19.8987 46.9493 19.8996C46.8317 19.8993 46.714 19.899 46.5928 19.8987C46.4853 19.8985 46.3778 19.8982 46.267 19.8979C46.0046 19.8691 46.0046 19.8691 45.7814 19.6458C45.7107 19.3309 45.7107 19.3309 45.6558 18.9619C45.6277 18.7784 45.6277 18.7784 45.5991 18.5912C45.5856 18.4971 45.5721 18.403 45.5581 18.306C45.5147 18.3627 45.4712 18.4194 45.4264 18.4778C44.803 19.2451 43.9811 19.8942 42.9907 20.0923C41.9232 20.1768 41.0291 20.0934 40.1722 19.4155C39.3265 18.6134 39.02 17.5416 38.952 16.4038C38.9448 16.0265 38.9442 15.6498 38.9465 15.2724C38.9466 15.134 38.9466 14.9955 38.9467 14.8529C38.947 14.5613 38.9479 14.2696 38.9493 13.978C38.9513 13.5361 38.9516 13.0942 38.9515 12.6522C38.9521 12.3673 38.9527 12.0824 38.9535 11.7974C38.9537 11.6023 38.9537 11.6023 38.9539 11.4033C38.9706 8.45362 38.9706 8.45362 39.9764 8.45156Z" fill="white"/>
<path d="M118.518 4.55234C118.625 4.55097 118.731 4.5496 118.841 4.54819C118.994 4.54787 118.994 4.54787 119.15 4.54754C119.243 4.54708 119.336 4.54662 119.432 4.54615C119.676 4.57327 119.676 4.57327 120.011 4.79656C120.048 5.11798 120.048 5.11798 120.039 5.52923C120.037 5.63837 120.037 5.63837 120.035 5.74972C120.016 6.62392 119.959 7.49701 119.9 8.36922C119.98 8.36863 120.061 8.36805 120.144 8.36744C120.507 8.36513 120.869 8.36367 121.232 8.36224C121.359 8.3613 121.486 8.36037 121.616 8.3594C121.737 8.35904 121.857 8.35868 121.982 8.35831C122.149 8.35744 122.149 8.35744 122.32 8.35654C122.579 8.36922 122.579 8.36922 122.69 8.48086C122.704 8.79617 122.711 9.10752 122.711 9.42287C122.712 9.51102 122.714 9.59917 122.715 9.68999C122.716 9.91976 122.704 10.1495 122.69 10.3788C122.467 10.6021 122.467 10.6021 122.185 10.6275C122.07 10.6263 121.954 10.6251 121.835 10.6239C121.71 10.6232 121.584 10.6225 121.455 10.6218C121.324 10.6199 121.193 10.618 121.058 10.6161C120.926 10.6151 120.793 10.6141 120.657 10.613C120.33 10.6104 120.003 10.6067 119.676 10.6021C119.684 11.4147 119.694 12.2271 119.706 13.0396C119.709 13.3158 119.712 13.5921 119.715 13.8683C119.719 14.2661 119.725 14.6637 119.731 15.0614C119.732 15.1844 119.732 15.3073 119.733 15.434C119.746 16.1004 119.791 16.6045 120.123 17.1892C120.382 17.3191 120.546 17.3194 120.834 17.3218C120.92 17.3234 121.007 17.325 121.095 17.3266C121.376 17.2983 121.549 17.2058 121.797 17.0776C122.302 17.1363 122.302 17.1363 122.467 17.3009C122.49 17.6121 122.503 17.9172 122.509 18.2289C122.515 18.3583 122.515 18.3583 122.521 18.4904C122.531 19.1284 122.531 19.1284 122.222 19.467C121.03 20.1461 119.725 20.2704 118.383 20.0431C117.646 19.8103 116.993 19.228 116.621 18.5569C116.197 17.5448 116.184 16.472 116.194 15.3911C116.194 15.2565 116.195 15.122 116.195 14.9834C116.196 14.558 116.199 14.1326 116.202 13.7073C116.203 13.417 116.204 13.1268 116.205 12.8366C116.207 12.129 116.211 11.4214 116.216 10.7138C116.131 10.7164 116.046 10.719 115.959 10.7216C115.848 10.7236 115.737 10.7257 115.623 10.7277C115.458 10.7316 115.458 10.7316 115.289 10.7356C114.988 10.7138 114.988 10.7138 114.653 10.4905C114.619 10.1644 114.607 9.86716 114.611 9.54149C114.61 9.45385 114.609 9.3662 114.607 9.2759C114.609 9.02164 114.609 9.02164 114.653 8.59251C115.059 8.32218 115.254 8.34574 115.735 8.35526C115.866 8.35728 115.998 8.35929 116.134 8.36137C116.234 8.36396 116.335 8.36655 116.439 8.36922C116.439 8.29611 116.438 8.223 116.437 8.14767C116.435 7.81215 116.434 7.47664 116.432 7.14112C116.431 7.02613 116.43 6.91113 116.429 6.79266C116.427 6.1545 116.435 5.53691 116.551 4.90821C117.041 4.4178 117.867 4.55278 118.518 4.55234Z" fill="white"/>
<path d="M131.844 9.37407C131.776 9.87362 131.584 10.2468 131.341 10.6859C131.271 10.8143 131.201 10.9426 131.129 11.0749C130.951 11.3837 130.951 11.3837 130.839 11.4953C130.37 11.546 130.146 11.4442 129.772 11.1674C129.223 10.7652 128.831 10.6949 128.153 10.6789C128.037 10.6747 127.92 10.6706 127.8 10.6663C127.48 10.6845 127.48 10.6845 127.284 10.9162C127.131 11.1694 127.131 11.1694 127.121 11.5302C127.457 12.4766 128.657 12.8749 129.495 13.3179C130.475 13.8578 131.263 14.587 131.844 15.5495C132.093 16.4676 132.062 17.4516 131.62 18.3057C131.069 19.2153 130.065 19.7398 129.066 20.0444C128.579 20.1425 128.077 20.1127 127.581 20.113C127.469 20.1143 127.357 20.1157 127.242 20.1171C126.153 20.1192 125.295 19.9361 124.33 19.4361C124.215 19.3793 124.215 19.3793 124.097 19.3214C123.672 19.1057 123.344 18.8938 123.025 18.529C123.172 18.0101 123.378 17.6399 123.702 17.2102C123.782 17.1035 123.861 16.9969 123.943 16.887C124.223 16.5255 124.223 16.5255 124.49 16.4705C124.847 16.5248 124.922 16.5911 125.181 16.8264C125.912 17.4881 126.523 17.7181 127.521 17.6777C127.846 17.6477 127.846 17.6477 128.195 17.4684C128.419 17.1862 128.419 17.1862 128.418 16.7636C128.285 16.1395 127.894 15.8541 127.379 15.5146C126.962 15.271 126.537 15.0409 126.112 14.8105C124.994 14.2008 124.005 13.5424 123.584 12.2768C123.497 11.368 123.445 10.5552 124.042 9.81236C126.139 7.68034 129.457 7.75714 131.844 9.37407Z" fill="white"/>
<path d="M91.7705 8.11128C91.8626 8.10711 91.9547 8.10293 92.0495 8.09863C92.4511 8.16704 92.6191 8.28529 92.8867 8.59275C92.9163 8.93462 92.9155 9.19973 92.8798 9.53476C92.8738 9.61859 92.8678 9.70242 92.8617 9.7888C92.8238 10.2415 92.7675 10.6414 92.5519 11.049C92.2736 11.162 92.0417 11.1641 91.7443 11.1423C91.0658 11.1022 90.6446 11.2001 90.0939 11.6085C89.4876 12.2174 89.191 13.0555 89.1855 13.9005C89.1838 14.0905 89.1838 14.0905 89.182 14.2843C89.1812 14.4211 89.1804 14.5579 89.1796 14.6988C89.1764 14.9867 89.1732 15.2746 89.17 15.5625C89.1652 16.0178 89.1611 16.473 89.1583 16.9283C89.1555 17.3667 89.1501 17.8051 89.1447 18.2435C89.1443 18.3805 89.144 18.5175 89.1436 18.6587C89.1417 18.785 89.1399 18.9113 89.138 19.0414C89.1371 19.153 89.1362 19.2645 89.1352 19.3795C89.1208 19.4673 89.1064 19.5551 89.0915 19.6457C88.6998 19.9068 88.5357 19.8977 88.0725 19.8986C87.8716 19.899 87.8716 19.899 87.6668 19.8995C87.5268 19.8986 87.3869 19.8977 87.2427 19.8969C87.1023 19.8977 86.962 19.8986 86.8174 19.8995C86.6836 19.8992 86.5499 19.8989 86.4121 19.8986C86.2276 19.8982 86.2276 19.8982 86.0394 19.8978C85.7428 19.8689 85.7428 19.8689 85.5195 19.6457C85.4964 19.3676 85.4871 19.1017 85.4875 18.8234C85.4867 18.7386 85.4859 18.6538 85.4851 18.5664C85.4836 18.3817 85.4826 18.197 85.482 18.0123C85.4811 17.7188 85.4788 17.4253 85.4762 17.1317C85.4708 16.5067 85.4671 15.8816 85.4637 15.2566C85.4597 14.5362 85.455 13.8158 85.4485 13.0954C85.4463 12.8084 85.4454 12.5215 85.4445 12.2345C85.4385 11.3298 85.4004 10.4648 85.2321 9.57214C85.1814 9.24134 85.1769 8.9269 85.1846 8.59275C85.8748 8.28594 86.4896 8.2213 87.2357 8.21595C87.3692 8.21368 87.3692 8.21368 87.5054 8.21137C88.1463 8.21628 88.1463 8.21628 88.3863 8.40713C88.6975 8.79983 88.6567 9.19473 88.652 9.67432C88.651 9.806 88.65 9.93769 88.6489 10.0734C88.6476 10.1742 88.6463 10.2751 88.645 10.3791C88.9172 10.2719 88.9172 10.2719 89.0566 9.86272C89.393 9.16344 89.9489 8.59198 90.6542 8.25781C91.02 8.14285 91.3891 8.12823 91.7705 8.11128Z" fill="white"/>
<path d="M13.5216 8.33448C13.6663 8.33268 13.8111 8.33088 13.9602 8.32903C14.0987 8.32895 14.2371 8.32888 14.3797 8.32881C14.5703 8.32831 14.5703 8.32831 14.7647 8.3278C15.1278 8.37502 15.2007 8.42205 15.4192 8.7043C15.4587 8.91639 15.4587 8.91639 15.4552 9.15995C15.4548 9.25247 15.4543 9.345 15.4538 9.44032C15.4515 9.54143 15.4493 9.64253 15.447 9.7467C15.4459 9.85346 15.4449 9.96023 15.4438 10.0702C15.44 10.4237 15.4337 10.777 15.4275 11.1304C15.4244 11.3752 15.4214 11.6201 15.4185 11.8649C15.4107 12.5097 15.4008 13.1545 15.3905 13.7993C15.3803 14.457 15.372 15.1148 15.3636 15.7726C15.3468 17.0636 15.3279 18.3546 15.3076 19.6456C14.9486 19.8364 14.7088 19.8974 14.2999 19.8985C14.1931 19.8988 14.0862 19.8991 13.9761 19.8994C13.8653 19.8985 13.7544 19.8977 13.6402 19.8968C13.4745 19.8981 13.4745 19.8981 13.3055 19.8994C13.1985 19.8991 13.0916 19.8988 12.9813 19.8985C12.8842 19.8983 12.7871 19.898 12.687 19.8977C12.3419 19.8623 11.9884 19.7867 11.7356 19.5339C11.7198 19.1954 11.7113 18.8592 11.7074 18.5204C11.7057 18.414 11.7041 18.3077 11.7024 18.1981C11.6971 17.8445 11.6927 17.491 11.6885 17.1375C11.6853 16.8929 11.6822 16.6482 11.6791 16.4036C11.6726 15.8901 11.6667 15.3766 11.6611 14.8631C11.6537 14.2037 11.6443 13.5443 11.6343 12.8849C11.6271 12.3795 11.6213 11.8741 11.616 11.3687C11.6132 11.1255 11.6098 10.8823 11.6058 10.6391C11.6004 10.2996 11.5972 9.96015 11.5944 9.62061C11.5923 9.51928 11.5903 9.41795 11.5881 9.31354C11.5872 9.03413 11.5872 9.03413 11.624 8.59266C12.1898 8.21538 12.8573 8.33283 13.5216 8.33448Z" fill="white"/>
<path d="M94.512 9.4311C96.2226 7.84974 99.0542 7.83221 100.99 8.98774C102.11 9.79199 102.884 10.9215 103.186 12.2631C103.504 14.3294 103.321 16.3565 102.081 18.0825C101.447 18.8906 100.748 19.3536 99.8089 19.7573C99.7325 19.7931 99.6561 19.8288 99.5774 19.8657C98.3433 20.3712 96.6838 20.1727 95.4554 19.7573C94.0148 19.0643 93.2635 17.9611 92.6643 16.519C92.1432 14.8663 92.2269 12.8288 92.9993 11.2719C93.3669 10.6387 93.7939 10.088 94.3391 9.59712C94.3961 9.54229 94.4533 9.48759 94.512 9.4311ZM98.3577 10.4907C97.6336 10.3959 97.2072 10.5483 96.6829 11.0483C96.1298 11.9413 95.8746 12.8369 95.8714 13.8813C95.8723 13.9786 95.8734 14.073 95.8743 14.1674C95.8683 14.8234 95.9079 15.4289 96.0579 16.0688C96.2704 16.7885 96.5806 17.3558 97.2415 17.7475C97.8005 17.8315 98.3179 17.8369 98.804 17.5239C99.6861 16.5618 99.8228 15.4216 99.8421 14.1674C99.843 13.9845 99.8431 13.9841 99.844 13.8051C99.8472 13.2144 99.8632 12.6278 99.7102 12.0532C99.4472 11.3492 99.0435 10.827 98.3577 10.4907Z" fill="white"/>
<path d="M79.6045 8.25766C80.7868 7.97488 81.6998 8.23163 82.7578 8.78109C83.5765 9.46975 83.9917 10.2574 84.293 11.2713C84.333 11.38 84.3728 11.4895 84.4141 11.6014C84.5995 12.2603 84.5525 12.9593 84.5508 13.6375C84.5526 13.7771 84.5548 13.9166 84.5566 14.0604C84.5575 15.7994 84.1271 17.3588 82.9043 18.6473C82.4747 19.047 82.0464 19.3204 81.502 19.534C81.419 19.5736 81.3355 19.6124 81.25 19.6532C80.8604 19.7845 80.4927 19.7995 80.0859 19.7987C80.0072 19.7987 79.9278 19.7987 79.8467 19.7987C79.0262 19.7808 78.3877 19.5406 77.707 19.0868C77.7104 19.1747 77.7133 19.2628 77.7168 19.3534C77.7879 21.2377 77.835 23.1177 77.8184 25.0038C77.4053 25.1931 77.0811 25.2556 76.6279 25.2567C76.5099 25.257 76.3912 25.2574 76.2695 25.2577C76.1475 25.2568 76.0251 25.2566 75.8994 25.2557C75.7763 25.2566 75.6532 25.2568 75.5264 25.2577C75.4089 25.2574 75.291 25.257 75.1699 25.2567C75.0624 25.2564 74.9545 25.2569 74.8438 25.2567C74.5813 25.2278 74.5816 25.227 74.3584 25.0038C74.3295 24.7491 74.3296 24.7486 74.3281 24.4237C74.327 24.3009 74.3253 24.1781 74.3242 24.0516C74.3242 23.916 74.3243 23.7802 74.3242 23.6405C74.3233 23.4981 74.3223 23.3555 74.3213 23.2088C74.3192 22.8987 74.3182 22.5883 74.3174 22.2782C74.3161 21.7863 74.3126 21.2944 74.3096 20.8026C74.3049 20.0227 74.302 19.2426 74.2988 18.4627C74.2932 17.0712 74.2863 15.6795 74.2783 14.2879C74.2756 13.8006 74.2732 13.3133 74.2715 12.826C74.2706 12.5944 74.2688 12.3623 74.2676 12.1307C74.2661 11.8504 74.2653 11.5702 74.2646 11.2899C74.2598 10.4884 74.216 9.69996 74.1367 8.90219C74.1361 8.80009 74.1354 8.6978 74.1348 8.59262C74.6134 8.11388 75.4601 8.23329 76.1025 8.22934C76.1968 8.22704 76.2916 8.22487 76.3887 8.2225C76.7841 8.22001 77.0735 8.22262 77.4355 8.39047C77.6506 8.66262 77.6409 8.82888 77.623 9.17172C77.619 9.27223 77.6145 9.37285 77.6104 9.47641C77.6026 9.59134 77.6027 9.59149 77.5947 9.70883H77.8184C77.8607 9.60888 77.8611 9.60865 77.9043 9.50668C78.2396 8.91166 78.991 8.51112 79.6045 8.25766ZM79.8262 10.7137C79.2579 10.6415 79.0531 10.6353 78.5703 10.951C78.0078 11.5392 77.7668 11.9436 77.752 12.7528C77.7525 12.858 77.7534 12.9602 77.7539 13.0623C77.7525 13.2814 77.7517 13.5005 77.751 13.7196C77.7531 14.0631 77.7538 14.4064 77.75 14.7498C77.7472 14.975 77.7462 15.2005 77.7461 15.4256C77.7464 15.5355 77.7468 15.6422 77.7471 15.7489C77.7416 16.1251 77.7361 16.4857 77.8174 16.8543C78.0707 17.1781 78.2371 17.3612 78.6221 17.5028C79.2205 17.5546 79.6314 17.5113 80.1611 17.1893C80.8645 16.2522 81.0742 15.2126 81.1006 14.0643C81.1016 13.9089 81.1025 13.908 81.1035 13.7557C81.1117 13.0452 81.03 12.4239 80.8232 11.743C80.6113 11.2397 80.3256 10.9357 79.8262 10.7137Z" fill="white"/>
<path d="M32.4584 8.01351C33.2061 7.98284 33.762 8.08469 34.4438 8.39437C34.8071 8.50426 35.0286 8.44114 35.4008 8.36898C35.7612 8.34639 36.1209 8.34385 36.4819 8.34164C36.5772 8.33934 36.6727 8.33717 36.7709 8.3348C36.8625 8.33423 36.954 8.33344 37.0483 8.33285C37.131 8.33181 37.214 8.33099 37.2993 8.32992C37.5895 8.38194 37.6744 8.47506 37.8569 8.70394C37.897 8.92972 37.8965 8.92999 37.894 9.1932C37.8938 9.34308 37.8942 9.3432 37.894 9.49594C37.8921 9.60537 37.8901 9.71521 37.8881 9.82797C37.8874 9.94334 37.8869 10.0587 37.8862 10.1776C37.8835 10.5607 37.8778 10.9439 37.8725 11.327C37.8699 11.5936 37.868 11.8611 37.8657 12.1278C37.8604 12.6877 37.8534 13.2476 37.8461 13.8075C37.8369 14.5226 37.8307 15.2378 37.8247 15.953C37.8198 16.5044 37.8133 17.0559 37.8071 17.6073C37.8042 17.8706 37.8016 18.134 37.7993 18.3973C37.7958 18.7676 37.7908 19.1384 37.7856 19.5086C37.7844 19.6694 37.7848 19.6696 37.7836 19.8338C37.7553 21.5153 37.4308 23.3353 36.2026 24.5731C35.7781 24.9339 35.3433 25.2085 34.8422 25.451C34.7491 25.4971 34.6559 25.5431 34.56 25.5907C33.0774 26.2022 31.2095 26.0876 29.7329 25.5145C28.4142 24.8726 28.4139 24.8727 28.145 24.3348C28.0258 23.3541 28.2675 22.3652 28.8149 21.5438C29.3177 21.5184 29.7779 21.5244 30.2661 21.6551C30.5087 21.9221 30.6412 22.1812 30.7983 22.5047C30.926 22.797 30.9259 22.797 31.2358 23.0086C31.9096 23.1867 32.5528 23.1988 33.2172 22.9813C33.8326 22.5309 34.0544 21.9412 34.1733 21.2088C34.1985 20.7618 34.1942 20.3166 34.187 19.869C34.1859 19.7505 34.1851 19.6316 34.184 19.5096C34.1814 19.2199 34.1779 18.9301 34.1733 18.6405C34.1234 18.6857 34.0733 18.7315 34.0219 18.7782C33.1079 19.5886 32.2025 19.8451 30.977 19.8075C30.1326 19.6939 29.4056 19.2447 28.8149 18.6405C27.9814 17.4675 27.4296 16.102 27.4477 14.6561C27.4489 14.5237 27.4484 14.5235 27.4497 14.3885C27.4845 12.4719 28.0068 10.7089 29.4125 9.34261C30.3103 8.58013 31.2815 8.0971 32.4584 8.01351ZM33.5024 10.4901C32.9344 10.3828 32.5328 10.4425 32.101 10.8612C31.2423 11.857 31.0184 12.7414 31.0209 14.0428C31.0223 14.1586 31.0245 14.2712 31.0258 14.3836C31.0264 15.3278 31.0892 16.0404 31.6049 16.8543C31.9503 17.1547 32.1633 17.2847 32.6157 17.3495C33.1074 17.2762 33.3773 17.0803 33.7397 16.7498C34.3337 15.7794 34.3338 15.7791 34.3188 13.4871C34.3152 13.2037 34.3111 12.9201 34.31 12.6366C34.3096 12.4484 34.3091 12.2602 34.308 12.0721C34.3074 11.9811 34.3067 11.8928 34.3061 11.8045C34.3045 11.5143 34.2977 11.2274 34.2836 10.9373C34.0778 10.7315 34.0778 10.7308 33.5024 10.4901Z" fill="white"/>
<path d="M14.7919 3.35914C14.9304 3.46145 15.0656 3.56839 15.1965 3.68012C15.2555 3.72862 15.3145 3.77713 15.3753 3.8271C15.7063 4.15166 15.7985 4.44817 15.8244 4.89427C15.7883 5.59913 15.4815 6.10048 14.9663 6.56895C14.8949 6.6104 14.8236 6.65185 14.75 6.69455C14.6864 6.73312 14.6228 6.77169 14.5573 6.81143C13.9782 7.05426 13.1986 7.02458 12.6034 6.84109C12.0782 6.56278 11.6659 6.10732 11.4013 5.5781C11.3105 4.95984 11.328 4.48218 11.7013 3.96622C12.4477 3.09492 13.7595 2.74663 14.7919 3.35914Z" fill="white"/>
<path d="M51.7389 8.87717C53.7164 8.03856 56.4568 7.64246 58.32 8.98655C59.1989 9.76295 59.6366 10.539 59.7341 11.719C59.7524 12.169 59.7571 12.6192 59.7614 13.0696C59.7651 13.3322 59.7694 13.595 59.7731 13.8576C59.7784 14.2684 59.7834 14.6793 59.7878 15.0901C59.7922 15.4888 59.7975 15.8877 59.8034 16.2864C59.8043 16.4082 59.8054 16.53 59.8063 16.6555C59.8183 17.4004 59.847 18.1079 60.2018 18.7805C60.2925 18.9758 60.2929 18.9761 60.2663 19.1926C60.162 19.4745 60.0519 19.5573 59.8044 19.7229C59.7368 19.7693 59.6689 19.8156 59.5993 19.8635C59.0252 20.2008 58.3686 20.139 57.7253 20.093C57.1418 19.9054 56.8947 19.6265 56.6091 19.0881V18.6408H56.3854C56.3581 18.7075 56.3306 18.7743 56.3024 18.843C56.0457 19.2902 55.5944 19.5046 55.1579 19.758C55.0913 19.7967 55.0244 19.8353 54.9557 19.8752C54.1342 20.2612 52.8525 20.2463 51.9899 19.9875C51.1163 19.5738 50.4249 18.8562 50.0925 17.9543C50.0696 17.8863 50.0467 17.8183 50.0231 17.7483C49.9863 17.6746 49.9497 17.6005 49.9118 17.5246C49.7936 16.4082 50.0634 15.5539 50.7136 14.6496C51.5785 13.6037 52.9229 12.9669 54.2643 12.8352C54.9341 12.8117 55.6043 12.822 56.2741 12.8352C56.2552 12.0146 56.2546 12.0146 55.9597 11.2658C55.4353 10.8014 54.9852 10.7731 54.3005 10.7815C53.598 10.8658 52.9929 11.1833 52.3669 11.4963C52.0463 11.5381 52.0457 11.5382 51.697 11.4963C51.4667 11.28 51.4669 11.2796 51.2507 10.9377C51.1994 10.8581 51.1482 10.7785 51.0954 10.6965C50.694 10.0358 50.6945 10.0352 50.6891 9.6467C50.857 9.25124 51.1411 9.1403 51.5163 8.97678C51.6263 8.92737 51.6266 8.92763 51.7389 8.87717ZM56.2741 14.6213C55.1244 14.5413 54.3468 14.6249 53.5319 15.4797C53.2731 16.0762 53.2781 16.6858 53.4831 17.301C53.8676 17.7044 54.0354 17.8404 54.5925 17.9289C55.1179 17.8907 55.4648 17.6733 55.8278 17.301C56.3638 16.6732 56.3637 16.6727 56.2741 14.6213Z" fill="white"/>
<path d="M124.364 9.48584C124.475 9.52268 124.585 9.55953 124.699 9.59749C124.441 9.85539 124.184 10.1133 123.918 10.379C123.918 9.94265 124.086 9.80783 124.364 9.48584Z" fill="white"/>
</svg>
