<svg width="84" height="67" viewBox="0 0 84 67" fill="none" xmlns="http://www.w3.org/2000/svg">
<path d="M38.8529 44.9136L39.7576 46.1101L38.8529 44.9136ZM76.0824 66.0035C76.852 66.3102 77.7244 65.9349 78.0311 65.1654L83.0289 52.6245C83.3356 51.855 82.9604 50.9825 82.1908 50.6758C81.4212 50.3691 80.5488 50.7444 80.2421 51.5139L75.7996 62.6613L64.6522 58.2188C63.8826 57.9121 63.0102 58.2874 62.7035 59.0569C62.3968 59.8265 62.772 60.699 63.5416 61.0057L76.0824 66.0035ZM0.0292969 1.51367L0.0576571 3.0134C17.8647 2.67667 33.0528 8.9431 40.8367 17.2524C44.716 21.3936 46.6704 25.937 46.3987 30.3733C46.1283 34.7863 43.6346 39.4175 37.9482 43.7171L38.8529 44.9136L39.7576 46.1101C45.9383 41.4367 49.0553 36.0707 49.393 30.5568C49.7294 25.0661 47.2895 19.7527 43.0261 15.2014C34.5245 6.12595 18.4336 -0.334626 0.000936663 0.0139401L0.0292969 1.51367ZM38.8529 44.9136L37.9482 43.7171C34.3197 46.4607 31.923 47.1231 30.5319 46.9392C29.3767 46.7865 28.5297 45.9692 28.1407 44.1938C27.7438 42.3826 27.9361 39.8696 28.7685 37.1855C29.5944 34.5223 31.0103 31.8245 32.9082 29.6551C34.8045 27.4875 37.1318 25.9008 39.7884 25.3209C42.4196 24.7465 45.5389 25.1227 49.1221 27.1696C56.3909 31.3219 65.392 42.2587 75.2597 65.2027L76.6377 64.61L78.0157 64.0174C68.096 40.9527 58.7718 29.2271 50.6102 24.5647C46.4781 22.2043 42.6059 21.6351 39.1485 22.3899C35.7164 23.1392 32.8579 25.1563 30.6503 27.6798C28.4443 30.2014 26.8382 33.2819 25.9031 36.2969C24.9746 39.2911 24.6669 42.3563 25.2102 44.8359C25.7613 47.3514 27.2946 49.5374 30.1388 49.9134C32.7472 50.2582 35.9691 48.9746 39.7576 46.1101L38.8529 44.9136Z" fill="#00C8E6"/>
</svg>
